<svg width="40" height="40" viewBox="0 0 40 40" fill="none" xmlns="http://www.w3.org/2000/svg">
<g clip-path="url(#clip0_464_7638)">
<path d="M36.7795 22.5886C38.4836 22.4546 39.86 23.5931 39.9911 25.3342C40.1222 27.1423 38.8769 28.6156 37.1727 28.7495C35.5341 28.8834 34.0922 27.6111 33.9611 25.9369C33.83 24.1288 35.0098 22.7895 36.7795 22.5886Z" fill="#86DA2F"/>
<path d="M16.0674 36.8524C16.0674 35.1113 17.3783 33.772 18.9513 33.772C20.5244 33.772 22.0319 35.2452 22.0319 36.9194C22.0319 38.5266 20.721 39.9329 19.2135 39.9999C17.3127 39.9999 16.0674 38.7945 16.0674 36.8524Z" fill="#24C2FF"/>
<path d="M20.7209 17.2981C20.4587 17.4321 20.3277 17.2312 20.2621 17.0303C17.837 12.4096 18.558 6.58344 22.8183 3.10116C23.9326 2.16363 26.03 1.96273 26.9476 2.90026C27.3408 3.2351 27.4064 3.6369 27.4719 4.10567C27.603 5.11017 27.7996 6.11468 28.4551 6.91828C29.1761 7.78885 30.0937 8.12368 31.1424 8.05672C32.06 8.05672 32.9776 7.92278 33.5675 8.99425C33.8952 9.59695 33.7641 11.9408 33.2398 12.4096C32.9776 12.6105 32.781 12.4765 32.5843 12.4096C31.0768 11.8069 29.5038 11.8069 27.9307 12.0747C27.4064 12.1417 27.1442 12.0078 27.1442 11.4051C27.0787 10.4006 26.882 9.46302 26.3577 8.59245C25.3745 6.78434 23.5393 6.71738 22.3595 8.39155C21.3764 9.73089 21.1142 11.3381 20.852 12.9453C20.5898 14.3516 20.6554 15.8249 20.7209 17.2981Z" fill="#FFCB12"/>
<path d="M22.3592 18.3028C22.2281 18.1019 22.2937 17.901 22.4903 17.767C26.2263 14.2848 31.7975 13.6151 36.1234 17.0304C37.2376 17.9679 37.9586 19.91 37.3687 21.0484C37.1065 21.5172 36.7788 21.7181 36.3856 21.852C35.468 22.2538 34.6159 22.6556 34.026 23.5262C33.4361 24.3968 33.305 25.4013 33.5672 26.4727C33.7638 27.3433 34.0915 28.2808 33.2395 29.0844C32.7807 29.5532 30.5522 29.955 29.9623 29.5532C29.7001 29.3523 29.7657 29.1514 29.8312 28.8835C30.0278 27.2094 29.6346 25.6691 29.0447 24.1959C28.848 23.6601 28.9136 23.3922 29.4379 23.2583C30.3555 22.9904 31.2076 22.5217 31.863 21.852C33.305 20.4457 32.9773 18.6376 31.0765 17.834C29.569 17.1643 27.996 17.2983 26.4885 17.4322C25.0465 17.4992 23.6701 17.901 22.3592 18.3028Z" fill="#86DA2F"/>
<path d="M21.5071 20.0438C21.7037 19.8429 21.8348 19.9099 22.0314 20.0438C26.3573 22.7225 28.5858 28.0128 26.6195 33.1693C26.0951 34.5086 24.391 35.848 23.1457 35.5131C22.6213 35.3792 22.3591 35.1113 22.097 34.7765C21.5071 33.9729 20.8516 33.2363 19.8685 32.9014C18.8198 32.5666 17.9022 32.7675 16.9846 33.3032C16.198 33.772 15.4115 34.3747 14.4284 33.772C13.8385 33.4372 12.8553 31.3612 13.0519 30.6915C13.183 30.4237 13.4452 30.4237 13.7074 30.4237C15.346 30.1558 16.6568 29.3522 17.9022 28.2807C18.2954 27.9459 18.6232 27.9459 18.9509 28.4146C19.4752 29.2183 20.1307 29.8879 20.9827 30.3567C22.6869 31.3612 24.3255 30.4906 24.5221 28.4816C24.7187 26.8074 24.1288 25.3342 23.6045 23.8609C23.0146 22.5216 22.2936 21.2492 21.5071 20.0438Z" fill="#24C2FF"/>
<path d="M19.4098 20.4457C19.1476 21.7851 18.5577 23.0574 17.7712 24.1959C15.4116 27.8121 12.0033 29.2853 7.80855 28.8835C6.30104 28.7496 5.05571 27.4772 4.92462 26.2049C4.85908 25.6691 4.99017 25.2673 5.31789 24.8655C5.77669 24.2628 6.16995 23.7271 6.36659 22.9905C6.75985 21.5172 6.2355 20.3118 5.1868 19.2403C3.74484 17.767 3.94147 16.4277 5.64561 15.3562C5.84224 15.2223 6.10441 15.0884 6.36659 14.9544C6.75985 14.7535 7.08757 14.7535 7.21865 15.2223C7.80855 16.7625 8.98833 17.901 10.2992 18.8385C10.758 19.2403 10.758 19.5082 10.3648 19.9769C9.57823 20.8475 9.11942 21.919 9.05388 23.1244C8.92279 24.5977 9.77486 25.5352 11.2168 25.5352C12.1344 25.5352 12.9865 25.2004 13.773 24.7986C15.8049 23.7271 17.3779 22.1869 18.8854 20.5796C19.0821 20.5127 19.1476 20.3787 19.4098 20.4457Z" fill="#0069DA"/>
<path d="M8.66123 6.38257C8.79232 6.38257 9.12004 6.44953 9.44775 6.5165C11.8729 6.98527 13.3804 6.1147 14.1669 3.77086C14.6912 2.23062 15.8055 1.76185 17.2475 2.56545C17.313 2.56545 17.313 2.63242 17.3785 2.63242C18.886 3.50299 18.886 3.63692 17.9684 4.97626C17.1819 6.04773 16.7886 7.25314 16.592 8.52551C16.4609 9.26214 16.1988 9.39608 15.5433 9.12821C14.4946 8.72641 13.3804 8.72641 12.2661 9.12821C11.0208 9.53001 10.4965 10.6684 10.8897 11.9408C11.4141 13.615 12.856 14.3516 14.1014 15.2222C15.3467 16.0928 16.7886 16.5615 18.1651 17.1642C18.3617 17.2312 18.6894 17.2312 18.6239 17.566C18.5583 17.7669 18.2962 17.7669 18.034 17.7669C15.0845 17.9009 12.2661 17.4321 9.9721 15.4231C7.80916 13.615 6.23611 11.4051 6.49829 8.32461C6.69492 7.3201 7.4159 6.58347 8.66123 6.38257Z" fill="#FF4649"/>
<path d="M3.28624 25.2002C1.71319 25.4011 0.140146 24.0618 0.00905832 22.3876C-0.122029 20.7804 1.18884 19.1732 2.69635 19.0392C4.40049 18.8383 5.97353 20.0437 6.10462 21.651C6.17017 23.1912 5.18701 25.0663 3.28624 25.2002Z" fill="#0069DA"/>
<path d="M30.8145 1.36007C32.4531 1.22614 34.0262 2.56548 34.1573 4.23965C34.2883 5.84685 32.9775 7.38709 31.4044 7.52103C29.7003 7.65496 28.1928 6.38259 28.0617 4.70842C27.9306 3.03424 29.1104 1.49401 30.8145 1.36007Z" fill="#FFCB12"/>
<path d="M13.7079 2.63241C13.9045 4.37355 12.7247 5.84682 10.955 6.11469C9.44753 6.31559 7.87448 5.04322 7.67785 3.56995C7.48122 1.62791 8.52991 0.221602 10.2996 0.0207015C11.9382 -0.180199 13.5112 1.09217 13.7079 2.63241Z" fill="#FF4649"/>
</g>
<defs>
<clipPath id="clip0_464_7638">
<rect width="40" height="40" fill="white"/>
</clipPath>
</defs>
</svg>
