<svg width="125" height="77" viewBox="0 0 125 77" fill="none" xmlns="http://www.w3.org/2000/svg">
<path d="M75.8262 55.341H37.0221C32.3249 55.341 27.5165 53.8077 25.1622 49.743C23.6533 47.1376 22.5308 43.9452 22.8158 40.5588C22.8675 39.9436 22.9619 39.3603 23.0928 38.8078C24.8843 31.2435 32.2731 25.1166 36.2969 18.4655C37.9832 15.6781 40.0827 13.4414 42.5625 12.8567C48.4865 11.46 53.2586 16.465 54.9041 19.1421C60.5852 26.8242 73.1933 43.1428 73.0053 47.4261C72.8172 51.7094 75.0035 55.341 75.8262 55.341Z" fill="#808080" stroke="black" stroke-width="4"/>
<path d="M92.4996 55.3198H77.7454C76.3582 55.3198 75.0786 54.5722 74.3974 53.3638L56.098 20.8994C55.5006 19.8396 55.9119 18.4955 57 17.9515C63.3384 15.7604 70.0248 10.8585 78.9192 12.2421C84.5628 13.12 89.9719 17.3814 93.4106 21.8048C97.5535 27.1343 100.041 34.3106 103.2 40.2764C103.908 41.6128 104.41 43.0074 104.508 44.4037C104.694 47.0611 103.712 49.4233 102.402 51.3009C100.239 54.4016 96.28 55.3198 92.4996 55.3198Z" fill="white" stroke="black" stroke-width="4"/>
<circle cx="89" cy="43" r="3" fill="black"/>
<circle cx="80" cy="24" r="3" fill="black"/>
<path d="M42.843 49.3546L38.0305 43.1336" stroke="black" stroke-width="5" stroke-linecap="round"/>
<path d="M91.1738 19.7043H108.076C108.172 19.7043 108.25 19.7821 108.25 19.8781C108.25 19.9741 108.172 20.0519 108.076 20.0519H91.1738C91.0779 20.0519 91 19.9741 91 19.8781C91 19.7821 91.0779 19.7043 91.1738 19.7043Z" fill="#0FDBFF" stroke="black" stroke-width="2"/>
<path d="M96.1738 26H114.484C114.58 26 114.658 26.0779 114.658 26.1738C114.658 26.2698 114.58 26.3477 114.484 26.3477H96.1738C96.0779 26.3477 96 26.2698 96 26.1738C96 26.0779 96.0779 26 96.1738 26Z" fill="white" stroke="black" stroke-width="2"/>
<path d="M99.1738 33.7043H117.484C117.58 33.7043 117.658 33.7821 117.658 33.8781C117.658 33.9741 117.58 34.0519 117.484 34.0519H99.1738C99.0779 34.0519 99 33.9741 99 33.8781C99 33.7821 99.0779 33.7043 99.1738 33.7043Z" fill="white" stroke="black" stroke-width="2"/>
<path d="M102.174 39.7043H120.484C120.58 39.7043 120.658 39.7821 120.658 39.8781C120.658 39.9741 120.58 40.0519 120.484 40.0519H102.174C102.078 40.0519 102 39.9741 102 39.8781C102 39.7821 102.078 39.7043 102.174 39.7043Z" fill="white" stroke="black" stroke-width="2"/>
<path d="M103.174 48.7043H116.79C116.886 48.7045 116.964 48.7823 116.964 48.8781C116.964 48.9739 116.886 49.0517 116.79 49.0519H103.174C103.078 49.0519 103 48.9741 103 48.8781C103 48.806 103.044 48.7443 103.106 48.718L103.174 48.7043Z" fill="#0FDBFF" stroke="black" stroke-width="2"/>
<path d="M116.122 25.2393C116.542 25.2394 116.883 25.58 116.883 26.0001C116.883 26.4201 116.542 26.7608 116.122 26.7608C115.702 26.7608 115.361 26.4201 115.361 26.0001C115.361 25.58 115.702 25.2393 116.122 25.2393Z" fill="white" stroke="black" stroke-width="2"/>
<path d="M34.0454 21.4749L15.7349 21.5343C15.6389 21.5346 15.5608 21.457 15.5605 21.361C15.5602 21.265 15.6378 21.1869 15.7338 21.1866L34.0442 21.1273C34.1402 21.127 34.2183 21.2046 34.2186 21.3005C34.2189 21.3965 34.1413 21.4746 34.0454 21.4749Z" fill="#0FDBFF" stroke="black" stroke-width="2"/>
<path d="M29.5407 29.0556L11.2303 29.115C11.1343 29.1153 11.0562 29.0377 11.0559 28.9417C11.0556 28.8457 11.1332 28.7676 11.2291 28.7673L29.5396 28.708C29.6355 28.7077 29.7136 28.7853 29.714 28.8812C29.7143 28.9772 29.6367 29.0553 29.5407 29.0556Z" fill="white" stroke="black" stroke-width="2"/>
<path d="M24.1841 34.9215L5.87369 34.9808C5.77772 34.9811 5.69961 34.9035 5.6993 34.8075C5.69902 34.7116 5.77661 34.6335 5.87257 34.6331L24.183 34.5738C24.279 34.5735 24.3571 34.6511 24.3574 34.7471C24.3577 34.8431 24.2801 34.9212 24.1841 34.9215Z" fill="white" stroke="black" stroke-width="2"/>
<path d="M22.5408 41.7294L4.23038 41.7887C4.13441 41.789 4.0563 41.7114 4.05599 41.6155C4.05571 41.5195 4.1333 41.4414 4.22926 41.4411L22.5397 41.3817C22.6357 41.3814 22.7138 41.4591 22.7141 41.555C22.7144 41.651 22.6368 41.7291 22.5408 41.7294Z" fill="white" stroke="black" stroke-width="2"/>
<path d="M23.7145 49.0069L5.40409 49.0662C5.30811 49.0665 5.23001 48.9889 5.2297 48.8929C5.22941 48.797 5.307 48.7188 5.40296 48.7185L23.7134 48.6592C23.8094 48.6589 23.8875 48.7365 23.8878 48.8325C23.8881 48.9284 23.8105 49.0065 23.7145 49.0069Z" fill="#0FDBFF" stroke="black" stroke-width="2"/>
<circle cx="13.2694" cy="21.2511" r="1" transform="rotate(179.814 13.2694 21.2511)" fill="#808080" stroke="black" stroke-width="1.52134"/>
<path d="M51.7176 14.563L51.8077 4.39834C51.8086 4.30237 51.8871 4.22521 51.9831 4.22606C52.079 4.22694 52.1562 4.30547 52.1554 4.40143L52.0653 14.5661C52.0644 14.662 51.9859 14.7392 51.8899 14.7383C51.7939 14.7375 51.7168 14.659 51.7176 14.563Z" fill="white" stroke="black" stroke-width="2"/>
<circle cx="52.014" cy="1.77618" r="1" transform="rotate(-89.4923 52.014 1.77618)" fill="#D9D9D9" stroke="black" stroke-width="1.52134"/>
<circle cx="8.76635" cy="28.7663" r="1" transform="rotate(179.814 8.76635 28.7663)" fill="white" stroke="black" stroke-width="1.52134"/>
<circle cx="3.40966" cy="34.6322" r="1" transform="rotate(179.814 3.40966 34.6322)" fill="white" stroke="black" stroke-width="1.52134"/>
<circle cx="1.76635" cy="41.4401" r="1" transform="rotate(179.814 1.76635 41.4401)" fill="white" stroke="black" stroke-width="1.52134"/>
<circle cx="2.94018" cy="48.9523" r="1" transform="rotate(179.814 2.94018 48.9523)" fill="#808080" stroke="black" stroke-width="1.52134"/>
<circle cx="110.776" cy="19.7607" r="1" fill="#808080" stroke="black" stroke-width="1.52134"/>
<circle cx="119.715" cy="33.7607" r="1" fill="white" stroke="black" stroke-width="1.52134"/>
<circle cx="122.95" cy="39.7607" r="1" fill="white" stroke="black" stroke-width="1.52134"/>
<circle cx="88.6204" cy="67.962" r="1" fill="#808080" stroke="black" stroke-width="1.52134"/>
<circle cx="82.0473" cy="70.779" r="1" fill="#808080" stroke="black" stroke-width="1.52134"/>
<circle cx="76.6479" cy="74.0656" r="1" fill="white" stroke="black" stroke-width="1.52134"/>
<path d="M69.6052 70.4878C70.0253 70.4878 70.366 70.8285 70.366 71.2485C70.3659 71.6686 70.0253 72.0092 69.6052 72.0093C69.1851 72.0093 68.8445 71.6686 68.8445 71.2485C68.8445 70.8284 69.1851 70.4878 69.6052 70.4878Z" fill="white" stroke="black" stroke-width="2"/>
<circle cx="60.7607" cy="74.7607" r="1" fill="#808080" stroke="black" stroke-width="1.52134"/>
<circle cx="51.9985" cy="66.7881" r="1" fill="white" stroke="black" stroke-width="1.52134"/>
<circle cx="45.8948" cy="75.2393" r="1" fill="white" stroke="black" stroke-width="1.52134"/>
<circle cx="37.9131" cy="67.962" r="1" fill="white" stroke="black" stroke-width="1.52134"/>
<circle cx="119.255" cy="48.7607" r="1" fill="#808080" stroke="black" stroke-width="1.52134"/>
<rect x="88.2097" y="55.3438" width="0.821646" height="10.6814" rx="0.410823" fill="#0FDBFF" stroke="black" stroke-width="0.821646"/>
<rect x="81.6364" y="55.3438" width="0.821646" height="13.4985" rx="0.410823" fill="#0FDBFF" stroke="black" stroke-width="0.821646"/>
<rect x="76.237" y="55.3438" width="0.821646" height="16.5503" rx="0.410823" fill="white" stroke="black" stroke-width="0.821646"/>
<rect x="69.1944" y="55.3438" width="0.821646" height="13.968" rx="0.410823" fill="#0FDBFF" stroke="black" stroke-width="0.821646"/>
<rect x="60.0389" y="55.3438" width="0.821646" height="17.9588" rx="0.410823" fill="#0FDBFF" stroke="black" stroke-width="0.821646"/>
<rect x="51.5877" y="55.3438" width="0.821646" height="9.50762" rx="0.410823" fill="white" stroke="black" stroke-width="0.821646"/>
<rect x="45.4839" y="55.3438" width="0.821646" height="17.9588" rx="0.410823" fill="white" stroke="black" stroke-width="0.821646"/>
<rect x="37.5023" y="55.3438" width="0.821646" height="10.6814" rx="0.410823" fill="white" stroke="black" stroke-width="0.821646"/>
<mask id="path-44-outside-1_723_51" maskUnits="userSpaceOnUse" x="32.3405" y="19.1335" width="59.6283" height="29.87" fill="black">
<rect fill="white" x="32.3405" y="19.1335" width="59.6283" height="29.87"/>
<path d="M37.8835 43.638C36.6703 43.5556 35.6875 43.0719 34.9351 42.1869C34.1826 41.3019 33.8664 39.976 33.9864 38.2094C34.0933 36.6344 34.514 35.0058 35.2483 33.3237C36.0054 31.6218 37.0416 30.2168 38.357 29.1087C39.6952 27.9807 41.2263 27.4753 42.9503 27.5924C43.823 27.6517 44.4621 27.8447 44.8675 28.1716C45.273 28.4985 45.4591 28.9067 45.4258 29.3963L45.4106 29.6198L45.8767 27.9515L50.4741 28.2637L47.4383 38.9626C47.3314 39.2761 47.2658 39.6138 47.2412 39.9756C47.2123 40.4013 47.2871 40.7164 47.4656 40.921C47.6669 41.1057 48.0017 41.214 48.4699 41.2458C48.7679 41.266 49.0049 41.2393 49.181 41.1658C48.6318 42.3259 48.1277 43.1362 47.6688 43.5969C47.2113 44.0362 46.5782 44.2284 45.7694 44.1735C44.8967 44.1142 44.201 43.8104 43.6823 43.262C43.1864 42.6938 42.9063 41.937 42.8422 40.9919C41.4094 42.8831 39.7565 43.7652 37.8835 43.638ZM40.1691 40.682C40.7012 40.7182 41.2393 40.5088 41.7833 40.054C42.3501 39.5793 42.7589 38.9121 43.0098 38.0525L45.0322 30.9412C45.051 30.6645 44.9627 30.3912 44.7672 30.1213C44.5731 29.8302 44.2526 29.6694 43.8056 29.6391C42.9543 29.5812 42.1541 30.0294 41.405 30.9835C40.6574 31.9163 40.0444 33.0721 39.5659 34.4508C39.0888 35.8083 38.8141 37.0191 38.7419 38.0834C38.6696 39.1476 38.7723 39.8388 39.0501 40.157C39.3491 40.4767 39.7221 40.6517 40.1691 40.682ZM55.9577 26.2947C55.4043 26.2571 54.9483 26.0444 54.5897 25.6566C54.2539 25.2489 54.1048 24.7683 54.1424 24.215C54.1785 23.6828 54.3905 23.2375 54.7784 22.879C55.1875 22.5219 55.6688 22.3621 56.2222 22.3997C56.7543 22.4358 57.1989 22.6585 57.556 23.0676C57.9131 23.4767 58.0736 23.9474 58.0374 24.4795C57.9998 25.0329 57.7765 25.4881 57.3674 25.8452C56.9597 26.181 56.4898 26.3309 55.9577 26.2947ZM61.7044 26.685C61.151 26.6474 60.6951 26.4347 60.3365 26.0468C60.0007 25.6392 59.8516 25.1586 59.8892 24.6052C59.9253 24.0731 60.1373 23.6278 60.5251 23.2692C60.9343 22.9121 61.4155 22.7524 61.9689 22.79C62.501 22.8261 62.9456 23.0487 63.3027 23.4579C63.6598 23.867 63.8203 24.3376 63.7842 24.8697C63.7466 25.4231 63.5233 25.8784 63.1141 26.2355C62.7064 26.5713 62.2365 26.7211 61.7044 26.685ZM53.4572 44.6956C51.9034 44.5901 50.7177 44.1033 49.8999 43.2352C49.0836 42.3459 48.7348 41.0285 48.8533 39.2832C48.953 37.8146 49.3502 36.2165 50.0449 34.4889C50.7395 32.7614 51.7794 31.3031 53.1644 30.1143C54.551 28.9041 56.2446 28.3669 58.2453 28.5028C60.5866 28.6618 61.6878 29.7629 61.5491 31.8062C61.4681 32.9982 61.0531 34.0712 60.3041 35.0253C59.5551 35.9794 58.5956 36.7268 57.4256 37.2674C56.257 37.7868 55.0313 38.0456 53.7485 38.044C53.6741 38.5094 53.6312 38.8272 53.6196 38.9975C53.4996 40.7641 54.0995 41.6922 55.4191 41.7818C56.015 41.8223 56.6644 41.706 57.3672 41.433C58.07 41.16 58.7147 40.7975 59.3013 40.3456C58.5127 43.4566 56.5647 44.9066 53.4572 44.6956ZM54.0761 36.5268C54.8863 36.5604 55.66 36.3457 56.397 35.8825C57.1554 35.4209 57.7742 34.8107 58.2533 34.0521C58.7552 33.2737 59.0358 32.4481 59.0951 31.5754C59.1543 30.7028 58.9179 30.2484 58.3858 30.2123C57.6409 30.1617 56.8496 30.7922 56.0122 32.1038C55.1975 33.3955 54.5521 34.8699 54.0761 36.5268ZM63.8081 45.3985C62.7864 45.3292 61.978 44.9535 61.3828 44.2716C60.809 43.5912 60.5654 42.6124 60.6521 41.3354C60.6882 40.8033 60.8204 40.1173 61.0485 39.2775L63.5733 30.4362L62.5197 30.3647L62.8619 29.105L63.9154 29.1765L65.1724 24.8357L69.9409 24.5181L68.5128 29.4887L70.4284 29.6188L70.0863 30.8786L68.1707 30.7485L65.477 40.1876C65.3701 40.5011 65.3045 40.8388 65.2799 41.2006C65.251 41.6263 65.3258 41.9414 65.5043 42.146C65.7056 42.3307 66.0404 42.439 66.5086 42.4708C67.1259 42.5127 67.7179 42.2963 68.2847 41.8216C68.853 41.3257 69.2823 40.6706 69.5728 39.8564L70.9137 39.9475C69.9701 42.1927 68.8529 43.6884 67.562 44.4347C66.2726 45.1596 65.0213 45.4809 63.8081 45.3985ZM75.7049 28.2452C75.0025 28.1975 74.4232 27.9122 73.9669 27.3895C73.5106 26.8667 73.3063 26.2541 73.354 25.5517C73.4017 24.8493 73.6869 24.27 74.2097 23.8137C74.7339 23.3361 75.3472 23.1212 76.0496 23.1689C76.752 23.2166 77.3306 23.5125 77.7855 24.0565C78.263 24.5808 78.478 25.1941 78.4303 25.8964C78.3826 26.5988 78.0867 27.1774 77.5426 27.6323C77.0198 28.0886 76.4073 28.2929 75.7049 28.2452ZM72.2878 45.9744C71.2661 45.905 70.4677 45.5408 69.8923 44.8816C69.3184 44.2011 69.0749 43.2224 69.1616 41.9453C69.1948 41.4558 69.3277 40.7592 69.5601 39.8555L72.4271 29.7546L77.0245 30.0668L73.9886 40.7657C73.8818 41.0792 73.8161 41.4168 73.7915 41.7786C73.7395 42.5449 74.1817 42.9598 75.1182 43.0234C75.9058 43.0769 76.7972 42.8594 77.7926 42.3711C78.8107 41.8629 79.6793 41.1949 80.3984 40.367L79.2593 30.2186L83.761 30.5243L84.5378 37.5049C85.565 36.5483 86.375 35.6411 86.9678 34.7833C87.5606 33.9255 87.8765 33.2093 87.9155 32.6346C87.9285 32.443 87.9266 32.3146 87.9096 32.2493C87.6088 32.2717 87.4264 32.2807 87.3625 32.2763C86.8304 32.2402 86.4582 32.0545 86.2457 31.7194C86.0347 31.3629 85.9473 30.9186 85.9834 30.3865C86.0152 29.9183 86.2101 29.568 86.568 29.3357C86.9273 29.0822 87.3624 28.9727 87.8732 29.0074C88.5543 29.0537 89.0683 29.3558 89.4153 29.914C89.7623 30.4721 89.9076 31.1662 89.8512 31.9963C89.7819 33.0179 89.3449 34.1002 88.5402 35.2429C87.7584 36.3659 86.5015 37.7131 84.7697 39.2847L84.9487 40.9006C85.0679 41.9778 85.2309 42.7266 85.4376 43.1469C85.6655 43.5686 86.1094 43.8019 86.7692 43.8467C87.1523 43.8727 87.4972 43.832 87.8039 43.7245C87.6465 44.783 87.2077 45.5764 86.4876 46.1048C85.7902 46.6134 84.9839 46.8366 84.0687 46.7745C83.0683 46.7065 82.3138 46.3239 81.8052 45.6265C81.3194 44.9092 80.9384 43.7501 80.6622 42.149C79.4489 43.3282 78.0903 44.2837 76.5866 45.0155C75.1042 45.7487 73.6713 46.0684 72.2878 45.9744Z"/>
</mask>
<path d="M37.8835 43.638C36.6703 43.5556 35.6875 43.0719 34.9351 42.1869C34.1826 41.3019 33.8664 39.976 33.9864 38.2094C34.0933 36.6344 34.514 35.0058 35.2483 33.3237C36.0054 31.6218 37.0416 30.2168 38.357 29.1087C39.6952 27.9807 41.2263 27.4753 42.9503 27.5924C43.823 27.6517 44.4621 27.8447 44.8675 28.1716C45.273 28.4985 45.4591 28.9067 45.4258 29.3963L45.4106 29.6198L45.8767 27.9515L50.4741 28.2637L47.4383 38.9626C47.3314 39.2761 47.2658 39.6138 47.2412 39.9756C47.2123 40.4013 47.2871 40.7164 47.4656 40.921C47.6669 41.1057 48.0017 41.214 48.4699 41.2458C48.7679 41.266 49.0049 41.2393 49.181 41.1658C48.6318 42.3259 48.1277 43.1362 47.6688 43.5969C47.2113 44.0362 46.5782 44.2284 45.7694 44.1735C44.8967 44.1142 44.201 43.8104 43.6823 43.262C43.1864 42.6938 42.9063 41.937 42.8422 40.9919C41.4094 42.8831 39.7565 43.7652 37.8835 43.638ZM40.1691 40.682C40.7012 40.7182 41.2393 40.5088 41.7833 40.054C42.3501 39.5793 42.7589 38.9121 43.0098 38.0525L45.0322 30.9412C45.051 30.6645 44.9627 30.3912 44.7672 30.1213C44.5731 29.8302 44.2526 29.6694 43.8056 29.6391C42.9543 29.5812 42.1541 30.0294 41.405 30.9835C40.6574 31.9163 40.0444 33.0721 39.5659 34.4508C39.0888 35.8083 38.8141 37.0191 38.7419 38.0834C38.6696 39.1476 38.7723 39.8388 39.0501 40.157C39.3491 40.4767 39.7221 40.6517 40.1691 40.682ZM55.9577 26.2947C55.4043 26.2571 54.9483 26.0444 54.5897 25.6566C54.2539 25.2489 54.1048 24.7683 54.1424 24.215C54.1785 23.6828 54.3905 23.2375 54.7784 22.879C55.1875 22.5219 55.6688 22.3621 56.2222 22.3997C56.7543 22.4358 57.1989 22.6585 57.556 23.0676C57.9131 23.4767 58.0736 23.9474 58.0374 24.4795C57.9998 25.0329 57.7765 25.4881 57.3674 25.8452C56.9597 26.181 56.4898 26.3309 55.9577 26.2947ZM61.7044 26.685C61.151 26.6474 60.6951 26.4347 60.3365 26.0468C60.0007 25.6392 59.8516 25.1586 59.8892 24.6052C59.9253 24.0731 60.1373 23.6278 60.5251 23.2692C60.9343 22.9121 61.4155 22.7524 61.9689 22.79C62.501 22.8261 62.9456 23.0487 63.3027 23.4579C63.6598 23.867 63.8203 24.3376 63.7842 24.8697C63.7466 25.4231 63.5233 25.8784 63.1141 26.2355C62.7064 26.5713 62.2365 26.7211 61.7044 26.685ZM53.4572 44.6956C51.9034 44.5901 50.7177 44.1033 49.8999 43.2352C49.0836 42.3459 48.7348 41.0285 48.8533 39.2832C48.953 37.8146 49.3502 36.2165 50.0449 34.4889C50.7395 32.7614 51.7794 31.3031 53.1644 30.1143C54.551 28.9041 56.2446 28.3669 58.2453 28.5028C60.5866 28.6618 61.6878 29.7629 61.5491 31.8062C61.4681 32.9982 61.0531 34.0712 60.3041 35.0253C59.5551 35.9794 58.5956 36.7268 57.4256 37.2674C56.257 37.7868 55.0313 38.0456 53.7485 38.044C53.6741 38.5094 53.6312 38.8272 53.6196 38.9975C53.4996 40.7641 54.0995 41.6922 55.4191 41.7818C56.015 41.8223 56.6644 41.706 57.3672 41.433C58.07 41.16 58.7147 40.7975 59.3013 40.3456C58.5127 43.4566 56.5647 44.9066 53.4572 44.6956ZM54.0761 36.5268C54.8863 36.5604 55.66 36.3457 56.397 35.8825C57.1554 35.4209 57.7742 34.8107 58.2533 34.0521C58.7552 33.2737 59.0358 32.4481 59.0951 31.5754C59.1543 30.7028 58.9179 30.2484 58.3858 30.2123C57.6409 30.1617 56.8496 30.7922 56.0122 32.1038C55.1975 33.3955 54.5521 34.8699 54.0761 36.5268ZM63.8081 45.3985C62.7864 45.3292 61.978 44.9535 61.3828 44.2716C60.809 43.5912 60.5654 42.6124 60.6521 41.3354C60.6882 40.8033 60.8204 40.1173 61.0485 39.2775L63.5733 30.4362L62.5197 30.3647L62.8619 29.105L63.9154 29.1765L65.1724 24.8357L69.9409 24.5181L68.5128 29.4887L70.4284 29.6188L70.0863 30.8786L68.1707 30.7485L65.477 40.1876C65.3701 40.5011 65.3045 40.8388 65.2799 41.2006C65.251 41.6263 65.3258 41.9414 65.5043 42.146C65.7056 42.3307 66.0404 42.439 66.5086 42.4708C67.1259 42.5127 67.7179 42.2963 68.2847 41.8216C68.853 41.3257 69.2823 40.6706 69.5728 39.8564L70.9137 39.9475C69.9701 42.1927 68.8529 43.6884 67.562 44.4347C66.2726 45.1596 65.0213 45.4809 63.8081 45.3985ZM75.7049 28.2452C75.0025 28.1975 74.4232 27.9122 73.9669 27.3895C73.5106 26.8667 73.3063 26.2541 73.354 25.5517C73.4017 24.8493 73.6869 24.27 74.2097 23.8137C74.7339 23.3361 75.3472 23.1212 76.0496 23.1689C76.752 23.2166 77.3306 23.5125 77.7855 24.0565C78.263 24.5808 78.478 25.1941 78.4303 25.8964C78.3826 26.5988 78.0867 27.1774 77.5426 27.6323C77.0198 28.0886 76.4073 28.2929 75.7049 28.2452ZM72.2878 45.9744C71.2661 45.905 70.4677 45.5408 69.8923 44.8816C69.3184 44.2011 69.0749 43.2224 69.1616 41.9453C69.1948 41.4558 69.3277 40.7592 69.5601 39.8555L72.4271 29.7546L77.0245 30.0668L73.9886 40.7657C73.8818 41.0792 73.8161 41.4168 73.7915 41.7786C73.7395 42.5449 74.1817 42.9598 75.1182 43.0234C75.9058 43.0769 76.7972 42.8594 77.7926 42.3711C78.8107 41.8629 79.6793 41.1949 80.3984 40.367L79.2593 30.2186L83.761 30.5243L84.5378 37.5049C85.565 36.5483 86.375 35.6411 86.9678 34.7833C87.5606 33.9255 87.8765 33.2093 87.9155 32.6346C87.9285 32.443 87.9266 32.3146 87.9096 32.2493C87.6088 32.2717 87.4264 32.2807 87.3625 32.2763C86.8304 32.2402 86.4582 32.0545 86.2457 31.7194C86.0347 31.3629 85.9473 30.9186 85.9834 30.3865C86.0152 29.9183 86.2101 29.568 86.568 29.3357C86.9273 29.0822 87.3624 28.9727 87.8732 29.0074C88.5543 29.0537 89.0683 29.3558 89.4153 29.914C89.7623 30.4721 89.9076 31.1662 89.8512 31.9963C89.7819 33.0179 89.3449 34.1002 88.5402 35.2429C87.7584 36.3659 86.5015 37.7131 84.7697 39.2847L84.9487 40.9006C85.0679 41.9778 85.2309 42.7266 85.4376 43.1469C85.6655 43.5686 86.1094 43.8019 86.7692 43.8467C87.1523 43.8727 87.4972 43.832 87.8039 43.7245C87.6465 44.783 87.2077 45.5764 86.4876 46.1048C85.7902 46.6134 84.9839 46.8366 84.0687 46.7745C83.0683 46.7065 82.3138 46.3239 81.8052 45.6265C81.3194 44.9092 80.9384 43.7501 80.6622 42.149C79.4489 43.3282 78.0903 44.2837 76.5866 45.0155C75.1042 45.7487 73.6713 46.0684 72.2878 45.9744Z" fill="white"/>
<path d="M34.9351 42.1869L34.1732 42.8346L34.1732 42.8346L34.9351 42.1869ZM35.2483 33.3237L34.3346 32.9173L34.3318 32.9236L35.2483 33.3237ZM38.357 29.1087L39.0013 29.8735L39.0015 29.8733L38.357 29.1087ZM44.8675 28.1716L45.4952 27.3931L45.4952 27.3931L44.8675 28.1716ZM45.4106 29.6198L44.4129 29.552L46.3737 29.8888L45.4106 29.6198ZM45.8767 27.9515L45.9445 26.9538L45.1326 26.8987L44.9136 27.6824L45.8767 27.9515ZM50.4741 28.2637L51.4362 28.5367L51.773 27.3496L50.5419 27.266L50.4741 28.2637ZM47.4383 38.9626L48.3848 39.2851L48.3932 39.2606L48.4003 39.2356L47.4383 38.9626ZM47.4656 40.921L46.7122 41.5785L46.7487 41.6203L46.7895 41.6577L47.4656 40.921ZM49.181 41.1658L50.0848 41.5936L51.1999 39.2383L48.7954 40.2431L49.181 41.1658ZM47.6688 43.5969L48.3615 44.3181L48.3694 44.3105L48.3772 44.3027L47.6688 43.5969ZM43.6823 43.262L42.9289 43.9196L42.9421 43.9346L42.9558 43.9492L43.6823 43.262ZM42.8422 40.9919L43.8399 40.9242L43.6591 38.2576L42.0451 40.388L42.8422 40.9919ZM41.7833 40.054L42.4247 40.8212L42.4254 40.8206L41.7833 40.054ZM43.0098 38.0525L43.9697 38.3326L43.9716 38.326L43.0098 38.0525ZM45.0322 30.9412L45.9941 31.2147L46.0228 31.1137L46.0299 31.0089L45.0322 30.9412ZM44.7672 30.1213L43.9351 30.6759L43.9459 30.6922L43.9573 30.708L44.7672 30.1213ZM41.405 30.9835L42.1854 31.6089L42.1916 31.601L41.405 30.9835ZM39.5659 34.4508L40.5093 34.7824L40.5106 34.7787L39.5659 34.4508ZM39.0501 40.157L38.2967 40.8146L38.308 40.8276L38.3198 40.8402L39.0501 40.157ZM37.8835 43.638L37.9513 42.6403C36.9931 42.5752 36.2657 42.2081 35.6969 41.5391L34.9351 42.1869L34.1732 42.8346C35.1093 43.9356 36.3476 44.536 37.8158 44.6357L37.8835 43.638ZM34.9351 42.1869L35.6969 41.5391C35.1837 40.9355 34.8727 39.9171 34.9841 38.2772L33.9864 38.2094L32.9887 38.1417C32.8601 40.035 33.1816 41.6682 34.1732 42.8346L34.9351 42.1869ZM33.9864 38.2094L34.9841 38.2772C35.0821 36.8337 35.4691 35.3174 36.1648 33.7238L35.2483 33.3237L34.3318 32.9236C33.5589 34.6942 33.1046 36.4351 32.9887 38.1417L33.9864 38.2094ZM35.2483 33.3237L36.162 33.7301C36.8627 32.1548 37.8111 30.8761 39.0013 29.8735L38.357 29.1087L37.7128 28.3439C36.2722 29.5574 35.148 31.0887 34.3346 32.9173L35.2483 33.3237ZM38.357 29.1087L39.0015 29.8733C40.1443 28.9101 41.4209 28.4908 42.8826 28.5901L42.9503 27.5924L43.0181 26.5947C41.0317 26.4598 39.2461 27.0514 37.7126 28.3441L38.357 29.1087ZM42.9503 27.5924L42.8826 28.5901C43.6757 28.644 44.0699 28.8131 44.2398 28.9501L44.8675 28.1716L45.4952 27.3931C44.8542 26.8764 43.9703 26.6594 43.0181 26.5947L42.9503 27.5924ZM44.8675 28.1716L44.2398 28.9501C44.4097 29.0871 44.4377 29.1875 44.4281 29.3285L45.4258 29.3963L46.4235 29.464C46.4804 28.626 46.1362 27.91 45.4952 27.3931L44.8675 28.1716ZM45.4258 29.3963L44.4281 29.3285L44.4129 29.552L45.4106 29.6198L46.4083 29.6875L46.4235 29.464L45.4258 29.3963ZM45.4106 29.6198L46.3737 29.8888L46.8398 28.2206L45.8767 27.9515L44.9136 27.6824L44.4475 29.3507L45.4106 29.6198ZM45.8767 27.9515L45.809 28.9492L50.4064 29.2614L50.4741 28.2637L50.5419 27.266L45.9445 26.9538L45.8767 27.9515ZM50.4741 28.2637L49.5121 27.9907L46.4762 38.6896L47.4383 38.9626L48.4003 39.2356L51.4362 28.5367L50.4741 28.2637ZM47.4383 38.9626L46.4917 38.6401C46.3543 39.0433 46.2734 39.4674 46.2435 39.9078L47.2412 39.9756L48.2389 40.0433C48.2581 39.7601 48.3086 39.5089 48.3848 39.2851L47.4383 38.9626ZM47.2412 39.9756L46.2435 39.9078C46.2066 40.4515 46.282 41.0856 46.7122 41.5785L47.4656 40.921L48.219 40.2634C48.2552 40.3049 48.2557 40.3302 48.2486 40.3002C48.2404 40.2658 48.2292 40.1858 48.2389 40.0433L47.2412 39.9756ZM47.4656 40.921L46.7895 41.6577C47.2414 42.0725 47.8546 42.2063 48.4022 42.2435L48.4699 41.2458L48.5377 40.2481C48.3598 40.236 48.2441 40.2114 48.1754 40.1892C48.1069 40.1671 48.1106 40.1556 48.1418 40.1842L47.4656 40.921ZM48.4699 41.2458L48.4022 42.2435C48.7762 42.2689 49.1888 42.2463 49.5666 42.0884L49.181 41.1658L48.7954 40.2431C48.8134 40.2355 48.8061 40.2419 48.7594 40.2472C48.7132 40.2524 48.6411 40.2551 48.5377 40.2481L48.4699 41.2458ZM49.181 41.1658L48.2772 40.7379C47.7388 41.8751 47.2938 42.5565 46.9604 42.8911L47.6688 43.5969L48.3772 44.3027C48.9617 43.716 49.5248 42.7767 50.0848 41.5936L49.181 41.1658ZM47.6688 43.5969L46.9761 42.8756C46.7751 43.0687 46.448 43.2173 45.8371 43.1758L45.7694 44.1735L45.7016 45.1712C46.7083 45.2396 47.6475 45.0038 48.3615 44.3181L47.6688 43.5969ZM45.7694 44.1735L45.8371 43.1758C45.1727 43.1307 44.7276 42.9118 44.4088 42.5748L43.6823 43.262L42.9558 43.9492C43.6745 44.709 44.6207 45.0978 45.7016 45.1712L45.7694 44.1735ZM43.6823 43.262L44.4357 42.6044C44.1168 42.239 43.8931 41.708 43.8399 40.9242L42.8422 40.9919L41.8445 41.0595C41.9196 42.1661 42.2559 43.1485 42.9289 43.9196L43.6823 43.262ZM42.8422 40.9919L42.0451 40.388C40.755 42.0909 39.3986 42.7386 37.9513 42.6403L37.8835 43.638L37.8158 44.6357C40.1145 44.7918 42.0639 43.6753 43.6393 41.5957L42.8422 40.9919ZM40.1691 40.682L40.1013 41.6797C40.9663 41.7385 41.7498 41.3854 42.4247 40.8212L41.7833 40.054L41.1419 39.2868C40.7287 39.6322 40.436 39.6979 40.2368 39.6843L40.1691 40.682ZM41.7833 40.054L42.4254 40.8206C43.1735 40.1941 43.6753 39.3416 43.9697 38.3326L43.0098 38.0525L42.0498 37.7724C41.8426 38.4826 41.5268 38.9645 41.1413 39.2873L41.7833 40.054ZM43.0098 38.0525L43.9716 38.326L45.9941 31.2147L45.0322 30.9412L44.0704 30.6676L42.0479 37.7789L43.0098 38.0525ZM45.0322 30.9412L46.0299 31.0089C46.0676 30.4541 45.8809 29.9542 45.577 29.5347L44.7672 30.1213L43.9573 30.708C44.0032 30.7712 44.0214 30.8141 44.0286 30.8363C44.035 30.8563 44.035 30.8665 44.0345 30.8734L45.0322 30.9412ZM44.7672 30.1213L45.5993 29.5667C45.1863 28.9471 44.535 28.6863 43.8734 28.6414L43.8056 29.6391L43.7379 30.6368C43.8608 30.6451 43.917 30.6683 43.9329 30.6763C43.9403 30.68 43.9408 30.6812 43.938 30.6788C43.9352 30.6762 43.934 30.6744 43.9351 30.6759L44.7672 30.1213ZM43.8056 29.6391L43.8734 28.6414C42.5659 28.5526 41.479 29.2698 40.6185 30.366L41.405 30.9835L42.1916 31.601C42.8291 30.7889 43.3426 30.6099 43.7379 30.6368L43.8056 29.6391ZM41.405 30.9835L40.6247 30.3581C39.792 31.3972 39.1291 32.6594 38.6211 34.123L39.5659 34.4508L40.5106 34.7787C40.9597 33.4848 41.5229 32.4354 42.1854 31.6089L41.405 30.9835ZM39.5659 34.4508L38.6224 34.1193C38.1251 35.5343 37.8242 36.8363 37.7442 38.0156L38.7419 38.0834L39.7396 38.1511C39.804 37.202 40.0525 36.0823 40.5093 34.7824L39.5659 34.4508ZM38.7419 38.0834L37.7442 38.0156C37.7054 38.5861 37.7097 39.1035 37.7756 39.547C37.8385 39.9706 37.9743 40.4452 38.2967 40.8146L39.0501 40.157L39.8035 39.4994C39.8481 39.5506 39.7936 39.5205 39.7538 39.2529C39.717 39.0051 39.706 38.6448 39.7396 38.1511L38.7419 38.0834ZM39.0501 40.157L38.3198 40.8402C38.7963 41.3496 39.4082 41.6327 40.1013 41.6797L40.1691 40.682L40.2368 39.6843C40.036 39.6707 39.9019 39.6038 39.7803 39.4739L39.0501 40.157ZM54.5897 25.6566L53.8179 26.2924L53.836 26.3144L53.8554 26.3354L54.5897 25.6566ZM54.7784 22.879L54.1208 22.1256L54.11 22.135L54.0996 22.1447L54.7784 22.879ZM57.556 23.0676L56.8026 23.7252L56.8026 23.7252L57.556 23.0676ZM57.3674 25.8452L58.0031 26.6171L58.0142 26.608L58.0249 26.5986L57.3674 25.8452ZM60.3365 26.0468L59.5646 26.6826L59.5828 26.7047L59.6022 26.7257L60.3365 26.0468ZM60.5251 23.2692L59.8676 22.5159L59.8568 22.5252L59.8463 22.5349L60.5251 23.2692ZM63.1141 26.2355L63.7499 27.0073L63.7609 26.9983L63.7717 26.9889L63.1141 26.2355ZM49.8999 43.2352L49.1631 43.9115L49.172 43.9209L49.8999 43.2352ZM50.0449 34.4889L50.9727 34.862L50.9727 34.862L50.0449 34.4889ZM53.1644 30.1143L53.8158 30.8731L53.822 30.8676L53.1644 30.1143ZM60.3041 35.0253L61.0907 35.6428L61.0907 35.6428L60.3041 35.0253ZM57.4256 37.2674L57.8317 38.1812L57.8384 38.1782L57.845 38.1752L57.4256 37.2674ZM53.7485 38.044L53.7497 37.0441L52.8958 37.043L52.761 37.8862L53.7485 38.044ZM59.3013 40.3456L60.2707 40.5913L60.981 37.7892L58.691 39.5534L59.3013 40.3456ZM54.0761 36.5268L53.1149 36.2506L52.7637 37.4731L54.0346 37.5259L54.0761 36.5268ZM56.397 35.8825L55.877 35.0283L55.865 35.0358L56.397 35.8825ZM58.2533 34.0521L57.4128 33.5102L57.4079 33.5181L58.2533 34.0521ZM56.0122 32.1038L55.1693 31.5656L55.1664 31.5703L56.0122 32.1038ZM55.9577 26.2947L56.0254 25.297C55.7127 25.2758 55.4999 25.168 55.3241 24.9778L54.5897 25.6566L53.8554 26.3354C54.3967 26.9209 55.0958 27.2385 55.8899 27.2924L55.9577 26.2947ZM54.5897 25.6566L55.3616 25.0208C55.1969 24.8208 55.1189 24.5954 55.1401 24.2827L54.1424 24.215L53.1447 24.1472C53.0908 24.9413 53.311 25.677 53.8179 26.2924L54.5897 25.6566ZM54.1424 24.215L55.1401 24.2827C55.1591 24.0026 55.2589 23.7966 55.4572 23.6133L54.7784 22.879L54.0996 22.1447C53.5222 22.6784 53.1979 23.3631 53.1447 24.1472L54.1424 24.215ZM54.7784 22.879L55.436 23.6324C55.6405 23.4538 55.8593 23.3774 56.1544 23.3974L56.2222 22.3997L56.2899 21.402C55.4783 21.3469 54.7345 21.59 54.1208 22.1256L54.7784 22.879ZM56.2222 22.3997L56.1544 23.3974C56.4166 23.4152 56.6163 23.5118 56.8026 23.7252L57.556 23.0676L58.3094 22.41C57.7814 21.8052 57.092 21.4565 56.2899 21.402L56.2222 22.3997ZM57.556 23.0676L56.8026 23.7252C56.9889 23.9386 57.0575 24.1496 57.0397 24.4117L58.0374 24.4795L59.0351 24.5472C59.0896 23.7451 58.8373 23.0149 58.3094 22.41L57.556 23.0676ZM58.0374 24.4795L57.0397 24.4117C57.0197 24.7068 56.9144 24.9133 56.7098 25.0918L57.3674 25.8452L58.0249 26.5986C58.6386 26.063 58.98 25.3589 59.0351 24.5472L58.0374 24.4795ZM57.3674 25.8452L56.7316 25.0733C56.5231 25.2451 56.3055 25.3161 56.0254 25.297L55.9577 26.2947L55.8899 27.2924C56.674 27.3457 57.3962 27.117 58.0031 26.6171L57.3674 25.8452ZM61.7044 26.685L61.7722 25.6873C61.4594 25.6661 61.2467 25.5583 61.0708 25.368L60.3365 26.0468L59.6022 26.7257C60.1434 27.3111 60.8426 27.6288 61.6367 27.6827L61.7044 26.685ZM60.3365 26.0468L61.1084 25.4111C60.9437 25.2111 60.8656 24.9857 60.8869 24.673L59.8892 24.6052L58.8915 24.5375C58.8375 25.3315 59.0577 26.0672 59.5646 26.6826L60.3365 26.0468ZM59.8892 24.6052L60.8869 24.673C60.9059 24.3929 61.0056 24.1869 61.204 24.0036L60.5251 23.2692L59.8463 22.5349C59.269 23.0687 58.9447 23.7534 58.8915 24.5375L59.8892 24.6052ZM60.5251 23.2692L61.1827 24.0226C61.3873 23.8441 61.6061 23.7676 61.9012 23.7877L61.9689 22.79L62.0367 21.7923C61.225 21.7371 60.4813 21.9802 59.8676 22.5159L60.5251 23.2692ZM61.9689 22.79L61.9012 23.7877C62.1633 23.8055 62.3631 23.902 62.5494 24.1154L63.3027 23.4579L64.0561 22.8003C63.5282 22.1954 62.8388 21.8467 62.0367 21.7923L61.9689 22.79ZM63.3027 23.4579L62.5494 24.1154C62.7356 24.3289 62.8043 24.5399 62.7865 24.802L63.7842 24.8697L64.7819 24.9375C64.8364 24.1354 64.5841 23.4052 64.0561 22.8003L63.3027 23.4579ZM63.7842 24.8697L62.7865 24.802C62.7664 25.0971 62.6611 25.3035 62.4565 25.4821L63.1141 26.2355L63.7717 26.9889C64.3854 26.4532 64.7268 25.7492 64.7819 24.9375L63.7842 24.8697ZM63.1141 26.2355L62.4783 25.4636C62.2698 25.6353 62.0523 25.7063 61.7722 25.6873L61.7044 26.685L61.6367 27.6827C62.4208 27.7359 63.143 27.5073 63.7499 27.0073L63.1141 26.2355ZM53.4572 44.6956L53.5249 43.6979C52.1435 43.6041 51.2251 43.1835 50.6278 42.5495L49.8999 43.2352L49.172 43.9209C50.2103 45.023 51.6633 45.5761 53.3894 45.6933L53.4572 44.6956ZM49.8999 43.2352L50.6367 42.559C50.0755 41.9476 49.7426 40.9469 49.851 39.351L48.8533 39.2832L47.8556 39.2155C47.7269 41.1101 48.0918 42.7441 49.1632 43.9114L49.8999 43.2352ZM48.8533 39.2832L49.851 39.351C49.942 38.0107 50.3073 36.5167 50.9727 34.862L50.0449 34.4889L49.1171 34.1159C48.3931 35.9163 47.964 37.6185 47.8556 39.2155L48.8533 39.2832ZM50.0449 34.4889L50.9727 34.862C51.6087 33.2802 52.555 31.9553 53.8158 30.8731L53.1644 30.1143L52.5131 29.3555C51.0038 30.651 49.8703 32.2425 49.1171 34.1159L50.0449 34.4889ZM53.1644 30.1143L53.822 30.8676C54.9898 29.8484 56.4153 29.3808 58.1775 29.5005L58.2453 28.5028L58.3131 27.5051C56.0739 27.353 54.1121 27.9598 52.5069 29.3609L53.1644 30.1143ZM58.2453 28.5028L58.1775 29.5005C59.2252 29.5717 59.8089 29.8439 60.1201 30.1551C60.4069 30.4418 60.6077 30.9086 60.5514 31.7385L61.5491 31.8062L62.5468 31.874C62.6292 30.6606 62.3487 29.5551 61.5343 28.7408C60.7442 27.9508 59.6067 27.593 58.3131 27.5051L58.2453 28.5028ZM61.5491 31.8062L60.5514 31.7385C60.4842 32.7269 60.1446 33.609 59.5175 34.4078L60.3041 35.0253L61.0907 35.6428C61.9616 34.5334 62.452 33.2695 62.5468 31.874L61.5491 31.8062ZM60.3041 35.0253L59.5175 34.4078C58.8723 35.2297 58.0417 35.8811 57.0061 36.3596L57.4256 37.2674L57.845 38.1752C59.1494 37.5724 60.2379 36.7291 61.0907 35.6428L60.3041 35.0253ZM57.4256 37.2674L57.0194 36.3536C55.9796 36.8158 54.8927 37.0455 53.7497 37.0441L53.7485 38.044L53.7473 39.044C55.17 39.0458 56.5345 38.7578 57.8317 38.1812L57.4256 37.2674ZM53.7485 38.044L52.761 37.8862C52.6874 38.3469 52.637 38.7077 52.6219 38.9298L53.6196 38.9975L54.6173 39.0653C54.6254 38.9468 54.6609 38.6719 54.736 38.2019L53.7485 38.044ZM53.6196 38.9975L52.6219 38.9298C52.5554 39.9084 52.6709 40.8361 53.1396 41.5613C53.6455 42.344 54.4466 42.7181 55.3513 42.7795L55.4191 41.7818L55.4868 40.7841C55.072 40.756 54.9134 40.6212 54.8194 40.4757C54.6883 40.2729 54.5638 39.8533 54.6173 39.0653L53.6196 38.9975ZM55.4191 41.7818L55.3513 42.7795C56.1268 42.8322 56.9245 42.6778 57.7293 42.3652L57.3672 41.433L57.0051 40.5009C56.4043 40.7343 55.9033 40.8124 55.4868 40.7841L55.4191 41.7818ZM57.3672 41.433L57.7293 42.3652C58.5194 42.0582 59.248 41.649 59.9116 41.1377L59.3013 40.3456L58.691 39.5534C58.1814 39.946 57.6205 40.2618 57.0051 40.5009L57.3672 41.433ZM59.3013 40.3456L58.332 40.0999C57.9759 41.5047 57.3895 42.415 56.6517 42.9642C55.9178 43.5105 54.9096 43.7919 53.5249 43.6979L53.4572 44.6956L53.3894 45.6933C55.1122 45.8103 56.6318 45.4722 57.8459 44.5685C59.0562 43.6677 59.8382 42.2975 60.2707 40.5913L59.3013 40.3456ZM54.0761 36.5268L54.0346 37.5259C55.0621 37.5686 56.0339 37.2917 56.9291 36.7293L56.397 35.8825L55.865 35.0358C55.2861 35.3996 54.7105 35.5522 54.1175 35.5276L54.0761 36.5268ZM56.397 35.8825L56.917 36.7367C57.8086 36.1939 58.5382 35.4737 59.0988 34.5861L58.2533 34.0521L57.4079 33.5181C57.0101 34.1477 56.5022 34.6478 55.877 35.0284L56.397 35.8825ZM58.2533 34.0521L59.0938 34.594C59.6818 33.682 60.0214 32.6946 60.0928 31.6432L59.0951 31.5754L58.0974 31.5077C58.0502 32.2015 57.8287 32.8653 57.4129 33.5102L58.2533 34.0521ZM59.0951 31.5754L60.0928 31.6432C60.1271 31.138 60.093 30.5869 59.8493 30.1186C59.5622 29.5668 59.0501 29.2551 58.4536 29.2145L58.3858 30.2123L58.318 31.21C58.3124 31.2096 58.259 31.2038 58.1914 31.1607C58.1221 31.1165 58.0867 31.064 58.0751 31.0417C58.0671 31.0263 58.0816 31.0474 58.0929 31.1317C58.1039 31.2147 58.1089 31.3372 58.0974 31.5077L59.0951 31.5754ZM58.3858 30.2123L58.4536 29.2145C57.7548 29.1671 57.1311 29.4502 56.6105 29.8651C56.0954 30.2756 55.619 30.8614 55.1693 31.5656L56.0122 32.1038L56.855 32.6419C57.2428 32.0346 57.5808 31.6493 57.8569 31.4292C58.1275 31.2136 58.2718 31.2068 58.318 31.21L58.3858 30.2123ZM56.0122 32.1038L55.1664 31.5703C54.2952 32.9515 53.6137 34.5144 53.1149 36.2506L54.0761 36.5268L55.0372 36.8029C55.4904 35.2253 56.0997 33.8396 56.858 32.6372L56.0122 32.1038ZM61.3828 44.2716L60.6184 44.9163L60.6239 44.9228L60.6295 44.9292L61.3828 44.2716ZM61.0485 39.2775L60.0868 39.0029L60.0834 39.0154L61.0485 39.2775ZM63.5733 30.4362L64.5349 30.7108L64.8743 29.5223L63.6411 29.4385L63.5733 30.4362ZM62.5197 30.3647L61.5547 30.1026L61.235 31.2798L62.452 31.3624L62.5197 30.3647ZM62.8619 29.105L62.9296 28.1073L62.1117 28.0517L61.8968 28.8429L62.8619 29.105ZM63.9154 29.1765L63.8477 30.1742L64.6518 30.2288L64.876 29.4547L63.9154 29.1765ZM65.1724 24.8357L65.106 23.8379L64.4068 23.8845L64.2119 24.5576L65.1724 24.8357ZM69.9409 24.5181L70.902 24.7942L71.2952 23.4257L69.8744 23.5203L69.9409 24.5181ZM68.5128 29.4887L67.5517 29.2126L67.2099 30.4026L68.4451 30.4864L68.5128 29.4887ZM70.4284 29.6188L71.3935 29.8809L71.7132 28.7038L70.4962 28.6211L70.4284 29.6188ZM70.0863 30.8786L70.0185 31.8763L70.8365 31.9318L71.0513 31.1407L70.0863 30.8786ZM68.1707 30.7485L68.2385 29.7508L67.4312 29.6959L67.2091 30.474L68.1707 30.7485ZM65.477 40.1876L66.4235 40.5102L66.4317 40.4863L66.4386 40.4621L65.477 40.1876ZM65.5043 42.146L64.7509 42.8036L64.7874 42.8453L64.8282 42.8827L65.5043 42.146ZM68.2847 41.8216L68.9268 42.5883L68.9346 42.5817L68.9423 42.575L68.2847 41.8216ZM69.5728 39.8564L69.6406 38.8587L68.8854 38.8074L68.631 39.5203L69.5728 39.8564ZM70.9137 39.9475L71.8356 40.3349L72.3779 39.0446L70.9815 38.9498L70.9137 39.9475ZM67.562 44.4347L68.0521 45.3064L68.0625 45.3004L67.562 44.4347ZM63.8081 45.3985L63.8758 44.4008C63.0809 44.3469 62.5335 44.0692 62.1362 43.6141L61.3828 44.2716L60.6295 44.9292C61.4225 45.8378 62.4919 46.3115 63.7403 46.3962L63.8081 45.3985ZM61.3828 44.2716L62.1473 43.6269C61.8017 43.2172 61.573 42.5347 61.6498 41.4031L60.6521 41.3354L59.6544 41.2676C59.5578 42.6901 59.8162 43.9651 60.6184 44.9163L61.3828 44.2716ZM60.6521 41.3354L61.6498 41.4031C61.6796 40.9647 61.7933 40.3503 62.0135 39.5396L61.0485 39.2775L60.0834 39.0154C59.8474 39.8843 59.6969 40.6419 59.6544 41.2676L60.6521 41.3354ZM61.0485 39.2775L62.01 39.5521L64.5349 30.7108L63.5733 30.4362L62.6117 30.1616L60.0869 39.0029L61.0485 39.2775ZM63.5733 30.4362L63.6411 29.4385L62.5875 29.367L62.5197 30.3647L62.452 31.3624L63.5055 31.4339L63.5733 30.4362ZM62.5197 30.3647L63.4848 30.6268L63.8269 29.3671L62.8619 29.105L61.8968 28.8429L61.5547 30.1026L62.5197 30.3647ZM62.8619 29.105L62.7941 30.1027L63.8477 30.1742L63.9154 29.1765L63.9832 28.1788L62.9296 28.1073L62.8619 29.105ZM63.9154 29.1765L64.876 29.4547L66.133 25.1139L65.1724 24.8357L64.2119 24.5576L62.9549 28.8984L63.9154 29.1765ZM65.1724 24.8357L65.2389 25.8335L70.0074 25.5159L69.9409 24.5181L69.8744 23.5203L65.106 23.8379L65.1724 24.8357ZM69.9409 24.5181L68.9798 24.242L67.5517 29.2126L68.5128 29.4887L69.474 29.7649L70.902 24.7942L69.9409 24.5181ZM68.5128 29.4887L68.4451 30.4864L70.3607 30.6165L70.4284 29.6188L70.4962 28.6211L68.5806 28.491L68.5128 29.4887ZM70.4284 29.6188L69.4634 29.3567L69.1213 30.6164L70.0863 30.8786L71.0513 31.1407L71.3935 29.8809L70.4284 29.6188ZM70.0863 30.8786L70.1541 29.8808L68.2385 29.7508L68.1707 30.7485L68.103 31.7462L70.0185 31.8763L70.0863 30.8786ZM68.1707 30.7485L67.2091 30.474L64.5154 39.9132L65.477 40.1876L66.4386 40.4621L69.1323 31.0229L68.1707 30.7485ZM65.477 40.1876L64.5304 39.8651C64.393 40.2683 64.3121 40.6924 64.2822 41.1329L65.2799 41.2006L66.2776 41.2684C66.2968 40.9852 66.3473 40.7339 66.4235 40.5102L65.477 40.1876ZM65.2799 41.2006L64.2822 41.1329C64.2453 41.6766 64.3207 42.3106 64.7509 42.8036L65.5043 42.146L66.2577 41.4884C66.2939 41.5299 66.2944 41.5552 66.2873 41.5252C66.2791 41.4908 66.2679 41.4108 66.2776 41.2684L65.2799 41.2006ZM65.5043 42.146L64.8282 42.8827C65.2801 43.2975 65.8933 43.4313 66.4409 43.4685L66.5086 42.4708L66.5764 41.4731C66.3986 41.461 66.2828 41.4365 66.2141 41.4143C66.1456 41.3921 66.1493 41.3806 66.1805 41.4092L65.5043 42.146ZM66.5086 42.4708L66.4409 43.4685C67.3646 43.5312 68.2032 43.1943 68.9268 42.5883L68.2847 41.8216L67.6426 41.055C67.2327 41.3983 66.8871 41.4942 66.5764 41.4731L66.5086 42.4708ZM68.2847 41.8216L68.9423 42.575C69.6572 41.951 70.1752 41.1439 70.5147 40.1924L69.5728 39.8564L68.631 39.5203C68.3895 40.1972 68.0487 40.7003 67.6271 41.0682L68.2847 41.8216ZM69.5728 39.8564L69.5051 40.8541L70.846 40.9452L70.9137 39.9475L70.9815 38.9498L69.6406 38.8587L69.5728 39.8564ZM70.9137 39.9475L69.9918 39.56C69.0835 41.7212 68.0771 42.9818 67.0615 43.5689L67.562 44.4347L68.0625 45.3004C69.6286 44.395 70.8567 42.6642 71.8356 40.3349L70.9137 39.9475ZM67.562 44.4347L67.0719 43.563C65.9151 44.2134 64.8563 44.4674 63.8758 44.4008L63.8081 45.3985L63.7403 46.3962C65.1862 46.4944 66.63 46.1059 68.0521 45.3063L67.562 44.4347ZM73.9669 27.3895L74.7203 26.7319L74.7203 26.7319L73.9669 27.3895ZM74.2097 23.8137L74.8673 24.5671L74.8753 24.5601L74.8832 24.5529L74.2097 23.8137ZM77.7855 24.0565L77.0183 24.6979L77.0319 24.7143L77.0462 24.73L77.7855 24.0565ZM77.5426 27.6323L76.9012 26.8651L76.8931 26.8719L76.8851 26.8789L77.5426 27.6323ZM69.8923 44.8816L69.1279 45.5263L69.1334 45.5328L69.1389 45.5392L69.8923 44.8816ZM69.5601 39.8555L68.5981 39.5825L68.5947 39.5944L68.5916 39.6064L69.5601 39.8555ZM72.4271 29.7546L72.4948 28.7569L71.6863 28.702L71.4651 29.4815L72.4271 29.7546ZM77.0245 30.0668L77.9865 30.3398L78.3234 29.1527L77.0922 29.0691L77.0245 30.0668ZM73.9886 40.7657L74.9352 41.0882L74.9435 41.0636L74.9506 41.0387L73.9886 40.7657ZM77.7926 42.3711L78.233 43.2689L78.2392 43.2658L77.7926 42.3711ZM80.3984 40.367L81.1533 41.0228L81.441 40.6916L81.3921 40.2555L80.3984 40.367ZM79.2593 30.2186L79.3271 29.2209L78.132 29.1397L78.2656 30.3301L79.2593 30.2186ZM83.761 30.5243L84.7548 30.4137L84.6624 29.5832L83.8287 29.5266L83.761 30.5243ZM84.5378 37.5049L83.5439 37.6155L83.7639 39.5922L85.2193 38.2367L84.5378 37.5049ZM86.9678 34.7833L86.1451 34.2148L86.1451 34.2148L86.9678 34.7833ZM87.9096 32.2493L88.8776 31.9981L88.6679 31.1903L87.8356 31.2521L87.9096 32.2493ZM86.2457 31.7194L85.3852 32.2288L85.3929 32.2419L85.4011 32.2547L86.2457 31.7194ZM86.568 29.3357L87.1124 30.1745L87.1287 30.164L87.1445 30.1528L86.568 29.3357ZM89.4153 29.914L88.5661 30.4419L88.5661 30.4419L89.4153 29.914ZM88.5402 35.2429L87.7226 34.6672L87.7196 34.6715L88.5402 35.2429ZM84.7697 39.2847L84.0977 38.5442L83.7196 38.8873L83.7758 39.3948L84.7697 39.2847ZM84.9487 40.9006L83.9547 41.0106L83.9547 41.0106L84.9487 40.9006ZM85.4376 43.1469L84.5402 43.5881L84.5487 43.6054L84.5579 43.6223L85.4376 43.1469ZM87.8039 43.7245L88.793 43.8716L89.0367 42.2328L87.4731 42.7808L87.8039 43.7245ZM86.4876 46.1048L87.0768 46.9128L87.0792 46.911L86.4876 46.1048ZM81.8052 45.6265L80.9773 46.1873L80.987 46.2017L80.9973 46.2157L81.8052 45.6265ZM80.6622 42.149L81.6477 41.979L81.3253 40.1102L79.9653 41.4319L80.6622 42.149ZM76.5866 45.0155L76.149 44.1163L76.1433 44.1191L76.5866 45.0155ZM75.7049 28.2452L75.7726 27.2475C75.3305 27.2175 74.9993 27.0516 74.7203 26.7319L73.9669 27.3895L73.2135 28.047C73.847 28.7729 74.6745 29.1775 75.6371 29.2429L75.7049 28.2452ZM73.9669 27.3895L74.7203 26.7319C74.4412 26.4122 74.3217 26.0616 74.3517 25.6195L73.354 25.5517L72.3563 25.484C72.2909 26.4466 72.58 27.3212 73.2135 28.047L73.9669 27.3895ZM73.354 25.5517L74.3517 25.6195C74.3817 25.1774 74.5475 24.8462 74.8673 24.5671L74.2097 23.8137L73.5521 23.0603C72.8263 23.6938 72.4216 24.5213 72.3563 25.484L73.354 25.5517ZM74.2097 23.8137L74.8832 24.5529C75.2075 24.2574 75.5537 24.1375 75.9819 24.1666L76.0496 23.1689L76.1174 22.1712C75.1408 22.1049 74.2603 22.4148 73.5363 23.0745L74.2097 23.8137ZM76.0496 23.1689L75.9819 24.1666C76.41 24.1957 76.7368 24.3613 77.0183 24.6979L77.7855 24.0565L78.5527 23.4151C77.9244 22.6637 77.094 22.2375 76.1174 22.1712L76.0496 23.1689ZM77.7855 24.0565L77.0462 24.73C77.3418 25.0544 77.4617 25.4005 77.4326 25.8287L78.4303 25.8964L79.428 25.9642C79.4943 24.9876 79.1843 24.1072 78.5247 23.3831L77.7855 24.0565ZM78.4303 25.8964L77.4326 25.8287C77.4035 26.2569 77.2379 26.5836 76.9012 26.8651L77.5426 27.6323L78.184 28.3995C78.9355 27.7713 79.3617 26.9408 79.428 25.9642L78.4303 25.8964ZM77.5426 27.6323L76.8851 26.8789C76.5653 27.158 76.2147 27.2775 75.7726 27.2475L75.7049 28.2452L75.6371 29.2429C76.5998 29.3083 77.4744 29.0192 78.2002 28.3857L77.5426 27.6323ZM72.2878 45.9744L72.3555 44.9767C71.5499 44.922 71.017 44.6494 70.6457 44.224L69.8923 44.8816L69.1389 45.5392C69.9183 46.4321 70.9824 46.8881 72.22 46.9721L72.2878 45.9744ZM69.8923 44.8816L70.6568 44.2369C70.3112 43.8272 70.0824 43.1447 70.1593 42.0131L69.1616 41.9453L68.1639 41.8776C68.0673 43.3001 68.3257 44.5751 69.1279 45.5263L69.8923 44.8816ZM69.1616 41.9453L70.1593 42.0131C70.1862 41.6171 70.3004 40.9918 70.5286 40.1046L69.5601 39.8555L68.5916 39.6064C68.355 40.5266 68.2035 41.2945 68.1639 41.8776L69.1616 41.9453ZM69.5601 39.8555L70.5221 40.1286L73.3891 30.0276L72.4271 29.7546L71.4651 29.4815L68.5981 39.5825L69.5601 39.8555ZM72.4271 29.7546L72.3593 30.7523L76.9567 31.0645L77.0245 30.0668L77.0922 29.0691L72.4948 28.7569L72.4271 29.7546ZM77.0245 30.0668L76.0625 29.7938L73.0266 40.4927L73.9886 40.7657L74.9506 41.0387L77.9865 30.3398L77.0245 30.0668ZM73.9886 40.7657L73.0421 40.4431C72.9047 40.8464 72.8237 41.2704 72.7938 41.7109L73.7915 41.7786L74.7892 41.8464C74.8085 41.5632 74.8589 41.312 74.9352 41.0882L73.9886 40.7657ZM73.7915 41.7786L72.7938 41.7109C72.7534 42.3066 72.9038 42.9282 73.4 43.3938C73.86 43.8254 74.4716 43.9818 75.0505 44.0211L75.1182 43.0234L75.186 42.0257C74.8283 42.0014 74.7506 41.9186 74.7684 41.9352C74.7734 41.9399 74.78 41.9475 74.7861 41.9571C74.789 41.9616 74.7911 41.9656 74.7926 41.9688C74.7933 41.9703 74.7939 41.9716 74.7942 41.9724C74.7946 41.9733 74.7947 41.9738 74.7947 41.9738C74.7947 41.9738 74.794 41.9716 74.793 41.967C74.792 41.9623 74.7908 41.955 74.7897 41.9447C74.7875 41.9238 74.7861 41.8917 74.7892 41.8464L73.7915 41.7786ZM75.1182 43.0234L75.0505 44.0211C76.0701 44.0903 77.1405 43.8049 78.233 43.2689L77.7926 42.3711L77.3521 41.4733C76.4539 41.914 75.7414 42.0634 75.186 42.0257L75.1182 43.0234ZM77.7926 42.3711L78.2392 43.2658C79.3702 42.7013 80.3449 41.9535 81.1533 41.0228L80.3984 40.367L79.6434 39.7113C79.0137 40.4363 78.2511 41.0246 77.346 41.4764L77.7926 42.3711ZM80.3984 40.367L81.3921 40.2555L80.2531 30.107L79.2593 30.2186L78.2656 30.3301L79.4046 40.4786L80.3984 40.367ZM79.2593 30.2186L79.1916 31.2163L83.6932 31.522L83.761 30.5243L83.8287 29.5266L79.3271 29.2209L79.2593 30.2186ZM83.761 30.5243L82.7671 30.6349L83.5439 37.6155L84.5378 37.5049L85.5317 37.3943L84.7548 30.4137L83.761 30.5243ZM84.5378 37.5049L85.2193 38.2367C86.2824 37.2467 87.1453 36.2854 87.7904 35.3519L86.9678 34.7833L86.1451 34.2148C85.6046 34.9969 84.8475 35.85 83.8563 36.7731L84.5378 37.5049ZM86.9678 34.7833L87.7904 35.3519C88.4145 34.4488 88.8557 33.5501 88.9132 32.7024L87.9155 32.6346L86.9178 32.5669C86.8974 32.8685 86.7067 33.4022 86.1451 34.2148L86.9678 34.7833ZM87.9155 32.6346L88.9132 32.7024C88.9247 32.5333 88.9415 32.2446 88.8776 31.9981L87.9096 32.2493L86.9417 32.5005C86.9346 32.4733 86.9306 32.4515 86.9283 32.4375C86.9259 32.4231 86.9248 32.4127 86.9243 32.4073C86.9233 32.3973 86.9237 32.3971 86.9239 32.4099C86.9241 32.422 86.924 32.4411 86.9231 32.4683C86.9221 32.4953 86.9205 32.5279 86.9178 32.5669L87.9155 32.6346ZM87.9096 32.2493L87.8356 31.2521C87.6889 31.263 87.5773 31.2701 87.4979 31.274C87.4581 31.276 87.4308 31.2769 87.4137 31.2772C87.3907 31.2777 87.402 31.2767 87.4303 31.2786L87.3625 32.2763L87.2948 33.274C87.4474 33.2844 87.7171 33.2664 87.9837 33.2466L87.9096 32.2493ZM87.3625 32.2763L87.4303 31.2786C87.2604 31.2671 87.1703 31.2349 87.1305 31.2151C87.0992 31.1995 87.0942 31.1901 87.0903 31.184L86.2457 31.7194L85.4011 32.2547C85.8391 32.9457 86.5636 33.2244 87.2948 33.274L87.3625 32.2763ZM86.2457 31.7194L87.1062 31.21C87.0243 31.0715 86.9548 30.8423 86.9811 30.4543L85.9834 30.3865L84.9857 30.3188C84.9398 30.995 85.0451 31.6543 85.3852 32.2288L86.2457 31.7194ZM85.9834 30.3865L86.9811 30.4543C86.9941 30.2638 87.0476 30.2166 87.1124 30.1745L86.568 29.3357L86.0235 28.4969C85.3726 28.9194 85.0364 29.5727 84.9857 30.3188L85.9834 30.3865ZM86.568 29.3357L87.1445 30.1528C87.2863 30.0528 87.4843 29.9833 87.8054 30.0051L87.8732 29.0074L87.941 28.0097C87.2404 27.9621 86.5683 28.1115 85.9914 28.5187L86.568 29.3357ZM87.8732 29.0074L87.8054 30.0051C88.1804 30.0306 88.3965 30.1692 88.5661 30.4419L89.4153 29.914L90.2646 29.386C89.7402 28.5425 88.9282 28.0767 87.941 28.0097L87.8732 29.0074ZM89.4153 29.914L88.5661 30.4419C88.776 30.7796 88.8995 31.2517 88.8535 31.9285L89.8512 31.9963L90.8489 32.064C90.9157 31.0807 90.7486 30.1646 90.2646 29.386L89.4153 29.914ZM89.8512 31.9963L88.8535 31.9285C88.8003 32.7126 88.4589 33.6215 87.7226 34.6672L88.5402 35.2429L89.3579 35.8186C90.2309 34.5788 90.7634 33.3233 90.8489 32.064L89.8512 31.9963ZM88.5402 35.2429L87.7196 34.6715C87.0005 35.7043 85.8071 36.993 84.0977 38.5442L84.7697 39.2847L85.4418 40.0253C87.196 38.4333 88.5163 37.0274 89.3609 35.8143L88.5402 35.2429ZM84.7697 39.2847L83.7758 39.3948L83.9547 41.0106L84.9487 40.9006L85.9426 40.7905L85.7637 39.1747L84.7697 39.2847ZM84.9487 40.9006L83.9547 41.0106C84.0744 42.0914 84.2492 42.9964 84.5402 43.5881L85.4376 43.1469L86.335 42.7056C86.2126 42.4568 86.0615 41.8642 85.9426 40.7905L84.9487 40.9006ZM85.4376 43.1469L84.5579 43.6223C85.0073 44.4539 85.8429 44.7861 86.7015 44.8444L86.7692 43.8467L86.837 42.849C86.6038 42.8332 86.4728 42.7877 86.4067 42.7529C86.352 42.7242 86.3324 42.6993 86.3173 42.6714L85.4376 43.1469ZM86.7692 43.8467L86.7015 44.8444C87.1955 44.878 87.6791 44.8279 88.1346 44.6682L87.8039 43.7245L87.4731 42.7808C87.3153 42.8361 87.1092 42.8675 86.837 42.849L86.7692 43.8467ZM87.8039 43.7245L86.8148 43.5774C86.6883 44.428 86.3592 44.9587 85.896 45.2986L86.4876 46.1048L87.0792 46.911C88.0562 46.1941 88.6047 45.138 88.793 43.8716L87.8039 43.7245ZM86.4876 46.1048L85.8984 45.2968C85.4034 45.6578 84.8331 45.8241 84.1364 45.7768L84.0687 46.7745L84.0009 47.7722C85.1347 47.8492 86.177 47.569 87.0768 46.9128L86.4876 46.1048ZM84.0687 46.7745L84.1364 45.7768C83.378 45.7252 82.9185 45.4558 82.6132 45.0372L81.8052 45.6265L80.9973 46.2157C81.7092 47.1919 82.7586 47.6878 84.0009 47.7722L84.0687 46.7745ZM81.8052 45.6265L82.6332 45.0656C82.2695 44.5287 81.9172 43.5415 81.6477 41.979L80.6622 42.149L79.6768 42.319C79.9596 43.9587 80.3693 45.2897 80.9773 46.1873L81.8052 45.6265ZM80.6622 42.149L79.9653 41.4319C78.8273 42.5379 77.556 43.4316 76.149 44.1163L76.5866 45.0155L77.0242 45.9146C78.6246 45.1358 80.0705 44.1185 81.3592 42.8662L80.6622 42.149ZM76.5866 45.0155L76.1433 44.1191C74.7886 44.7892 73.5315 45.0566 72.3555 44.9767L72.2878 45.9744L72.22 46.9721C73.8111 47.0802 75.4198 46.7083 77.03 45.9118L76.5866 45.0155Z" fill="black" mask="url(#path-44-outside-1_723_51)"/>
</svg>
