<svg width="40" height="40" viewBox="0 0 40 40" fill="none" xmlns="http://www.w3.org/2000/svg">
<g clip-path="url(#clip0_464_7631)">
<path d="M16.8534 18.5377L18.2954 19.9716L16.8534 21.4052H6.70352V26.1819L0.513672 19.9716L6.70352 13.8654V18.5377H16.8534ZM21.3149 6.3396H33.6476V18.6724H21.3149V6.3396Z" fill="#932279"/>
<path d="M21.4489 16.8531L20.0153 18.2951L18.5817 16.8531V6.70327H13.8047L20.0153 0.513428L26.1211 6.70327H21.4489V16.8531ZM21.3145 21.3147H33.647V33.6475H21.3144L21.3145 21.3147Z" fill="#EFA724"/>
<path d="M23.1342 21.4492L21.692 20.0156L23.1342 18.582H33.2839V13.8049L39.4741 20.0156L33.2839 26.1213V21.4492H23.1342ZM6.33984 21.3148H18.6725V33.6476H6.33984V21.3148Z" fill="#262577"/>
<path d="M18.538 23.134L19.9716 21.6918L21.4055 23.134V33.284H26.1822L19.9716 39.4738L13.8659 33.284H18.538V23.134ZM6.33984 6.3396H18.6725V18.6724H6.33984V6.3396Z" fill="#9CCD2A"/>
<path d="M5.89941 5.89917H19.113V19.1128H5.89941V5.89917ZM6.78019 18.232H18.2319V6.78026H6.78019V18.232ZM20.8749 5.89917H34.0885V19.1128H20.8749V5.89917ZM21.7557 18.232H33.2074V6.78026H21.7557V18.232ZM20.8749 20.8746H34.0885V34.0885H20.8749V20.8745V20.8746ZM21.7557 33.2071H33.2074V21.7554H21.7557V33.2071ZM5.89941 20.8746H19.113V34.0885H5.89941V20.8745V20.8746ZM6.78019 33.2071H18.2319V21.7554H6.78019V33.2071Z" fill="white"/>
<path d="M9.4043 29.3371L0.0605469 19.9934L9.40414 10.6499L18.7479 19.9934L9.4043 29.3371ZM1.30648 19.9934L9.4043 28.0912L17.5018 19.9934L9.40399 11.8959L1.30648 19.9934ZM19.9934 18.7477L10.6499 9.4043L19.9934 0.0605469L29.3368 9.4043L19.9934 18.7477ZM11.8959 9.4043L19.9934 17.5018L28.0912 9.4043L19.9934 1.30648L11.8959 9.4043ZM30.5827 29.3371L21.2393 19.9934L30.5827 10.6499L39.9262 19.9934L30.5827 29.3371ZM22.4849 19.9934L30.5827 28.0912L38.6802 19.9934L30.5827 11.8959L22.4849 19.9934ZM19.9934 39.9262L10.6499 30.5827L19.9934 21.2393L29.3368 30.5827L19.9934 39.9262ZM11.8959 30.5827L19.9934 38.6802L28.0912 30.5827L19.9934 22.4852L11.8959 30.5827Z" fill="white"/>
</g>
<defs>
<clipPath id="clip0_464_7631">
<rect width="40" height="40" fill="white"/>
</clipPath>
</defs>
</svg>
