<svg width="40" height="40" viewBox="0 0 40 40" fill="none" xmlns="http://www.w3.org/2000/svg">
<g clip-path="url(#clip0_464_7626)">
<path d="M23.8902 21.1341C23.0644 21.1433 24.0464 21.4757 25.1245 21.6088C25.4052 21.433 25.6752 21.2464 25.9334 21.0497C25.262 21.1817 24.5786 21.1847 23.8902 21.1341ZM28.3226 20.2474C28.8143 19.7026 29.1728 19.1062 29.2991 18.4895C29.1888 18.9291 28.8915 19.3087 28.6116 19.7093C27.068 20.4894 28.4664 19.246 28.6107 18.7735C26.9508 20.4503 28.3828 19.779 28.3226 20.2474ZM29.9586 16.8304C30.0583 15.6368 29.6659 16.0141 29.534 16.4696C29.6879 16.5338 29.8097 17.311 29.9586 16.8304ZM20.7588 0.516113C21.1995 0.579556 21.711 0.628244 21.6393 0.712711C22.1214 0.627875 22.2307 0.549679 20.7588 0.516113ZM21.6393 0.712711L21.3277 0.76435L21.6177 0.743694L21.6393 0.712711Z" fill="#A80030"/>
<path d="M35.3817 17.2829C35.4309 18.3548 34.9911 18.8749 34.5945 19.7955L33.8808 20.0817C33.2967 20.9921 33.9373 20.6597 33.5191 21.3838C32.6074 22.0344 30.7522 23.4198 30.1584 23.5463C29.7251 23.5386 30.4521 23.1358 30.5472 22.978C29.3266 23.6507 29.5679 23.9879 27.7012 24.3965L27.6465 24.2992C23.0427 26.0376 16.6476 22.5925 16.7317 17.8919C16.6825 18.1903 16.592 18.1158 16.4899 18.2364C16.2523 15.8178 17.8815 13.3886 20.6291 12.3967C23.3166 11.3289 26.4673 11.7671 28.3924 13.2071C27.3349 12.0954 25.2302 10.9169 22.7357 11.0272C20.2923 11.0582 18.0065 12.3045 17.2436 13.6575C15.9918 14.29 15.8466 16.0959 15.3011 16.4264C14.5672 20.7556 16.6816 22.6261 20.2583 24.8263C20.8212 25.1309 20.4168 25.177 20.4931 25.409C19.3047 24.9624 18.2165 24.2881 17.3217 23.4626C17.7964 24.0203 18.3088 24.5625 18.9711 24.9886C17.8507 24.6839 16.3539 22.8094 15.9169 22.733C17.8484 25.5086 23.7532 27.6008 26.8451 26.5628C25.4145 26.6052 23.5969 26.5864 21.9894 26.1095C21.3143 25.8306 20.3961 25.253 20.5602 25.1449C24.7798 26.4101 29.1387 26.1032 32.7898 23.754C33.7186 23.1734 34.7333 22.1857 35.0265 22.172C34.5849 22.705 35.1018 22.4284 34.7627 22.899C35.6882 21.701 34.3606 22.4114 35.7195 20.8301L36.2213 21.3849C36.0347 20.3905 37.7599 19.1828 37.5848 17.6101C37.9805 17.1291 38.0264 18.1276 37.6064 19.2341C38.1891 18.0066 37.7599 17.8092 37.9097 16.7964C38.0715 17.1368 38.2838 17.4987 38.3927 17.8579C38.0131 16.6717 38.7824 15.8602 38.9727 15.1709C38.7852 15.1041 38.3867 15.6954 38.2957 14.2941C38.3091 13.6855 38.5067 13.975 38.583 13.8253C38.4341 13.7567 38.0434 13.2901 37.8059 12.3953C37.9782 12.185 38.2663 12.9404 38.5007 12.9714C38.35 12.2599 38.0903 11.7173 38.0798 11.1714C37.395 10.0228 37.8376 11.3245 37.282 10.6783C36.5531 8.85355 37.8867 10.2548 37.9768 9.42564C39.0816 10.7103 39.7116 12.7014 40.0007 13.5262C39.7801 12.5207 39.4235 11.5465 38.9883 10.6041C39.3238 10.7174 38.4479 8.53524 39.4244 9.98039C38.3812 6.89975 34.9598 4.02124 31.8124 2.67051C32.1975 2.95342 32.6837 3.30862 32.509 3.36432C30.9438 2.61629 31.2191 2.55801 30.9948 2.24191C29.7196 1.82548 29.6359 2.27547 28.7913 2.24265C26.3878 1.21945 25.9246 1.32827 23.7127 0.687203L23.8134 1.06454C22.221 0.638884 21.9582 1.22609 20.2371 1.06601C20.1324 1.00036 20.7886 0.828473 21.3286 0.7654C19.7891 0.928432 19.8612 0.521958 18.3548 0.810399C18.7261 0.601261 19.1186 0.462942 19.5147 0.285156C18.2592 0.346385 16.5175 0.871629 17.0552 0.393967C15.0074 1.12724 11.3705 2.1567 9.32963 3.6926L9.26529 3.34846C8.3301 4.24956 5.18721 6.03959 4.93676 7.20664L4.68676 7.25348C4.20009 7.91483 3.8853 8.66433 3.49927 9.34486C2.86279 10.2154 2.56638 9.67978 2.65691 9.81625C1.40509 11.8534 0.783312 13.5653 0.246094 14.9691C0.628902 15.4283 0.255285 17.7336 0.400044 19.5786C-0.228625 28.6907 8.36778 37.538 17.7643 39.5807C19.1416 39.9761 21.1898 39.9609 22.932 40.0015C20.8764 39.5297 20.6108 39.7514 18.6085 39.1911C17.1641 38.6452 16.8475 38.0219 15.8245 37.3093L16.2294 37.8836C14.223 37.3137 15.0626 37.1783 13.4302 36.7634L13.8627 36.3101C13.2124 36.2706 12.1403 35.4303 11.8471 34.9652L11.1357 34.9877C10.2809 34.1412 9.82549 33.5311 9.85857 33.0586L9.6288 33.3873C9.36823 33.0284 6.48407 30.2126 7.98038 30.868C7.70235 30.6641 7.33287 30.5361 6.93214 29.9518L7.23682 29.6722C6.5167 28.9286 5.91147 27.9755 5.95743 27.6579C6.34161 28.0744 6.60815 28.1522 6.87194 28.2234C5.05348 24.602 4.95146 28.0238 3.57418 24.5371L3.86554 24.5183C3.64219 24.2483 3.50663 23.955 3.32694 23.6673L3.45378 22.653C2.14451 21.438 3.08751 17.4869 3.27639 15.3199C3.40736 14.4387 4.36921 13.5007 5.10082 12.0297L4.65505 11.9681C5.50706 10.7753 9.51988 7.1775 11.3783 7.36266C12.2786 6.45492 11.1996 7.35934 11.0235 7.13065C13.001 5.48816 13.6228 5.97025 14.9573 5.6748C16.3966 4.98911 13.722 5.94222 14.4045 5.41329C16.8925 4.90317 16.1678 4.25362 19.4136 3.99469C19.756 4.15108 18.619 4.23628 18.3337 4.43915C20.4067 3.6251 24.8938 3.81026 27.8083 4.89099C31.1901 6.15947 34.9897 9.90921 35.1395 13.4373L35.31 13.4741C35.2236 14.8765 35.5775 16.4984 34.9644 17.9881L35.3817 17.2829Z" fill="#A80030"/>
<path d="M14.8763 22.044L14.7605 22.5087C15.3032 23.1004 15.7338 23.7414 16.4268 24.204C15.9282 23.4227 15.5578 23.1 14.8763 22.044ZM16.1594 22.0034C15.8722 21.7485 15.7021 21.4417 15.5119 21.1359C15.6939 21.6733 16.0666 22.1351 16.4135 22.6046L16.1594 22.0034ZM38.8632 18.0427L38.7418 18.2869C38.518 19.5708 38.0319 20.8163 37.303 21.9732C38.1119 20.7485 38.6403 19.4172 38.8632 18.0427ZM20.9217 0.198073C21.4801 0.0339343 22.2944 0.108073 22.8868 0C22.1147 0.0520079 21.3464 0.0829914 20.5876 0.161557L20.9217 0.198073ZM1.31949 8.56434C1.44816 9.5204 0.423356 9.89147 1.5465 9.2611C2.14852 8.17262 1.31121 8.96049 1.31949 8.56434ZM-0.000352435 12.9891C0.258376 12.3517 0.305251 11.9688 0.404055 11.6C-0.311011 12.3336 0.0750144 12.49 -0.000352435 12.9891Z" fill="#A80030"/>
</g>
<defs>
<clipPath id="clip0_464_7626">
<rect width="40" height="40" fill="white"/>
</clipPath>
</defs>
</svg>
