<svg width="786" height="600" viewBox="0 0 786 600" fill="none" xmlns="http://www.w3.org/2000/svg">
<rect width="786" height="600" rx="60" fill="#F4F4F4"/>
<path d="M344.003 251.002L344.003 251.002C385.787 209.215 430.062 174.92 468.642 154.417C488.416 143.91 505.559 137.683 519.412 135.769C533.276 133.854 543.666 136.274 550.198 142.81L550.199 142.811C556.847 149.46 559.119 160.003 557.22 173.713C555.322 187.407 549.283 204.072 539.578 222.694C520.175 259.929 486.23 304.782 442.01 349.004C406.345 384.669 370.262 413.655 338.093 433.719C305.88 453.809 277.732 464.862 257.901 464.865C248.42 464.865 240.963 462.347 235.814 457.198C229.164 450.548 226.891 440.005 228.79 426.294C230.686 412.599 236.725 395.934 246.43 377.311C265.834 340.075 299.779 295.222 344.003 251.002ZM346.618 253.618L347.278 254.278L346.618 253.618C304.864 295.372 271.562 339.146 251.79 375.616C241.907 393.845 235.376 410.301 232.884 423.798C230.399 437.251 231.883 448.036 238.43 454.582C244.979 461.131 255.766 462.617 269.221 460.131C282.719 457.638 299.175 451.106 317.404 441.222C353.874 421.446 397.645 388.14 439.394 346.388C481.146 304.633 514.448 260.861 534.221 224.391C544.104 206.162 550.635 189.707 553.128 176.211C555.613 162.758 554.129 151.973 547.583 145.426C543.1 140.943 536.433 138.816 528.117 138.816C513.631 138.816 493.755 145.259 470.375 157.683L470.803 158.489L470.375 157.683C432.055 178.049 388.113 212.126 346.618 253.618Z" stroke="#606060" stroke-width="2"/>
<path d="M393.011 525.162C382.028 525.162 371.995 518.272 363.075 505.874C354.164 493.486 346.49 475.758 340.223 454.488C327.692 411.96 320.857 355.52 320.857 300.004C320.857 244.488 327.692 188.049 340.223 145.522C346.49 124.252 354.164 106.525 363.075 94.1374C371.995 81.7389 382.028 74.8496 393.011 74.8496C403.994 74.8496 414.027 81.7389 422.946 94.1374C431.857 106.525 439.53 124.252 445.797 145.522C458.326 188.049 465.159 244.488 465.159 300.004C465.159 355.52 458.326 411.96 445.797 454.488C439.53 475.758 431.857 493.486 422.946 505.874C414.027 518.272 403.994 525.162 393.011 525.162ZM393.011 84.2496C385.196 84.2496 377.425 90.1236 370.221 100.435C362.981 110.797 356.137 125.884 350.227 144.871C338.403 182.857 330.257 236.649 330.257 300.004C330.257 363.36 338.403 417.153 350.227 455.14C356.137 474.127 362.981 489.214 370.221 499.576C377.425 509.888 385.196 515.762 393.011 515.762C400.826 515.762 408.597 509.888 415.801 499.576C423.04 489.213 429.883 474.127 435.793 455.139C447.615 417.153 455.759 363.36 455.759 300.004C455.759 236.649 447.615 182.857 435.793 144.871C429.883 125.884 423.04 110.797 415.801 100.435C408.597 90.1236 400.826 84.2496 393.011 84.2496Z" stroke="#606060" stroke-width="2"/>
<path d="M393.007 372.156C337.491 372.156 281.052 365.324 238.523 352.794C217.253 346.528 199.526 338.854 187.138 329.943C174.739 321.025 167.85 310.991 167.85 300.008C167.85 289.025 174.739 278.992 187.138 270.073C199.526 261.162 217.253 253.488 238.523 247.221C281.052 234.691 337.491 227.857 393.007 227.857C448.523 227.857 504.961 234.691 547.488 247.221C568.758 253.488 586.484 261.162 598.872 270.073C611.27 278.992 618.159 289.025 618.159 300.008C618.159 310.991 611.27 321.025 598.872 329.943C586.484 338.854 568.758 346.528 547.488 352.794C504.961 365.324 448.523 372.156 393.007 372.156ZM393.007 237.257C329.652 237.257 275.859 245.402 237.872 257.225C218.885 263.135 203.798 269.979 193.436 277.218C183.124 284.422 177.25 292.193 177.25 300.008C177.25 307.823 183.124 315.594 193.436 322.798C203.798 330.037 218.885 336.88 237.872 342.79C275.859 354.612 329.652 362.756 393.007 362.756C456.362 362.756 510.154 354.612 548.139 342.79C567.126 336.88 582.212 330.037 592.574 322.798C602.885 315.594 608.759 307.823 608.759 300.008C608.759 292.194 602.885 284.422 592.574 277.218C582.212 269.979 567.126 263.135 548.139 257.225C510.154 245.402 456.362 237.257 393.007 237.257Z" stroke="#606060" stroke-width="2"/>
<path d="M419.468 300.002C419.468 314.619 407.619 326.468 393.002 326.468C378.385 326.468 366.535 314.619 366.535 300.002C366.535 285.385 378.385 273.535 393.002 273.535C407.619 273.535 419.468 285.385 419.468 300.002Z" stroke="#606060" stroke-width="2"/>
<path d="M442.002 250.813C485.738 294.37 519.752 339.35 539.402 376.838C549.23 395.587 555.437 412.411 557.497 426.213C559.561 440.039 557.439 450.622 550.91 457.178C544.381 463.734 533.806 465.899 519.972 463.893C506.161 461.889 489.313 455.751 470.523 446.001C432.954 426.505 387.835 392.676 344.099 349.119C300.364 305.563 266.349 260.583 246.699 223.095C236.872 204.345 230.665 187.522 228.605 173.719C226.541 159.894 228.663 149.31 235.192 142.754C241.721 136.198 252.296 134.033 266.13 136.04C279.94 138.043 296.789 144.181 315.579 153.932C353.147 173.428 398.267 207.257 442.002 250.813Z" stroke="#606060" stroke-width="2"/>
<path d="M439.262 253.458C482.148 296.169 515.695 340.082 535.274 376.531C545.067 394.761 551.337 411.072 553.56 424.399C555.789 437.756 553.921 447.884 547.774 454.056C541.627 460.228 531.507 462.137 518.141 459.964C504.805 457.795 488.469 451.592 470.199 441.874C433.67 422.445 389.619 389.079 346.732 346.368C303.846 303.658 270.299 259.744 250.72 223.295C240.927 205.065 234.657 188.755 232.434 175.427C230.205 162.071 232.073 151.943 238.22 145.77C244.367 139.598 254.487 137.689 267.853 139.862C281.189 142.031 297.525 148.234 315.796 157.952C352.324 177.381 396.375 210.747 439.262 253.458Z" stroke="#606060" stroke-width="2"/>
</svg>
