<svg width="24" height="24" viewBox="0 0 24 24" fill="none" xmlns="http://www.w3.org/2000/svg">
<path d="M20.0535 6.07501C20.021 6.02401 19.984 5.98401 19.9355 5.94751C19.551 5.65851 17.6 4.27801 15.103 4.01001C15.098 4.00951 15.079 4.00851 15.0745 4.00851C15.0255 4.00851 14.983 4.03701 14.9625 4.07851L14.828 4.34751C14.8195 4.36401 14.8145 4.38301 14.8145 4.40301C14.8145 4.45751 14.8495 4.50401 14.8985 4.52101C14.9015 4.52201 14.9225 4.52651 14.93 4.52801C17.0635 5.04201 18.3615 5.97301 19.5045 7.00051C17.481 5.96751 15.4825 5.00001 12 5.00001C8.51753 5.00001 6.51953 5.96801 4.49553 7.00051C5.63853 5.97301 6.93653 5.04201 9.07003 4.52801C9.07753 4.52601 9.09853 4.52201 9.10153 4.52101C9.15053 4.50401 9.18553 4.45751 9.18553 4.40301C9.18553 4.38301 9.18103 4.36401 9.17253 4.34751L9.03753 4.07851C9.01703 4.03701 8.97503 4.00851 8.92553 4.00851C8.92103 4.00851 8.90153 4.00951 8.89703 4.01001C6.40003 4.27801 4.44903 5.65851 4.06453 5.94751C4.01603 5.98401 3.97953 6.02401 3.94653 6.07501C3.59253 6.62851 1.42203 10.269 1.00053 16.891C0.996027 16.962 1.02053 17.0355 1.06803 17.0885C3.36403 19.6605 6.65903 19.9645 7.36203 20C7.44553 20.004 7.52553 19.9675 7.57553 19.9005L8.21653 19.046C8.26653 18.979 8.23953 18.885 8.16103 18.8565C6.80853 18.3635 5.30253 17.5065 3.99503 16.0035C5.61553 17.2285 8.06003 18.5 12 18.5C15.94 18.5 18.3845 17.2285 20.0045 16.0035C18.6965 17.5065 17.191 18.363 15.8385 18.8565C15.76 18.885 15.733 18.979 15.783 19.046L16.424 19.9005C16.4745 19.9675 16.554 20.0045 16.6375 20C17.341 19.964 20.6355 19.6605 22.9315 17.0885C22.979 17.0355 23.0035 16.962 22.999 16.891C22.578 10.269 20.4075 6.62851 20.0535 6.07501Z" fill="url(#paint0_radial_464_7323)"/>
<path opacity="0.05" d="M15.25 15.5C16.4926 15.5 17.5 14.3807 17.5 13C17.5 11.6193 16.4926 10.5 15.25 10.5C14.0074 10.5 13 11.6193 13 13C13 14.3807 14.0074 15.5 15.25 15.5Z" fill="black"/>
<path opacity="0.05" d="M15.25 15.25C16.3546 15.25 17.25 14.2426 17.25 13C17.25 11.7574 16.3546 10.75 15.25 10.75C14.1454 10.75 13.25 11.7574 13.25 13C13.25 14.2426 14.1454 15.25 15.25 15.25Z" fill="black"/>
<path d="M15.25 15C16.2165 15 17 14.1046 17 13C17 11.8954 16.2165 11 15.25 11C14.2835 11 13.5 11.8954 13.5 13C13.5 14.1046 14.2835 15 15.25 15Z" fill="#363636"/>
<path opacity="0.05" d="M8.75 15.5C9.99264 15.5 11 14.3807 11 13C11 11.6193 9.99264 10.5 8.75 10.5C7.50736 10.5 6.5 11.6193 6.5 13C6.5 14.3807 7.50736 15.5 8.75 15.5Z" fill="black"/>
<path opacity="0.05" d="M8.75 15.25C9.85457 15.25 10.75 14.2426 10.75 13C10.75 11.7574 9.85457 10.75 8.75 10.75C7.64543 10.75 6.75 11.7574 6.75 13C6.75 14.2426 7.64543 15.25 8.75 15.25Z" fill="black"/>
<path d="M8.75 15C9.7165 15 10.5 14.1046 10.5 13C10.5 11.8954 9.7165 11 8.75 11C7.7835 11 7 11.8954 7 13C7 14.1046 7.7835 15 8.75 15Z" fill="#363636"/>
<defs>
<radialGradient id="paint0_radial_464_7323" cx="0" cy="0" r="1" gradientUnits="userSpaceOnUse" gradientTransform="translate(12 5.00451) scale(16.126)">
<stop stop-color="#8C9EFF"/>
<stop offset="0.368" stop-color="#889AF8"/>
<stop offset="0.889" stop-color="#7E8FE6"/>
<stop offset="1" stop-color="#7B8CE1"/>
</radialGradient>
</defs>
</svg>
