<svg width="40" height="40" viewBox="0 0 40 40" fill="none" xmlns="http://www.w3.org/2000/svg">
<g clip-path="url(#clip0_464_7651)">
<path d="M39.4878 0.811145C41.5984 2.954 35.7473 12.3743 34.7581 13.3797C33.769 14.383 31.2567 13.4599 29.1472 11.3162C27.0365 9.17337 26.1273 6.62051 27.1165 5.61559C28.1051 4.61035 37.3776 -1.33298 39.4878 0.811145ZM9.89124 3.07845C6.66905 1.2213 2.08405 -0.844729 0.625614 0.637176C-0.852198 2.13781 1.25593 6.90035 3.10343 10.1796C4.74894 7.27547 7.08208 4.83464 9.89124 3.07845Z" fill="#B5010F"/>
<path d="M36.2686 12.6408C36.5653 13.663 36.512 14.5074 36.0308 14.9954C34.9069 16.1376 31.8708 14.9217 29.1339 12.2757C28.9401 12.0997 28.7511 11.9182 28.5672 11.7315C27.5775 10.7258 26.8075 9.65535 26.315 8.66948C25.3564 6.9225 25.1166 5.37964 25.8411 4.64345C26.2359 4.24281 26.8677 4.13361 27.6383 4.2744C28.1408 3.95154 28.7341 3.59186 29.3845 3.22345C26.7394 1.82186 23.732 1.03027 20.5419 1.03027C9.96078 1.03027 1.38281 9.74297 1.38281 20.493C1.38281 31.2411 9.96094 39.9549 20.5419 39.9549C31.1231 39.9549 39.7006 31.2411 39.7006 20.493C39.7006 17.0215 38.8037 13.7665 37.237 10.9444C36.8984 11.5722 36.5692 12.1473 36.2686 12.6408Z" fill="#B5010F"/>
</g>
<defs>
<clipPath id="clip0_464_7651">
<rect width="40" height="40" fill="white"/>
</clipPath>
</defs>
</svg>
