<svg width="24" height="24" viewBox="0 0 24 24" fill="none" xmlns="http://www.w3.org/2000/svg">
<path d="M11.9988 5.86822C13.8765 5.86822 15.1432 6.67934 15.8655 7.35711L18.6876 4.60156C16.9544 2.99044 14.6987 2.00156 11.9988 2.00156C8.08765 2.00156 4.70987 4.246 3.06543 7.51266L6.29876 10.0238C7.10987 7.61266 9.35432 5.86822 11.9988 5.86822Z" fill="#FF003D"/>
<path d="M21.6 12.2233C21.6 11.4011 21.5333 10.8011 21.3889 10.1789H12V13.89H17.5111C17.4 14.8122 16.8 16.2011 15.4667 17.1344L18.6222 19.5789C20.5111 17.8345 21.6 15.2678 21.6 12.2233Z" fill="#4285F4"/>
<path d="M6.31013 13.9784C6.09902 13.3561 5.9768 12.6895 5.9768 12.0006C5.9768 11.3117 6.09902 10.6451 6.29902 10.0228L3.06568 7.51172C2.38791 8.86727 1.99902 10.3895 1.99902 12.0006C1.99902 13.6117 2.38791 15.1339 3.06568 16.4894L6.31013 13.9784Z" fill="#FBBC05"/>
<path d="M11.9994 22.0027C14.6993 22.0027 16.966 21.1137 18.6216 19.5805L15.466 17.136C14.6216 17.7249 13.4883 18.1361 11.9994 18.1361C9.35492 18.1361 7.11048 16.3916 6.31049 13.9805L3.07715 16.4916C4.72159 19.7582 8.08826 22.0027 11.9994 22.0027Z" fill="#34A853"/>
</svg>
