<svg width="755" height="561" viewBox="0 0 755 561" fill="none" xmlns="http://www.w3.org/2000/svg">
<path d="M314.486 133.035L145.499 240.02L87.5403 203.327L145.499 166.634L-18.2413 62.9692" stroke="#24F2FF" stroke-width="2.08754" stroke-miterlimit="1.5" stroke-linecap="round" stroke-linejoin="round"/>
<path d="M314.486 133.035L145.499 240.02L87.5403 203.327L145.499 166.634L-18.2413 62.9692" stroke="#24F2FF" stroke-width="2.08754" stroke-miterlimit="1.5" stroke-linecap="round" stroke-linejoin="round"/>
<path d="M345.742 233.473L405.879 195.402L219.526 77.4219" stroke="#24F2FF" stroke-width="2.08754" stroke-miterlimit="1.5" stroke-linecap="round" stroke-linejoin="round"/>
<path d="M345.742 233.473L405.879 195.402L219.526 77.4219" stroke="#24F2FF" stroke-width="2.08754" stroke-miterlimit="1.5" stroke-linecap="round" stroke-linejoin="round"/>
<path d="M634.718 416.424L725.627 358.872L588.105 271.806" stroke="#24F2FF" stroke-width="2.08754" stroke-miterlimit="1.5" stroke-linecap="round" stroke-linejoin="round"/>
<path d="M634.718 416.424L725.627 358.872L588.105 271.806" stroke="#24F2FF" stroke-width="2.08754" stroke-miterlimit="1.5" stroke-linecap="round" stroke-linejoin="round"/>
<path d="M609.739 217.053L485.413 138.345L588.154 82.2863" stroke="#24F2FF" stroke-width="2.08754" stroke-miterlimit="1.5" stroke-linecap="round" stroke-linejoin="round"/>
<path d="M609.739 217.053L485.413 138.345L588.154 82.2863" stroke="#24F2FF" stroke-width="2.08754" stroke-miterlimit="1.5" stroke-linecap="round" stroke-linejoin="round"/>
<path d="M522.867 313.105L642.193 237.561L609.772 217.034L740.515 134.258" stroke="#24F2FF" stroke-width="2.08754" stroke-miterlimit="1.5" stroke-linecap="round" stroke-linejoin="round"/>
<path d="M522.867 313.105L642.193 237.561L609.772 217.034L740.515 134.258" stroke="#24F2FF" stroke-width="2.08754" stroke-miterlimit="1.5" stroke-linecap="round" stroke-linejoin="round"/>
<path d="M400.944 310.7L356.057 282.281" stroke="#24F2FF" stroke-width="2.09654" stroke-miterlimit="1.5" stroke-linecap="round" stroke-linejoin="round"/>
<path d="M297 376.509L278.096 388.475" stroke="#24F2FF" stroke-width="2.70841" stroke-miterlimit="1.5" stroke-linecap="round" stroke-linejoin="round"/>
<path d="M356.063 413.901L297.001 376.51" stroke="#24F2FF" stroke-width="2.09654" stroke-miterlimit="1.5" stroke-linecap="round" stroke-linejoin="round"/>
<path fill-rule="evenodd" clip-rule="evenodd" d="M389.137 261.343L313.538 309.205L237.941 261.344L313.539 213.482L389.137 261.343ZM242.037 261.341L313.536 306.607L385.034 261.341L313.535 216.075L242.037 261.341Z" fill="#24F2FF"/>
<path fill-rule="evenodd" clip-rule="evenodd" d="M460.006 273.307L341.884 348.091L460.005 422.874L578.128 348.09L460.006 273.307ZM345.985 348.092L460.009 420.28L574.032 348.093L460.008 275.904L345.985 348.092Z" fill="#24F2FF"/>
<path d="M400.944 385.483L356.062 413.901L460.01 479.711" stroke="#24F2FF" stroke-width="2.70841" stroke-miterlimit="1.5" stroke-linecap="round" stroke-linejoin="round"/>
<path d="M519.07 385.483L563.958 413.901" stroke="#24F2FF" stroke-width="2.70841" stroke-miterlimit="1.5" stroke-linecap="round" stroke-linejoin="round"/>
<path fill-rule="evenodd" clip-rule="evenodd" d="M485.995 463.258L434.021 496.163L485.994 529.067L537.968 496.162L485.995 463.258ZM438.12 496.162L485.995 526.472L533.869 496.163L485.993 465.853L438.12 496.162Z" fill="#24F2FF"/>
<path fill-rule="evenodd" clip-rule="evenodd" d="M597.03 392.961L521.431 440.823L597.029 488.684L672.628 440.822L597.03 392.961ZM525.534 440.824L597.033 486.091L668.532 440.825L597.032 395.559L525.534 440.824Z" fill="#24F2FF"/>
<path fill-rule="evenodd" clip-rule="evenodd" d="M204.862 342.109L91.4642 413.901L242.659 509.622L356.057 437.83L204.862 342.109ZM95.5667 413.902L242.664 507.029L351.961 437.833L204.864 344.706L95.5667 413.902Z" fill="#24F2FF"/>
<path fill-rule="evenodd" clip-rule="evenodd" d="M204.862 342.109L91.4642 413.901L242.659 509.622L356.057 437.83L204.862 342.109ZM95.5667 413.902L242.664 507.029L351.961 437.833L204.864 344.706L95.5667 413.902Z" fill="#24F2FF"/>
<path d="M400.944 310.7L356.057 282.281" stroke="#24F2FF" stroke-width="2.09654" stroke-miterlimit="1.5" stroke-linecap="round" stroke-linejoin="round"/>
<path d="M297 376.509L278.096 388.475" stroke="#24F2FF" stroke-width="2.70841" stroke-miterlimit="1.5" stroke-linecap="round" stroke-linejoin="round"/>
<path d="M356.063 413.901L297.001 376.51" stroke="#24F2FF" stroke-width="2.09654" stroke-miterlimit="1.5" stroke-linecap="round" stroke-linejoin="round"/>
<path fill-rule="evenodd" clip-rule="evenodd" d="M389.137 261.343L313.538 309.205L237.941 261.344L313.539 213.482L389.137 261.343ZM242.037 261.341L313.536 306.607L385.034 261.341L313.535 216.075L242.037 261.341Z" fill="#24F2FF"/>
<path fill-rule="evenodd" clip-rule="evenodd" d="M460.006 273.307L341.884 348.091L460.005 422.874L578.128 348.09L460.006 273.307ZM345.985 348.092L460.009 420.28L574.032 348.093L460.008 275.904L345.985 348.092Z" fill="#24F2FF"/>
<path d="M400.944 385.483L356.062 413.901L460.01 479.711" stroke="#24F2FF" stroke-width="2.70841" stroke-miterlimit="1.5" stroke-linecap="round" stroke-linejoin="round"/>
<path d="M519.07 385.483L563.958 413.901" stroke="#24F2FF" stroke-width="2.70841" stroke-miterlimit="1.5" stroke-linecap="round" stroke-linejoin="round"/>
<path fill-rule="evenodd" clip-rule="evenodd" d="M485.995 463.258L434.021 496.163L485.994 529.067L537.968 496.162L485.995 463.258ZM438.12 496.162L485.995 526.472L533.869 496.163L485.993 465.853L438.12 496.162Z" fill="#24F2FF"/>
<path fill-rule="evenodd" clip-rule="evenodd" d="M597.03 392.961L521.431 440.823L597.029 488.684L672.628 440.822L597.03 392.961ZM525.534 440.824L597.033 486.091L668.532 440.825L597.032 395.559L525.534 440.824Z" fill="#24F2FF"/>
<path fill-rule="evenodd" clip-rule="evenodd" d="M204.862 342.109L91.4642 413.901L242.659 509.622L356.057 437.83L204.862 342.109ZM95.5667 413.902L242.664 507.029L351.961 437.833L204.864 344.706L95.5667 413.902Z" fill="#24F2FF"/>
<path fill-rule="evenodd" clip-rule="evenodd" d="M204.862 342.109L91.4642 413.901L242.659 509.622L356.057 437.83L204.862 342.109ZM95.5667 413.902L242.664 507.029L351.961 437.833L204.864 344.706L95.5667 413.902Z" fill="#24F2FF"/>
<path d="M204.862 351.083L98.5514 418.388L242.662 509.624L348.972 442.319L204.862 351.083Z" fill="#245BBE"/>
<path d="M119.813 425.866L115.088 428.857L143.437 446.805L148.162 443.814L119.813 425.866Z" fill="#24F2FF"/>
<path d="M214.311 366.039L209.586 369.03L237.935 386.978L242.66 383.987L214.311 366.039Z" fill="#24F2FF"/>
<path d="M211.949 376.509L207.224 379.5L235.573 397.448L240.298 394.456L211.949 376.509Z" fill="#24F2FF"/>
<path d="M209.586 386.978L204.861 389.97L233.211 407.918L237.936 404.926L209.586 386.978Z" fill="#24F2FF"/>
<path d="M183.599 394.457L178.874 397.448L207.224 415.396L211.948 412.405L183.599 394.457Z" fill="#24F2FF"/>
<path d="M167.063 395.953L162.338 398.944L181.237 410.91L185.962 407.918L167.063 395.953Z" fill="#24F2FF"/>
<path d="M157.612 401.935L152.887 404.926L181.237 422.874L185.962 419.883L157.612 401.935Z" fill="#24F2FF"/>
<path d="M155.25 412.405L150.525 415.396L178.874 433.344L183.599 430.353L155.25 412.405Z" fill="#24F2FF"/>
<path d="M152.887 422.874L148.162 425.866L176.512 443.814L181.237 440.822L152.887 422.874Z" fill="#24F2FF"/>
<path d="M185.963 443.815L181.238 446.806L193.05 454.285L197.775 451.293L185.963 443.815Z" fill="#24F2FF"/>
<path d="M136.35 424.37L131.625 427.361L159.975 445.309L164.7 442.318L136.35 424.37Z" fill="#24F2FF"/>
<path d="M169.424 445.309L164.7 448.301L193.049 466.249L197.774 463.257L169.424 445.309Z" fill="#24F2FF"/>
<path d="M157.612 401.935L152.887 404.926L181.237 422.874L185.962 419.883L157.612 401.935Z" fill="#24F2FF"/>
<path d="M119.813 425.866L115.088 428.857L143.437 446.805L148.162 443.814L119.813 425.866Z" fill="#24F2FF"/>
<path d="M214.311 366.039L209.586 369.03L237.935 386.978L242.66 383.987L214.311 366.039Z" fill="#24F2FF"/>
<path d="M211.949 376.509L207.224 379.5L235.573 397.448L240.298 394.456L211.949 376.509Z" fill="#24F2FF"/>
<path d="M209.586 386.978L204.861 389.97L233.211 407.918L237.936 404.926L209.586 386.978Z" fill="#24F2FF"/>
<path d="M183.599 394.457L178.874 397.448L207.224 415.396L211.948 412.405L183.599 394.457Z" fill="#24F2FF"/>
<path d="M167.063 395.953L162.338 398.944L181.237 410.91L185.962 407.918L167.063 395.953Z" fill="#24F2FF"/>
<path d="M157.612 401.935L152.887 404.926L181.237 422.874L185.962 419.883L157.612 401.935Z" fill="#24F2FF"/>
<path d="M155.25 412.405L150.525 415.396L178.874 433.344L183.599 430.353L155.25 412.405Z" fill="#24F2FF"/>
<path d="M152.887 422.874L148.162 425.866L176.512 443.814L181.237 440.822L152.887 422.874Z" fill="#24F2FF"/>
<path d="M185.963 443.815L181.238 446.806L193.05 454.285L197.775 451.293L185.963 443.815Z" fill="#24F2FF"/>
<path d="M136.35 424.37L131.625 427.361L159.975 445.309L164.7 442.318L136.35 424.37Z" fill="#24F2FF"/>
<path d="M169.424 445.309L164.7 448.301L193.049 466.249L197.774 463.257L169.424 445.309Z" fill="#24F2FF"/>
<path d="M157.612 401.935L152.887 404.926L181.237 422.874L185.962 419.883L157.612 401.935Z" fill="#24F2FF"/>
<g opacity="0.7">
<path d="M204.866 360.059L200.141 363.05L204.866 366.042L209.59 363.05L204.866 360.059Z" fill="#39D0FF"/>
<path d="M195.416 366.042L190.691 369.033L195.416 372.024L200.141 369.033L195.416 366.042Z" fill="#39D0FF"/>
<path d="M185.966 372.024L181.241 375.016L185.966 378.007L190.691 375.016L185.966 372.024Z" fill="#39D0FF"/>
<path d="M176.516 378.007L171.791 380.998L176.516 383.99L181.241 380.998L176.516 378.007Z" fill="#39D0FF"/>
<path d="M167.066 383.99L162.341 386.981L167.066 389.972L171.791 386.981L167.066 383.99Z" fill="#39D0FF"/>
<path d="M157.617 389.972L152.892 392.964L157.616 395.955L162.341 392.964L157.617 389.972Z" fill="#39D0FF"/>
<path d="M148.167 395.955L143.442 398.947L148.167 401.938L152.892 398.946L148.167 395.955Z" fill="#39D0FF"/>
<path d="M138.717 401.938L133.992 404.929L138.717 407.92L143.442 404.929L138.717 401.938Z" fill="#39D0FF"/>
<path d="M129.267 407.921L124.542 410.912L129.267 413.903L133.992 410.912L129.267 407.921Z" fill="#39D0FF"/>
<path d="M119.817 413.903L115.092 416.895L119.817 419.886L124.542 416.894L119.817 413.903Z" fill="#39D0FF"/>
<path d="M110.367 419.886L105.643 422.877L110.367 425.869L115.092 422.877L110.367 419.886Z" fill="#39D0FF"/>
</g>
<path d="M242.661 407.918L237.936 410.91L254.473 421.379L259.198 418.388L242.661 407.918Z" fill="white"/>
<path d="M233.211 413.901L228.486 416.892L237.936 422.875L242.661 419.883L233.211 413.901Z" fill="white"/>
<path d="M247.386 386.979L242.661 389.971L247.386 392.962L252.111 389.971L247.386 386.979Z" fill="white"/>
<path d="M200.136 392.961L195.411 395.952L223.761 413.9L228.486 410.909L200.136 392.961Z" fill="white"/>
<path d="M190.687 422.875L185.962 425.866L200.137 434.84L204.862 431.849L190.687 422.875Z" fill="white"/>
<path d="M202.5 454.285L197.775 457.276L209.587 464.754L214.312 461.763L202.5 454.285Z" fill="white"/>
<path d="M242.661 407.918L237.936 410.91L254.473 421.379L259.198 418.388L242.661 407.918Z" fill="white"/>
<path d="M233.211 413.901L228.486 416.892L237.936 422.875L242.661 419.883L233.211 413.901Z" fill="white"/>
<path d="M247.386 386.979L242.661 389.971L247.386 392.962L252.111 389.971L247.386 386.979Z" fill="white"/>
<path d="M200.136 392.961L195.411 395.952L223.761 413.9L228.486 410.909L200.136 392.961Z" fill="white"/>
<path d="M190.687 422.875L185.962 425.866L200.137 434.84L204.862 431.849L190.687 422.875Z" fill="white"/>
<path d="M202.5 454.285L197.775 457.276L209.587 464.754L214.312 461.763L202.5 454.285Z" fill="white"/>
<path fill-rule="evenodd" clip-rule="evenodd" d="M204.862 342.108L91.464 414.425L98.5514 418.353L204.862 350.556V342.108Z" fill="url(#paint0_linear_506_7)" stroke="#24F2FF" stroke-opacity="0.2" stroke-width="0.628485" stroke-miterlimit="1.5" stroke-linecap="round" stroke-linejoin="round"/>
<path fill-rule="evenodd" clip-rule="evenodd" d="M356.059 438.372L204.862 342.109V350.544L348.972 442.295L356.059 438.372Z" fill="url(#paint1_linear_506_7)" stroke="#24F2FF" stroke-opacity="0.2" stroke-width="0.367422" stroke-miterlimit="1.5" stroke-linecap="round" stroke-linejoin="round"/>
<path d="M311.172 466.249L323.427 474.01" stroke="#24F2FF" stroke-width="1.61619" stroke-miterlimit="1.5" stroke-linecap="round" stroke-linejoin="round"/>
<path fill-rule="evenodd" clip-rule="evenodd" d="M322.983 473.727C324.939 472.489 328.118 472.491 330.071 473.728C332.03 474.968 332.028 476.977 330.072 478.216C328.117 479.454 324.943 479.455 322.984 478.215C321.03 476.978 321.027 474.966 322.983 473.727ZM323.726 475.135C325.274 474.156 327.782 474.154 329.332 475.135C329.741 475.394 330.06 475.633 330.057 475.971C330.06 476.313 329.739 476.549 329.329 476.808C327.782 477.787 325.273 477.789 323.723 476.808C323.314 476.549 323.001 476.313 322.998 475.972C323.001 475.633 323.317 475.395 323.726 475.135Z" fill="#24F2FF"/>
<path d="M247.514 506.55L259.198 513.947" stroke="#24F2FF" stroke-width="1.61619" stroke-miterlimit="1.5" stroke-linecap="round" stroke-linejoin="round"/>
<path d="M259.2 514.247L246.943 521.734" stroke="#24F2FF" stroke-width="1.6162" stroke-miterlimit="1.5" stroke-linecap="round" stroke-linejoin="round"/>
<path fill-rule="evenodd" clip-rule="evenodd" d="M240.297 521.589C242.253 520.351 245.432 520.352 247.386 521.589C249.345 522.83 249.342 524.839 247.387 526.077C245.431 527.315 242.257 527.317 240.298 526.076C238.345 524.839 238.342 522.827 240.297 521.589ZM241.041 522.996C242.588 522.017 245.097 522.015 246.647 522.996C247.056 523.255 247.374 523.494 247.371 523.833C247.374 524.174 247.053 524.41 246.644 524.669C245.096 525.649 242.587 525.65 241.038 524.669C240.628 524.41 240.315 524.175 240.313 523.833C240.315 523.495 240.631 523.256 241.041 522.996Z" fill="#24F2FF"/>
<path d="M188.325 352.583L176.642 345.187" stroke="#24F2FF" stroke-width="1.61619" stroke-miterlimit="1.5" stroke-linecap="round" stroke-linejoin="round"/>
<path d="M176.641 344.883L188.898 337.396" stroke="#24F2FF" stroke-width="1.6162" stroke-miterlimit="1.5" stroke-linecap="round" stroke-linejoin="round"/>
<path fill-rule="evenodd" clip-rule="evenodd" d="M195.543 337.541C193.587 338.779 190.408 338.777 188.455 337.54C186.496 336.3 186.498 334.29 188.454 333.052C190.409 331.814 193.583 331.813 195.542 333.053C197.496 334.29 197.499 336.302 195.543 337.541ZM194.8 336.133C193.252 337.112 190.744 337.114 189.194 336.133C188.785 335.874 188.466 335.635 188.469 335.296C188.466 334.955 188.787 334.719 189.197 334.46C190.744 333.48 193.253 333.479 194.803 334.46C195.212 334.719 195.525 334.954 195.528 335.296C195.525 335.635 195.209 335.873 194.8 336.133Z" fill="#24F2FF"/>
<path d="M188.325 352.579V359.937" stroke="#24F2FF" stroke-width="2.08754" stroke-miterlimit="1.5" stroke-linecap="round" stroke-linejoin="round"/>
<path d="M333.331 452.221L338.056 455.213" stroke="#24F2FF" stroke-width="1.61205" stroke-miterlimit="1.5" stroke-linecap="round" stroke-linejoin="round"/>
<path fill-rule="evenodd" clip-rule="evenodd" d="M338.054 455.212C340.009 453.974 343.188 453.976 345.142 455.213C347.101 456.453 347.098 458.462 345.143 459.701C343.187 460.939 340.014 460.94 338.055 459.7C336.101 458.463 336.098 456.451 338.054 455.212ZM338.797 456.62C340.344 455.641 342.853 455.639 344.403 456.62C344.812 456.879 345.13 457.118 345.128 457.456C345.13 457.798 344.809 458.033 344.4 458.293C342.852 459.272 340.343 459.274 338.794 458.293C338.384 458.034 338.071 457.798 338.069 457.457C338.071 457.118 338.387 456.88 338.797 456.62Z" fill="#24F2FF"/>
<path d="M100.817 419.823L96.0924 422.815" stroke="#24F2FF" stroke-width="1.61205" stroke-miterlimit="1.5" stroke-linecap="round" stroke-linejoin="round"/>
<path fill-rule="evenodd" clip-rule="evenodd" d="M96.096 422.815C94.1403 421.576 90.9615 421.578 89.0076 422.815C87.0487 424.055 87.0511 426.065 89.0068 427.303C90.9624 428.541 94.136 428.542 96.095 427.302C98.0489 426.065 98.0516 424.053 96.096 422.815ZM95.3528 424.222C95.7626 424.482 96.0783 424.72 96.0808 425.059C96.0785 425.401 95.7651 425.636 95.3559 425.895C93.8061 426.876 91.2972 426.875 89.7499 425.895C89.3402 425.636 89.0193 425.4 89.022 425.059C89.0191 424.72 89.3376 424.481 89.7468 424.222C91.2966 423.241 93.8056 423.243 95.3528 424.222Z" fill="#24F2FF"/>
<path fill-rule="evenodd" clip-rule="evenodd" d="M370.235 231.429V255.36L313.536 291.256L256.837 255.36V231.429L313.536 195.533L370.235 231.429Z" fill="url(#paint2_linear_506_7)"/>
<path d="M313.535 268.289L256.836 231.429V254.397L313.535 291.258V268.289Z" fill="url(#paint3_linear_506_7)"/>
<path d="M370.234 231.429L313.535 268.287V291.256L370.234 254.397V231.429Z" fill="url(#paint4_linear_506_7)"/>
<path d="M313.535 195.533L256.836 231.429L313.534 267.325L370.233 231.429L313.535 195.533Z" fill="url(#paint5_linear_506_7)"/>
<path d="M313.536 252.844L262.507 220.062V228.567L313.536 261.349V252.844Z" fill="white"/>
<path d="M313.536 252.844L262.507 220.062V228.567L313.536 261.349V252.844Z" fill="white"/>
<path d="M364.565 220.063L313.536 252.834V261.343L364.565 228.572V220.063Z" fill="white"/>
<path d="M364.565 220.063L313.536 252.834V261.343L364.565 228.572V220.063Z" fill="white"/>
<path fill-rule="evenodd" clip-rule="evenodd" d="M370.235 192.541V216.472L313.536 252.369L256.837 216.472V192.541L313.536 156.646L370.235 192.541Z" fill="url(#paint6_linear_506_7)"/>
<path d="M313.535 229.402L256.836 192.542V215.51L313.535 252.37V229.402Z" fill="url(#paint7_linear_506_7)"/>
<path d="M370.234 192.541L313.535 229.4V252.368L370.234 215.51V192.541Z" fill="url(#paint8_linear_506_7)"/>
<path d="M313.535 156.645L256.836 192.541L313.534 228.437L370.233 192.541L313.535 156.645Z" fill="url(#paint9_linear_506_7)"/>
<path d="M313.536 213.957L262.507 181.175V189.68L313.536 222.462V213.957Z" fill="white"/>
<path d="M313.536 213.957L262.507 181.175V189.68L313.536 222.462V213.957Z" fill="white"/>
<path d="M364.565 181.174L313.536 213.946V222.455L364.565 189.683V181.174Z" fill="white"/>
<path d="M364.565 181.174L313.536 213.946V222.455L364.565 189.683V181.174Z" fill="white"/>
<path fill-rule="evenodd" clip-rule="evenodd" d="M370.235 153.654V177.585L313.536 213.481L256.837 177.585V153.654L313.536 117.758L370.235 153.654Z" fill="url(#paint10_linear_506_7)"/>
<path d="M313.535 190.514L256.836 153.654V176.622L313.535 213.483V190.514Z" fill="url(#paint11_linear_506_7)"/>
<path d="M370.234 153.654L313.535 190.512V213.481L370.234 176.622V153.654Z" fill="url(#paint12_linear_506_7)"/>
<path d="M313.535 117.758L256.836 153.654L313.534 189.55L370.233 153.653L313.535 117.758Z" fill="url(#paint13_linear_506_7)"/>
<path d="M308.81 195.964L275.736 174.772V179.178L308.81 200.37V195.964Z" fill="white"/>
<path d="M308.81 195.964L275.736 174.772V179.178L308.81 200.37V195.964Z" fill="white"/>
<path fill-rule="evenodd" clip-rule="evenodd" d="M308.811 200.766V196.313L275.734 174.876L268.782 178.787V183.239L301.725 204.59L308.811 200.766Z" fill="url(#paint14_linear_506_7)"/>
<path d="M308.81 235.084L275.736 213.893V218.299L308.81 239.49V235.084Z" fill="white"/>
<path d="M308.81 235.084L275.736 213.893V218.299L308.81 239.49V235.084Z" fill="white"/>
<path fill-rule="evenodd" clip-rule="evenodd" d="M308.811 239.886V235.433L275.734 213.996L268.782 217.907V222.36L301.725 243.71L308.811 239.886Z" fill="url(#paint15_linear_506_7)"/>
<path d="M308.81 273.739L275.736 252.547V256.953L308.81 278.145V273.739Z" fill="white"/>
<path d="M308.81 273.739L275.736 252.547V256.953L308.81 278.145V273.739Z" fill="white"/>
<path fill-rule="evenodd" clip-rule="evenodd" d="M308.811 278.541V274.088L275.734 252.651L268.782 256.562V261.015L301.725 282.365L308.811 278.541Z" fill="url(#paint16_linear_506_7)"/>
<path d="M264.309 172.141C265.325 172.813 266.149 172.339 266.149 171.082C266.149 169.826 265.325 168.262 264.309 167.589C263.293 166.917 262.47 167.391 262.47 168.647C262.47 169.904 263.293 171.468 264.309 172.141Z" fill="white"/>
<path d="M264.309 172.141C265.325 172.813 266.149 172.339 266.149 171.082C266.149 169.826 265.325 168.262 264.309 167.589C263.293 166.917 262.47 167.391 262.47 168.647C262.47 169.904 263.293 171.468 264.309 172.141Z" fill="white"/>
<path fill-rule="evenodd" clip-rule="evenodd" d="M264.243 167.795C265.255 168.465 266.083 170.032 266.083 171.288C266.083 171.842 266.349 171.999 266.083 172.216C265.742 172.491 259.627 176.168 259.057 175.79C258.045 175.121 256.84 173.304 256.84 172.048C256.84 171.473 262.248 168.047 262.533 167.835C262.873 167.588 263.692 167.429 264.243 167.795Z" fill="url(#paint17_linear_506_7)"/>
<path fill-rule="evenodd" clip-rule="evenodd" d="M264.243 167.795C265.255 168.465 266.083 170.032 266.083 171.288C266.083 171.842 266.349 171.999 266.083 172.216C265.742 172.491 259.627 176.168 259.057 175.79C258.045 175.121 256.84 173.304 256.84 172.048C256.84 171.473 262.248 168.047 262.533 167.835C262.873 167.588 263.692 167.429 264.243 167.795Z" fill="url(#paint18_linear_506_7)"/>
<path d="M264.4 211.319C265.416 211.991 266.239 211.517 266.239 210.26C266.239 209.003 265.416 207.439 264.4 206.767C263.384 206.094 262.561 206.568 262.561 207.825C262.561 209.082 263.384 210.646 264.4 211.319Z" fill="white"/>
<path d="M264.4 211.319C265.416 211.991 266.239 211.517 266.239 210.26C266.239 209.003 265.416 207.439 264.4 206.767C263.384 206.094 262.561 206.568 262.561 207.825C262.561 209.082 263.384 210.646 264.4 211.319Z" fill="white"/>
<path fill-rule="evenodd" clip-rule="evenodd" d="M264.334 206.973C265.346 207.642 266.173 209.21 266.173 210.465C266.173 211.02 266.44 211.177 266.173 211.394C265.833 211.669 259.717 215.346 259.147 214.968C258.136 214.298 256.931 212.481 256.931 211.226C256.931 210.65 262.338 207.225 262.623 207.013C262.964 206.765 263.782 206.607 264.334 206.973Z" fill="url(#paint19_linear_506_7)"/>
<path fill-rule="evenodd" clip-rule="evenodd" d="M264.334 206.973C265.346 207.642 266.173 209.21 266.173 210.465C266.173 211.02 266.44 211.177 266.173 211.394C265.833 211.669 259.717 215.346 259.147 214.968C258.136 214.298 256.931 212.481 256.931 211.226C256.931 210.65 262.338 207.225 262.623 207.013C262.964 206.765 263.782 206.607 264.334 206.973Z" fill="url(#paint20_linear_506_7)"/>
<path d="M264.4 249.973C265.416 250.646 266.239 250.172 266.239 248.915C266.239 247.658 265.416 246.094 264.4 245.422C263.384 244.749 262.561 245.223 262.561 246.48C262.561 247.737 263.384 249.301 264.4 249.973Z" fill="white"/>
<path d="M264.4 249.973C265.416 250.646 266.239 250.172 266.239 248.915C266.239 247.658 265.416 246.094 264.4 245.422C263.384 244.749 262.561 245.223 262.561 246.48C262.561 247.737 263.384 249.301 264.4 249.973Z" fill="white"/>
<path fill-rule="evenodd" clip-rule="evenodd" d="M264.334 245.627C265.346 246.297 266.173 247.864 266.173 249.12C266.173 249.674 266.44 249.831 266.173 250.049C265.833 250.324 259.717 254 259.147 253.623C258.136 252.953 256.931 251.136 256.931 249.88C256.931 249.305 262.338 245.879 262.623 245.668C262.964 245.42 263.782 245.262 264.334 245.627Z" fill="url(#paint21_linear_506_7)"/>
<path fill-rule="evenodd" clip-rule="evenodd" d="M264.334 245.627C265.346 246.297 266.173 247.864 266.173 249.12C266.173 249.674 266.44 249.831 266.173 250.049C265.833 250.324 259.717 254 259.147 253.623C258.136 252.953 256.931 251.136 256.931 249.88C256.931 249.305 262.338 245.879 262.623 245.668C262.964 245.42 263.782 245.262 264.334 245.627Z" fill="url(#paint22_linear_506_7)"/>
<path d="M323.555 126.731H303.513V153.291H323.555V126.731Z" fill="url(#paint23_linear_506_7)"/>
<path d="M320.622 158.141C324.536 155.662 324.536 151.645 320.622 149.167C316.708 146.689 310.362 146.689 306.448 149.167C302.533 151.645 302.533 155.663 306.448 158.141C310.362 160.619 316.708 160.619 320.622 158.141Z" fill="white"/>
<path d="M320.622 158.141C324.536 155.662 324.536 151.645 320.622 149.167C316.708 146.689 310.362 146.689 306.448 149.167C302.533 151.645 302.533 155.663 306.448 158.141C310.362 160.619 316.708 160.619 320.622 158.141Z" fill="white"/>
<path d="M313.534 274.71L237.937 225.447V259.954L313.534 309.218V274.71Z" fill="url(#paint24_linear_506_7)"/>
<path d="M389.134 225.446L313.535 274.685V309.203L389.134 259.964V225.446Z" fill="url(#paint25_linear_506_7)"/>
<path d="M460.007 288.264L365.509 348.091L460.007 407.918L554.505 348.091L460.007 288.264Z" fill="white"/>
<path d="M460.007 288.264L365.509 348.091L460.007 407.918L554.505 348.091L460.007 288.264Z" fill="white"/>
<path d="M460.007 264.333L365.509 324.16L460.007 383.987L554.505 324.16L460.007 264.333Z" fill="#39D0FF"/>
<path fill-rule="evenodd" clip-rule="evenodd" d="M408.891 226.982C408.89 226.933 408.89 226.883 408.89 226.832C408.89 214.267 417.208 209.523 427.454 216.245C429.528 217.605 431.522 219.332 433.386 221.326C437.539 214.775 445.581 213.759 454.811 219.814C466.756 227.65 476.709 244.717 478.823 260.003C479.898 260.4 481.018 260.972 482.169 261.727C490.257 267.033 496.823 279.393 496.825 289.312V289.317C496.825 293.455 494.746 297.189 491.372 299.114C487.998 301.037 483.841 300.86 480.467 298.646L427.886 264.15C416.132 256.439 408.89 242.807 408.89 228.392L408.891 226.982Z" fill="url(#paint26_radial_506_7)"/>
<path fill-rule="evenodd" clip-rule="evenodd" d="M408.891 226.982C408.89 226.933 408.89 226.883 408.89 226.832C408.89 214.267 417.208 209.523 427.454 216.245C429.528 217.605 431.522 219.332 433.386 221.326C437.539 214.775 445.581 213.759 454.811 219.814C466.756 227.65 476.709 244.717 478.823 260.003C479.898 260.4 481.018 260.972 482.169 261.727C490.257 267.033 496.823 279.393 496.825 289.312V289.317C496.825 293.455 494.746 297.189 491.372 299.114C487.998 301.037 483.841 300.86 480.467 298.646L427.886 264.15C416.132 256.439 408.89 242.807 408.89 228.392L408.891 226.982Z" fill="url(#paint27_radial_506_7)"/>
<path fill-rule="evenodd" clip-rule="evenodd" d="M534.391 227.912C534.391 227.892 534.391 227.87 534.391 227.849C534.391 222.561 530.891 215.971 526.579 213.142C525.706 212.57 524.866 212.195 524.082 212.005C522.334 206.955 518.95 202.087 515.065 199.538C510.038 196.241 505.849 197.927 504.959 203.193C504.507 202.767 504.036 202.389 503.551 202.071C500.147 199.838 497.384 201.414 497.383 205.588V205.59C497.383 210.814 500.007 215.754 504.267 218.549L525.915 232.749C527.663 233.896 529.818 233.988 531.566 232.991C533.314 231.994 534.391 230.059 534.391 227.914L534.391 227.912Z" fill="url(#paint28_radial_506_7)"/>
<path fill-rule="evenodd" clip-rule="evenodd" d="M534.391 227.912C534.391 227.892 534.391 227.87 534.391 227.849C534.391 222.561 530.891 215.971 526.579 213.142C525.706 212.57 524.866 212.195 524.082 212.005C522.334 206.955 518.95 202.087 515.065 199.538C510.038 196.241 505.849 197.927 504.959 203.193C504.507 202.767 504.036 202.389 503.551 202.071C500.147 199.838 497.384 201.414 497.383 205.588V205.59C497.383 210.814 500.007 215.754 504.267 218.549L525.915 232.749C527.663 233.896 529.818 233.988 531.566 232.991C533.314 231.994 534.391 230.059 534.391 227.914L534.391 227.912Z" fill="url(#paint29_radial_506_7)"/>
<path d="M554.506 135.714L460.008 198.659V383.997L554.506 321.051V135.714Z" fill="url(#paint30_linear_506_7)"/>
<path d="M460.007 198.69L365.509 135.705V321.017L460.007 384.002V198.69Z" fill="url(#paint31_linear_506_7)"/>
<path d="M460.007 355.434L365.509 294.247V322.818L460.007 384.006V355.434Z" fill="url(#paint32_linear_506_7)"/>
<path d="M554.505 294.247L460.007 355.404V383.986L554.505 322.829V294.247Z" fill="url(#paint33_linear_506_7)"/>
<path fill-rule="evenodd" clip-rule="evenodd" d="M554.502 135.704L554.504 135.702V165.616L460.006 225.443L365.508 165.616V135.702L365.51 135.704L460.006 75.8793L554.502 135.704Z" fill="url(#paint34_linear_506_7)"/>
<path d="M460.007 196.863L365.509 135.702V164.284L460.007 225.445V196.863Z" fill="url(#paint35_linear_506_7)"/>
<path d="M554.505 135.705L460.007 196.863V225.445L554.505 164.288V135.705Z" fill="url(#paint36_linear_506_7)"/>
<path d="M460.007 75.8788L365.509 135.706L460.007 195.533L554.505 135.706L460.007 75.8788Z" fill="url(#paint37_linear_506_7)"/>
<path d="M452.921 355.834L408.034 327.152V331.546L452.921 360.228V355.834Z" fill="white"/>
<path d="M452.921 355.834L408.034 327.152V331.546L452.921 360.228V355.834Z" fill="white"/>
<path fill-rule="evenodd" clip-rule="evenodd" d="M452.92 360.657V356.221L408.033 327.24L401.081 331.135V335.571L445.968 364.553L452.92 360.657Z" fill="url(#paint38_linear_506_7)"/>
<path fill-rule="evenodd" clip-rule="evenodd" d="M452.92 372.444V368.007L408.033 339.026L401.081 342.921V347.357L445.968 376.339L452.92 372.444Z" fill="url(#paint39_linear_506_7)"/>
<path d="M452.921 367.791L408.034 339.118V343.349L452.921 372.023V367.791Z" fill="white"/>
<path d="M452.921 367.791L408.034 339.118V343.349L452.921 372.023V367.791Z" fill="white"/>
<path d="M373.124 309.653C374.139 310.325 374.963 309.852 374.963 308.595C374.963 307.338 374.139 305.774 373.124 305.101C372.108 304.429 371.284 304.903 371.284 306.16C371.284 307.417 372.108 308.981 373.124 309.653Z" fill="white"/>
<path d="M373.124 309.653C374.139 310.325 374.963 309.852 374.963 308.595C374.963 307.338 374.139 305.774 373.124 305.101C372.108 304.429 371.284 304.903 371.284 306.16C371.284 307.417 372.108 308.981 373.124 309.653Z" fill="white"/>
<path fill-rule="evenodd" clip-rule="evenodd" d="M373.058 305.307C374.069 305.977 374.897 307.544 374.897 308.8C374.897 309.354 375.164 309.511 374.897 309.729C374.557 310.004 368.441 313.68 367.871 313.303C366.859 312.633 365.655 310.816 365.655 309.56C365.655 308.985 371.062 305.559 371.347 305.347C371.687 305.1 372.506 304.942 373.058 305.307Z" fill="url(#paint40_linear_506_7)"/>
<path fill-rule="evenodd" clip-rule="evenodd" d="M373.058 305.307C374.069 305.977 374.897 307.544 374.897 308.8C374.897 309.354 375.164 309.511 374.897 309.729C374.557 310.004 368.441 313.68 367.871 313.303C366.859 312.633 365.655 310.816 365.655 309.56C365.655 308.985 371.062 305.559 371.347 305.347C371.687 305.1 372.506 304.942 373.058 305.307Z" fill="url(#paint41_linear_506_7)"/>
<path fill-rule="evenodd" clip-rule="evenodd" d="M373.058 317.101C374.069 317.77 374.897 319.338 374.897 320.593C374.897 321.148 375.164 321.305 374.897 321.522C374.557 321.797 368.441 325.474 367.871 325.096C366.859 324.426 365.655 322.609 365.655 321.354C365.655 320.778 371.062 317.353 371.347 317.141C371.687 316.893 372.506 316.735 373.058 317.101Z" fill="url(#paint42_linear_506_7)"/>
<path fill-rule="evenodd" clip-rule="evenodd" d="M373.058 317.101C374.069 317.77 374.897 319.338 374.897 320.593C374.897 321.148 375.164 321.305 374.897 321.522C374.557 321.797 368.441 325.474 367.871 325.096C366.859 324.426 365.655 322.609 365.655 321.354C365.655 320.778 371.062 317.353 371.347 317.141C371.687 316.893 372.506 316.735 373.058 317.101Z" fill="url(#paint43_linear_506_7)"/>
<path d="M373.122 321.45C374.1 322.098 374.894 321.642 374.894 320.431C374.894 319.22 374.1 317.713 373.122 317.066C372.143 316.418 371.35 316.874 371.35 318.085C371.35 319.296 372.143 320.803 373.122 321.45Z" fill="white"/>
<path d="M373.122 321.45C374.1 322.098 374.894 321.642 374.894 320.431C374.894 319.22 374.1 317.713 373.122 317.066C372.143 316.418 371.35 316.874 371.35 318.085C371.35 319.296 372.143 320.803 373.122 321.45Z" fill="white"/>
<g opacity="0.69">
<path d="M460.007 114.768L426.935 135.706L460.007 156.644L493.079 135.706L460.007 114.768Z" fill="white"/>
<path d="M460.007 114.768L426.935 135.706L460.007 156.644L493.079 135.706L460.007 114.768Z" fill="white"/>
</g>
<path d="M460.005 120.748L431.656 138.696L460.005 156.644L488.355 138.696L460.005 120.748Z" fill="white"/>
<path fill-rule="evenodd" clip-rule="evenodd" d="M426.936 69.895L426.933 135.706L460.007 156.645L493.079 135.707L493.087 69.8936L426.936 69.895Z" fill="url(#paint44_linear_506_7)"/>
<path d="M460.006 153.097V16.0518" stroke="url(#paint45_linear_506_7)" stroke-width="0.901767" stroke-miterlimit="1.5" stroke-linecap="round" stroke-linejoin="round"/>
<path fill-rule="evenodd" clip-rule="evenodd" d="M455.282 54.9394C457.89 53.2885 462.125 53.2886 464.733 54.9397C467.34 56.5903 467.34 59.2715 464.733 60.9223C462.125 62.5732 457.89 62.573 455.283 60.9224C452.675 59.2713 452.675 56.5902 455.282 54.9394ZM455.624 55.5885C458.043 54.0569 461.971 54.0568 464.391 55.5886C465.431 56.2471 466.005 57.0671 466.005 57.9311C466.005 58.7948 465.431 59.6151 464.391 60.2732C461.972 61.8048 458.044 61.8049 455.625 60.2735C454.585 59.615 454.01 58.7946 454.011 57.931C454.01 57.0669 454.584 56.2466 455.624 55.5885Z" fill="url(#paint46_linear_506_7)"/>
<path fill-rule="evenodd" clip-rule="evenodd" d="M450.556 51.9468C455.771 48.6447 464.24 48.645 469.455 51.9466C474.671 55.2488 474.671 60.6102 469.455 63.9123C464.24 67.2143 455.771 67.2142 450.555 63.912C445.34 60.6103 445.34 55.2489 450.556 51.9468ZM450.897 52.5959C455.924 49.4132 464.086 49.413 469.113 52.5956C471.457 54.0795 472.683 55.9828 472.683 57.9293C472.683 59.8758 471.457 61.7794 469.114 63.2632C464.087 66.4459 455.924 66.4456 450.897 63.2631C448.554 61.7796 447.327 59.8759 447.327 57.9294C447.327 55.9829 448.553 54.0797 450.897 52.5959Z" fill="url(#paint47_linear_506_7)"/>
<path d="M460.01 36.1901C462.62 36.1901 464.736 33.8699 464.736 31.0078C464.736 28.1457 462.62 25.8256 460.01 25.8256C457.4 25.8256 455.284 28.1457 455.284 31.0078C455.284 33.8699 457.4 36.1901 460.01 36.1901Z" fill="url(#paint48_radial_506_7)"/>
<path d="M460.007 388.634L341.885 312.196V346.461L460.007 422.9V388.634Z" fill="url(#paint49_linear_506_7)"/>
<path d="M578.131 312.196L460.009 388.597V422.875L578.131 346.474V312.196Z" fill="url(#paint50_linear_506_7)"/>
<path d="M597.033 398.946L540.334 434.842L597.033 470.738L653.732 434.842L597.033 398.946Z" fill="white"/>
<g opacity="0.69">
<path d="M653.728 337.97L597.03 300.23V397.125L653.728 434.866V337.97Z" fill="url(#paint51_linear_506_7)"/>
</g>
<g opacity="0.7">
<path d="M597.03 300.23L540.331 337.931V434.841L597.03 397.14V300.23Z" fill="url(#paint52_linear_506_7)"/>
</g>
<path fill-rule="evenodd" clip-rule="evenodd" d="M623.018 386.979C606.478 386.977 585.176 361.549 568.68 360.056C552.143 358.56 540.331 369.03 540.331 369.03L540.334 434.842L597.032 470.737L653.731 434.841L653.732 380.997C653.732 380.997 641.917 386.978 623.018 386.979Z" fill="#39D0FF" fill-opacity="0.89"/>
<path fill-rule="evenodd" clip-rule="evenodd" d="M608.841 426.26C589.854 426.26 540.33 369.03 540.33 369.03L540.334 434.842L597.032 470.737L653.731 434.841L653.732 380.997C653.732 380.997 641.915 426.26 608.841 426.26Z" fill="#24F2FF"/>
<path d="M549.781 407.85C551.085 408.714 552.143 408.106 552.143 406.491C552.143 404.877 551.085 402.868 549.781 402.004C548.476 401.14 547.418 401.749 547.418 403.363C547.418 404.978 548.476 406.987 549.781 407.85Z" fill="white" fill-opacity="0.45"/>
<path d="M579.058 440.44C579.851 440.965 580.493 440.595 580.493 439.614C580.493 438.633 579.851 437.412 579.058 436.888C578.265 436.363 577.622 436.733 577.622 437.714C577.622 438.695 578.265 439.915 579.058 440.44Z" fill="white" fill-opacity="0.45"/>
<path d="M605.299 432.563C605.951 432.131 606.48 431.126 606.48 430.319C606.48 429.512 605.951 429.208 605.299 429.64C604.647 430.072 604.118 431.076 604.118 431.883C604.118 432.69 604.647 432.995 605.299 432.563Z" fill="white" fill-opacity="0.45"/>
<g opacity="0.81">
<path d="M597.029 373.867L540.331 336.126V433.022L597.029 470.762V373.867Z" fill="url(#paint53_linear_506_7)"/>
</g>
<g opacity="0.81">
<path d="M653.729 336.126L597.03 373.827V470.737L653.729 433.036V336.126Z" fill="url(#paint54_linear_506_7)"/>
</g>
<path fill-rule="evenodd" clip-rule="evenodd" d="M597.033 300.231L540.334 336.127L597.032 372.023L653.731 336.126L597.033 300.231ZM544.431 336.125L597.031 369.426L649.629 336.126L597.029 302.825L544.431 336.125Z" fill="url(#paint55_linear_506_7)"/>
<path d="M582.858 332.733C584.163 332.733 585.22 331.574 585.22 330.143C585.22 328.712 584.163 327.552 582.858 327.552C581.553 327.552 580.495 328.712 580.495 330.143C580.495 331.574 581.553 332.733 582.858 332.733Z" fill="url(#paint56_radial_506_7)"/>
<path d="M624.575 283.894C627.629 283.894 630.106 281.179 630.106 277.829C630.106 274.48 627.629 271.765 624.575 271.765C621.52 271.765 619.044 274.48 619.044 277.829C619.044 281.179 621.52 283.894 624.575 283.894Z" fill="url(#paint57_radial_506_7)"/>
<path d="M579.314 257.041C583.88 257.041 587.582 252.981 587.582 247.974C587.582 242.966 583.88 238.907 579.314 238.907C574.747 238.907 571.046 242.966 571.046 247.974C571.046 252.981 574.747 257.041 579.314 257.041Z" fill="url(#paint58_radial_506_7)"/>
<path d="M597.029 454.192L521.432 404.929V439.436L597.029 488.7V454.192Z" fill="url(#paint59_linear_506_7)"/>
<path d="M672.629 404.928L597.03 454.167V488.685L672.629 439.446V404.928Z" fill="url(#paint60_linear_506_7)"/>
<path fill-rule="evenodd" clip-rule="evenodd" d="M596.905 300.15L540.335 335.965L596.905 371.78L653.475 335.965L596.905 300.15ZM551.823 335.962L596.902 364.502L641.979 335.963L596.9 307.424L551.823 335.962Z" fill="white"/>
<path fill-rule="evenodd" clip-rule="evenodd" d="M596.905 300.15L540.335 335.965L596.905 371.78L653.475 335.965L596.905 300.15ZM551.823 335.962L596.902 364.502L641.979 335.963L596.9 307.424L551.823 335.962Z" fill="white"/>
<path fill-rule="evenodd" clip-rule="evenodd" d="M523.793 484.198V496.163L485.994 520.094L448.194 496.163V484.198L485.994 460.267L523.793 484.198Z" fill="url(#paint61_linear_506_7)"/>
<path d="M486.001 460.27L448.202 484.2L486.001 508.131L523.8 484.2L486.001 460.27Z" fill="url(#paint62_linear_506_7)"/>
<path d="M485.994 508.661L448.195 484.197V495.63L485.994 520.094V508.661Z" fill="url(#paint63_linear_506_7)"/>
<path d="M523.793 484.197L485.994 508.66V520.093L523.793 495.63V484.197Z" fill="url(#paint64_linear_506_7)"/>
<path d="M490.628 485.706C492.553 484.487 492.553 482.511 490.628 481.293C488.703 480.074 485.582 480.074 483.657 481.293C481.732 482.511 481.732 484.488 483.657 485.706C485.582 486.925 488.703 486.925 490.628 485.706Z" fill="white"/>
<path d="M490.628 485.706C492.553 484.487 492.553 482.511 490.628 481.293C488.703 480.074 485.582 480.074 483.657 481.293C481.732 482.511 481.732 484.488 483.657 485.706C485.582 486.925 488.703 486.925 490.628 485.706Z" fill="white"/>
<path d="M490.628 485.706C492.553 484.487 492.553 482.511 490.628 481.293C488.703 480.074 485.582 480.074 483.657 481.293C481.732 482.511 481.732 484.488 483.657 485.706C485.582 486.925 488.703 486.925 490.628 485.706Z" fill="white"/>
<path d="M490.628 485.706C492.553 484.487 492.553 482.511 490.628 481.293C488.703 480.074 485.582 480.074 483.657 481.293C481.732 482.511 481.732 484.488 483.657 485.706C485.582 486.925 488.703 486.925 490.628 485.706Z" fill="white"/>
<path fill-rule="evenodd" clip-rule="evenodd" d="M472.966 475.947C465.138 480.903 465.141 488.941 472.963 493.893C480.792 498.849 493.493 498.848 501.316 493.895C509.145 488.939 509.142 480.901 501.312 475.945L497.769 478.188C503.647 481.91 503.641 487.933 497.77 491.65C491.903 495.364 482.379 495.367 476.507 491.649C470.642 487.936 470.641 481.909 476.512 478.192L472.966 475.947Z" fill="white"/>
<path fill-rule="evenodd" clip-rule="evenodd" d="M472.966 475.947C465.138 480.903 465.141 488.941 472.963 493.893C480.792 498.849 493.493 498.848 501.316 493.895C509.145 488.939 509.142 480.901 501.312 475.945L497.769 478.188C503.647 481.91 503.641 487.933 497.77 491.65C491.903 495.364 482.379 495.367 476.507 491.649C470.642 487.936 470.641 481.909 476.512 478.192L472.966 475.947Z" fill="white"/>
<path fill-rule="evenodd" clip-rule="evenodd" d="M501.312 475.945C493.49 470.992 480.795 470.99 472.966 475.947L476.512 478.192C482.384 474.475 491.904 474.475 497.769 478.188L501.312 475.945Z" fill="#24F2FF"/>
<path d="M475.328 474.451L472.966 475.947L484.778 483.426L487.141 481.93L475.328 474.451Z" fill="white"/>
<path d="M475.328 474.451L472.966 475.947L484.778 483.426L487.141 481.93L475.328 474.451Z" fill="white"/>
<path fill-rule="evenodd" clip-rule="evenodd" d="M507.184 485.173V446.76H467.097V485.647C467.097 485.647 472.969 496.887 487.141 496.887C501.312 496.887 507.184 487.693 507.184 485.173Z" fill="url(#paint65_linear_506_7)"/>
<path fill-rule="evenodd" clip-rule="evenodd" d="M472.967 446.549C480.791 441.596 493.495 441.597 501.311 446.545C509.136 451.5 509.138 459.542 501.314 464.495C493.491 469.449 480.787 469.448 472.961 464.493C465.145 459.545 465.144 451.502 472.967 446.549ZM476.507 448.79C482.375 445.075 491.905 445.078 497.767 448.789C503.639 452.506 503.642 458.54 497.775 462.255C491.907 465.969 482.377 465.967 476.505 462.25C470.643 458.539 470.64 452.505 476.507 448.79Z" fill="white"/>
<path fill-rule="evenodd" clip-rule="evenodd" d="M472.967 446.549C480.791 441.596 493.495 441.597 501.311 446.545C509.136 451.5 509.138 459.542 501.314 464.495C493.491 469.449 480.787 469.448 472.961 464.493C465.145 459.545 465.144 451.502 472.967 446.549ZM476.507 448.79C482.375 445.075 491.905 445.078 497.767 448.789C503.639 452.506 503.642 458.54 497.775 462.255C491.907 465.969 482.377 465.967 476.505 462.25C470.643 458.539 470.64 452.505 476.507 448.79Z" fill="white"/>
<path d="M485.994 514.813L434.02 481.207V495.473L485.994 529.08V514.813Z" fill="url(#paint66_linear_506_7)"/>
<path d="M537.968 481.207L485.994 514.797V529.069L537.968 495.479V481.207Z" fill="url(#paint67_linear_506_7)"/>
<defs>
<linearGradient id="paint0_linear_506_7" x1="143.521" y1="389.675" x2="138.11" y2="387.337" gradientUnits="userSpaceOnUse">
<stop stop-color="#24F2FF"/>
<stop offset="1" stop-color="#39D0FF"/>
</linearGradient>
<linearGradient id="paint1_linear_506_7" x1="274.271" y1="394.735" x2="279.169" y2="392.611" gradientUnits="userSpaceOnUse">
<stop stop-color="#24F2FF"/>
<stop offset="1" stop-color="#39D0FF"/>
</linearGradient>
<linearGradient id="paint2_linear_506_7" x1="313.536" y1="291.256" x2="313.536" y2="233.823" gradientUnits="userSpaceOnUse">
<stop stop-color="#87F8FF"/>
<stop offset="0.51" stop-color="#4DDAFF"/>
<stop offset="1" stop-color="#39D0FF"/>
</linearGradient>
<linearGradient id="paint3_linear_506_7" x1="282.864" y1="271.319" x2="293.682" y2="255.424" gradientUnits="userSpaceOnUse">
<stop stop-color="#24F2FF"/>
<stop offset="1" stop-color="#39D0FF"/>
</linearGradient>
<linearGradient id="paint4_linear_506_7" x1="339.563" y1="274.336" x2="328.73" y2="258.454" gradientUnits="userSpaceOnUse">
<stop stop-color="#24F2FF"/>
<stop offset="1" stop-color="#39D0FF"/>
</linearGradient>
<linearGradient id="paint5_linear_506_7" x1="313.535" y1="267.323" x2="322.964" y2="196.534" gradientUnits="userSpaceOnUse">
<stop stop-color="#39D0FF"/>
<stop offset="1" stop-color="#0097C7"/>
</linearGradient>
<linearGradient id="paint6_linear_506_7" x1="313.536" y1="252.369" x2="313.536" y2="194.935" gradientUnits="userSpaceOnUse">
<stop stop-color="#87F8FF"/>
<stop offset="0.51" stop-color="#4DDAFF"/>
<stop offset="1" stop-color="#39D0FF"/>
</linearGradient>
<linearGradient id="paint7_linear_506_7" x1="282.864" y1="232.431" x2="293.682" y2="216.537" gradientUnits="userSpaceOnUse">
<stop stop-color="#24F2FF" stop-opacity="0.99"/>
<stop offset="1" stop-color="#39D0FF" stop-opacity="0.99"/>
</linearGradient>
<linearGradient id="paint8_linear_506_7" x1="339.563" y1="235.449" x2="328.73" y2="219.567" gradientUnits="userSpaceOnUse">
<stop stop-color="#24F2FF" stop-opacity="0.99"/>
<stop offset="1" stop-color="#39D0FF" stop-opacity="0.99"/>
</linearGradient>
<linearGradient id="paint9_linear_506_7" x1="313.535" y1="228.436" x2="322.964" y2="157.646" gradientUnits="userSpaceOnUse">
<stop stop-color="#39D0FF" stop-opacity="0.99"/>
<stop offset="1" stop-color="#0097C7" stop-opacity="0.99"/>
</linearGradient>
<linearGradient id="paint10_linear_506_7" x1="313.536" y1="213.481" x2="313.536" y2="156.048" gradientUnits="userSpaceOnUse">
<stop stop-color="#87F8FF"/>
<stop offset="0.51" stop-color="#4DDAFF"/>
<stop offset="1" stop-color="#39D0FF"/>
</linearGradient>
<linearGradient id="paint11_linear_506_7" x1="282.864" y1="193.544" x2="293.682" y2="177.649" gradientUnits="userSpaceOnUse">
<stop stop-color="#24F2FF"/>
<stop offset="1" stop-color="#39D0FF"/>
</linearGradient>
<linearGradient id="paint12_linear_506_7" x1="339.563" y1="196.561" x2="328.73" y2="180.679" gradientUnits="userSpaceOnUse">
<stop stop-color="#24F2FF"/>
<stop offset="1" stop-color="#39D0FF"/>
</linearGradient>
<linearGradient id="paint13_linear_506_7" x1="313.535" y1="189.548" x2="322.964" y2="118.759" gradientUnits="userSpaceOnUse">
<stop stop-color="#39D0FF"/>
<stop offset="1" stop-color="#0097C7"/>
</linearGradient>
<linearGradient id="paint14_linear_506_7" x1="291.091" y1="184.829" x2="282.816" y2="189.524" gradientUnits="userSpaceOnUse">
<stop stop-color="white"/>
<stop offset="1" stop-color="white" stop-opacity="0"/>
</linearGradient>
<linearGradient id="paint15_linear_506_7" x1="291.091" y1="223.949" x2="282.85" y2="228.624" gradientUnits="userSpaceOnUse">
<stop stop-color="white"/>
<stop offset="1" stop-color="white" stop-opacity="0"/>
</linearGradient>
<linearGradient id="paint16_linear_506_7" x1="291.091" y1="262.604" x2="282.675" y2="267.339" gradientUnits="userSpaceOnUse">
<stop stop-color="white"/>
<stop offset="1" stop-color="white" stop-opacity="0"/>
</linearGradient>
<linearGradient id="paint17_linear_506_7" x1="264.308" y1="167.837" x2="257.701" y2="170.422" gradientUnits="userSpaceOnUse">
<stop stop-color="white"/>
<stop offset="1" stop-color="white" stop-opacity="0"/>
</linearGradient>
<linearGradient id="paint18_linear_506_7" x1="264.308" y1="167.837" x2="257.701" y2="170.422" gradientUnits="userSpaceOnUse">
<stop stop-color="white"/>
<stop offset="1" stop-color="white" stop-opacity="0"/>
</linearGradient>
<linearGradient id="paint19_linear_506_7" x1="264.398" y1="207.015" x2="257.792" y2="209.6" gradientUnits="userSpaceOnUse">
<stop stop-color="white"/>
<stop offset="1" stop-color="white" stop-opacity="0"/>
</linearGradient>
<linearGradient id="paint20_linear_506_7" x1="264.398" y1="207.015" x2="257.792" y2="209.6" gradientUnits="userSpaceOnUse">
<stop stop-color="white"/>
<stop offset="1" stop-color="white" stop-opacity="0"/>
</linearGradient>
<linearGradient id="paint21_linear_506_7" x1="264.398" y1="245.67" x2="257.792" y2="248.254" gradientUnits="userSpaceOnUse">
<stop stop-color="white"/>
<stop offset="1" stop-color="white" stop-opacity="0"/>
</linearGradient>
<linearGradient id="paint22_linear_506_7" x1="264.398" y1="245.67" x2="257.792" y2="248.254" gradientUnits="userSpaceOnUse">
<stop stop-color="white"/>
<stop offset="1" stop-color="white" stop-opacity="0"/>
</linearGradient>
<linearGradient id="paint23_linear_506_7" x1="313.538" y1="153.658" x2="313.538" y2="126.731" gradientUnits="userSpaceOnUse">
<stop stop-color="white"/>
<stop offset="1" stop-color="white" stop-opacity="0"/>
</linearGradient>
<linearGradient id="paint24_linear_506_7" x1="272.961" y1="248.271" x2="253.343" y2="252.684" gradientUnits="userSpaceOnUse">
<stop stop-color="#00E2F0" stop-opacity="0"/>
<stop offset="1" stop-color="#5AF5FF" stop-opacity="0.5"/>
</linearGradient>
<linearGradient id="paint25_linear_506_7" x1="356.332" y1="281.329" x2="335.898" y2="277.227" gradientUnits="userSpaceOnUse">
<stop stop-color="#00E2F0" stop-opacity="0.5"/>
<stop offset="1" stop-color="#00ABB6" stop-opacity="0"/>
</linearGradient>
<radialGradient id="paint26_radial_506_7" cx="0" cy="0" r="1" gradientUnits="userSpaceOnUse" gradientTransform="translate(457.185 239.09) rotate(107.278) scale(116.05 137.642)">
<stop stop-color="white"/>
<stop offset="0.53" stop-color="#CDFCFF"/>
<stop offset="1" stop-color="#24F2FF"/>
</radialGradient>
<radialGradient id="paint27_radial_506_7" cx="0" cy="0" r="1" gradientUnits="userSpaceOnUse" gradientTransform="translate(457.185 239.09) rotate(107.278) scale(116.05 137.642)">
<stop stop-color="white"/>
<stop offset="0.53" stop-color="#CDFCFF"/>
<stop offset="1" stop-color="#24F2FF"/>
</radialGradient>
<radialGradient id="paint28_radial_506_7" cx="0" cy="0" r="1" gradientUnits="userSpaceOnUse" gradientTransform="translate(514.066 206.34) rotate(77.5436) scale(67.2528 42.0689)">
<stop stop-color="white"/>
<stop offset="0.53" stop-color="#CDFCFF"/>
<stop offset="1" stop-color="#24F2FF"/>
</radialGradient>
<radialGradient id="paint29_radial_506_7" cx="0" cy="0" r="1" gradientUnits="userSpaceOnUse" gradientTransform="translate(514.066 206.34) rotate(77.5436) scale(67.2528 42.0689)">
<stop stop-color="white"/>
<stop offset="0.53" stop-color="#CDFCFF"/>
<stop offset="1" stop-color="#24F2FF"/>
</radialGradient>
<linearGradient id="paint30_linear_506_7" x1="502.532" y1="355.651" x2="444.209" y2="354.85" gradientUnits="userSpaceOnUse">
<stop stop-color="white"/>
<stop offset="1" stop-color="white" stop-opacity="0"/>
</linearGradient>
<linearGradient id="paint31_linear_506_7" x1="408.033" y1="349.36" x2="525.993" y2="308.996" gradientUnits="userSpaceOnUse">
<stop stop-color="white"/>
<stop offset="1" stop-color="white" stop-opacity="0"/>
</linearGradient>
<linearGradient id="paint32_linear_506_7" x1="408.89" y1="350.909" x2="421.475" y2="350.238" gradientUnits="userSpaceOnUse">
<stop stop-color="#24F2FF"/>
<stop offset="1" stop-color="#39D0FF"/>
</linearGradient>
<linearGradient id="paint33_linear_506_7" x1="503.388" y1="355.913" x2="491.487" y2="355.277" gradientUnits="userSpaceOnUse">
<stop stop-color="#24F2FF"/>
<stop offset="1" stop-color="#39D0FF"/>
</linearGradient>
<linearGradient id="paint34_linear_506_7" x1="460.006" y1="225.443" x2="460.006" y2="135.706" gradientUnits="userSpaceOnUse">
<stop stop-color="#87F8FF"/>
<stop offset="0.51" stop-color="#4DDAFF"/>
<stop offset="1" stop-color="#39D0FF"/>
</linearGradient>
<linearGradient id="paint35_linear_506_7" x1="408.89" y1="192.362" x2="423.225" y2="191.597" gradientUnits="userSpaceOnUse">
<stop stop-color="#87F8FF"/>
<stop offset="1" stop-color="#39D0FF"/>
</linearGradient>
<linearGradient id="paint36_linear_506_7" x1="503.388" y1="197.372" x2="488.865" y2="196.597" gradientUnits="userSpaceOnUse">
<stop stop-color="#24F2FF"/>
<stop offset="1" stop-color="#39D0FF"/>
</linearGradient>
<linearGradient id="paint37_linear_506_7" x1="460.008" y1="195.53" x2="475.723" y2="77.5476" gradientUnits="userSpaceOnUse">
<stop stop-color="#39D0FF"/>
<stop offset="1" stop-color="#0097C7"/>
</linearGradient>
<linearGradient id="paint38_linear_506_7" x1="430.476" y1="341.73" x2="422.79" y2="346.135" gradientUnits="userSpaceOnUse">
<stop stop-color="white"/>
<stop offset="1" stop-color="white" stop-opacity="0"/>
</linearGradient>
<linearGradient id="paint39_linear_506_7" x1="430.476" y1="353.517" x2="422.64" y2="357.991" gradientUnits="userSpaceOnUse">
<stop stop-color="white"/>
<stop offset="1" stop-color="white" stop-opacity="0"/>
</linearGradient>
<linearGradient id="paint40_linear_506_7" x1="373.122" y1="305.35" x2="366.516" y2="307.934" gradientUnits="userSpaceOnUse">
<stop stop-color="white"/>
<stop offset="1" stop-color="white" stop-opacity="0"/>
</linearGradient>
<linearGradient id="paint41_linear_506_7" x1="373.122" y1="305.35" x2="366.516" y2="307.934" gradientUnits="userSpaceOnUse">
<stop stop-color="white"/>
<stop offset="1" stop-color="white" stop-opacity="0"/>
</linearGradient>
<linearGradient id="paint42_linear_506_7" x1="373.122" y1="317.143" x2="366.516" y2="319.728" gradientUnits="userSpaceOnUse">
<stop stop-color="white"/>
<stop offset="1" stop-color="white" stop-opacity="0"/>
</linearGradient>
<linearGradient id="paint43_linear_506_7" x1="373.122" y1="317.143" x2="366.516" y2="319.728" gradientUnits="userSpaceOnUse">
<stop stop-color="white"/>
<stop offset="1" stop-color="white" stop-opacity="0"/>
</linearGradient>
<linearGradient id="paint44_linear_506_7" x1="460.009" y1="156.644" x2="468.259" y2="94.7046" gradientUnits="userSpaceOnUse">
<stop stop-color="white"/>
<stop offset="1" stop-color="white" stop-opacity="0"/>
</linearGradient>
<linearGradient id="paint45_linear_506_7" x1="-nan" y1="-nan" x2="-nan" y2="-nan" gradientUnits="userSpaceOnUse">
<stop stop-color="white"/>
<stop offset="1" stop-color="white" stop-opacity="0"/>
</linearGradient>
<linearGradient id="paint46_linear_506_7" x1="460.009" y1="72.8884" x2="463.152" y2="49.2914" gradientUnits="userSpaceOnUse">
<stop stop-color="#24F2FF"/>
<stop offset="1" stop-color="#24F2FF" stop-opacity="0"/>
</linearGradient>
<linearGradient id="paint47_linear_506_7" x1="460.009" y1="72.8884" x2="463.152" y2="49.2914" gradientUnits="userSpaceOnUse">
<stop stop-color="#24F2FF"/>
<stop offset="1" stop-color="#24F2FF" stop-opacity="0"/>
</linearGradient>
<radialGradient id="paint48_radial_506_7" cx="0" cy="0" r="1" gradientUnits="userSpaceOnUse" gradientTransform="translate(460.01 33.9469) rotate(-90) scale(7.60561 6.93585)">
<stop stop-color="#24F2FF"/>
<stop offset="1" stop-color="#24F2FF" stop-opacity="0"/>
</radialGradient>
<linearGradient id="paint49_linear_506_7" x1="393.858" y1="380.094" x2="413.435" y2="371.731" gradientUnits="userSpaceOnUse">
<stop stop-color="#24F2FF" stop-opacity="0.5"/>
<stop offset="1" stop-color="#24F2FF" stop-opacity="0"/>
</linearGradient>
<linearGradient id="paint50_linear_506_7" x1="511.983" y1="389.259" x2="493.339" y2="381.245" gradientUnits="userSpaceOnUse">
<stop stop-color="#24F2FF" stop-opacity="0.5"/>
<stop offset="1" stop-color="#24F2FF" stop-opacity="0"/>
</linearGradient>
<linearGradient id="paint51_linear_506_7" x1="622.544" y1="414.108" x2="683.567" y2="392.155" gradientUnits="userSpaceOnUse">
<stop stop-color="white"/>
<stop offset="1" stop-color="white" stop-opacity="0"/>
</linearGradient>
<linearGradient id="paint52_linear_506_7" x1="565.845" y1="417.875" x2="501.886" y2="395.909" gradientUnits="userSpaceOnUse">
<stop stop-color="white"/>
<stop offset="1" stop-color="white" stop-opacity="0"/>
</linearGradient>
<linearGradient id="paint53_linear_506_7" x1="565.845" y1="450.004" x2="619.694" y2="431.766" gradientUnits="userSpaceOnUse">
<stop stop-color="white"/>
<stop offset="1" stop-color="white" stop-opacity="0"/>
</linearGradient>
<linearGradient id="paint54_linear_506_7" x1="564.759" y1="466.922" x2="529.413" y2="454.102" gradientUnits="userSpaceOnUse">
<stop stop-color="white"/>
<stop offset="1" stop-color="white" stop-opacity="0"/>
</linearGradient>
<linearGradient id="paint55_linear_506_7" x1="597.028" y1="300.228" x2="587.599" y2="371.019" gradientUnits="userSpaceOnUse">
<stop stop-color="white" stop-opacity="0"/>
<stop offset="1" stop-color="white" stop-opacity="0.66"/>
</linearGradient>
<radialGradient id="paint56_radial_506_7" cx="0" cy="0" r="1" gradientUnits="userSpaceOnUse" gradientTransform="translate(582.858 331.612) rotate(-90) scale(3.80187 3.46708)">
<stop stop-color="#24F2FF"/>
<stop offset="1" stop-color="#24F2FF" stop-opacity="0"/>
</radialGradient>
<radialGradient id="paint57_radial_506_7" cx="0" cy="0" r="1" gradientUnits="userSpaceOnUse" gradientTransform="translate(624.575 281.269) rotate(-90) scale(8.90073 8.117)">
<stop stop-color="#24F2FF"/>
<stop offset="1" stop-color="#24F2FF" stop-opacity="0"/>
</radialGradient>
<radialGradient id="paint58_radial_506_7" cx="0" cy="0" r="1" gradientUnits="userSpaceOnUse" gradientTransform="translate(579.314 253.116) rotate(-90) scale(13.3065 12.1348)">
<stop stop-color="#24F2FF"/>
<stop offset="1" stop-color="#24F2FF" stop-opacity="0"/>
</radialGradient>
<linearGradient id="paint59_linear_506_7" x1="554.694" y1="461.112" x2="568.166" y2="459.05" gradientUnits="userSpaceOnUse">
<stop stop-color="#24F2FF" stop-opacity="0.5"/>
<stop offset="1" stop-color="#24F2FF" stop-opacity="0"/>
</linearGradient>
<linearGradient id="paint60_linear_506_7" x1="630.293" y1="467.02" x2="616.19" y2="464.84" gradientUnits="userSpaceOnUse">
<stop stop-color="#24F2FF" stop-opacity="0.5"/>
<stop offset="1" stop-color="#24F2FF" stop-opacity="0"/>
</linearGradient>
<linearGradient id="paint61_linear_506_7" x1="485.994" y1="520.094" x2="485.994" y2="484.198" gradientUnits="userSpaceOnUse">
<stop stop-color="#87F8FF"/>
<stop offset="0.51" stop-color="#4DDAFF"/>
<stop offset="1" stop-color="#39D0FF"/>
</linearGradient>
<linearGradient id="paint62_linear_506_7" x1="485.997" y1="508.127" x2="492.283" y2="460.934" gradientUnits="userSpaceOnUse">
<stop stop-color="#39D0FF"/>
<stop offset="1" stop-color="#0097C7"/>
</linearGradient>
<linearGradient id="paint63_linear_506_7" x1="465.545" y1="506.86" x2="471.506" y2="505.277" gradientUnits="userSpaceOnUse">
<stop stop-color="#24F2FF"/>
<stop offset="1" stop-color="#39D0FF"/>
</linearGradient>
<linearGradient id="paint64_linear_506_7" x1="503.344" y1="508.866" x2="495.707" y2="506.877" gradientUnits="userSpaceOnUse">
<stop stop-color="#24F2FF"/>
<stop offset="1" stop-color="#39D0FF"/>
</linearGradient>
<linearGradient id="paint65_linear_506_7" x1="487.141" y1="496.887" x2="487.141" y2="447.576" gradientUnits="userSpaceOnUse">
<stop stop-color="white"/>
<stop offset="1" stop-color="white" stop-opacity="0"/>
</linearGradient>
<linearGradient id="paint66_linear_506_7" x1="456.889" y1="510.259" x2="465.25" y2="506.701" gradientUnits="userSpaceOnUse">
<stop stop-color="#24F2FF" stop-opacity="0.5"/>
<stop offset="1" stop-color="#24F2FF" stop-opacity="0"/>
</linearGradient>
<linearGradient id="paint67_linear_506_7" x1="508.863" y1="514.288" x2="500.278" y2="510.546" gradientUnits="userSpaceOnUse">
<stop stop-color="#24F2FF" stop-opacity="0.5"/>
<stop offset="1" stop-color="#24F2FF" stop-opacity="0"/>
</linearGradient>
</defs>
</svg>
