<svg width="786" height="600" viewBox="0 0 786 600" fill="none" xmlns="http://www.w3.org/2000/svg">
<rect width="786" height="600" rx="60" fill="#F4F4F4"/>
<circle cx="592" cy="206.5" r="6" stroke="#606060" stroke-width="3"/>
<circle cx="535" cy="131.5" r="6" stroke="#606060" stroke-width="3"/>
<circle cx="495" cy="104.5" r="6" stroke="#606060" stroke-width="3"/>
<circle cx="452" cy="147" r="6" stroke="#606060" stroke-width="3"/>
<circle cx="452.5" cy="212" r="5.5" stroke="#606060" stroke-width="3"/>
<circle cx="486.5" cy="250.5" r="6" stroke="#606060" stroke-width="3"/>
<circle cx="417" cy="257" r="5.5" stroke="#606060" stroke-width="3"/>
<circle cx="367.5" cy="257" r="4.5" stroke="#606060" stroke-width="3"/>
<circle cx="343" cy="300.5" r="6" stroke="#606060" stroke-width="3"/>
<circle cx="404" cy="79.5" r="6" stroke="#606060" stroke-width="3"/>
<circle cx="404" cy="136.5" r="4" stroke="#606060" stroke-width="3"/>
<circle cx="356" cy="140.5" r="6" stroke="#606060" stroke-width="3"/>
<circle cx="356" cy="82.5" r="6" stroke="#606060" stroke-width="3"/>
<circle cx="310" cy="94.5" r="6" stroke="#606060" stroke-width="3"/>
<circle cx="310" cy="158.5" r="6" stroke="#606060" stroke-width="3"/>
<circle cx="268" cy="117.5" r="6" stroke="#606060" stroke-width="3"/>
<circle cx="354" cy="200.5" r="6" stroke="#606060" stroke-width="3"/>
<circle cx="312" cy="229.5" r="6" stroke="#606060" stroke-width="3"/>
<circle cx="244.5" cy="229" r="6.5" stroke="#606060" stroke-width="3"/>
<circle cx="203" cy="186.5" r="6" stroke="#606060" stroke-width="3"/>
<circle cx="183" cy="230" r="4" stroke="#606060" stroke-width="3"/>
<circle cx="173" cy="276.5" r="6" stroke="#606060" stroke-width="3"/>
<circle cx="231" cy="275.5" r="6" stroke="#606060" stroke-width="3"/>
<circle cx="289" cy="274.5" r="6" stroke="#606060" stroke-width="3"/>
<circle cx="289.5" cy="326" r="7.5" stroke="#606060" stroke-width="3"/>
<circle cx="231" cy="324.5" r="6" stroke="#606060" stroke-width="3"/>
<circle cx="173" cy="324" r="7.5" stroke="#606060" stroke-width="3"/>
<circle cx="183" cy="371" r="6" stroke="#606060" stroke-width="3"/>
<circle cx="245" cy="371" r="6" stroke="#606060" stroke-width="3"/>
<circle cx="273" cy="411.5" r="6" stroke="#606060" stroke-width="3"/>
<circle cx="273" cy="411.5" r="6" stroke="#606060" stroke-width="3"/>
<circle cx="203" cy="414.5" r="6" stroke="#606060" stroke-width="3"/>
<circle cx="232" cy="452.5" r="6" stroke="#606060" stroke-width="3"/>
<circle cx="268.5" cy="483.5" r="7.5" stroke="#606060" stroke-width="3"/>
<circle cx="311" cy="505.5" r="6" stroke="#606060" stroke-width="3"/>
<circle cx="357" cy="518" r="6" stroke="#606060" stroke-width="3"/>
<circle cx="405" cy="520.5" r="6" stroke="#606060" stroke-width="3"/>
<circle cx="405" cy="463.5" r="6" stroke="#606060" stroke-width="3"/>
<circle cx="452.5" cy="452" r="7.5" stroke="#606060" stroke-width="3"/>
<circle cx="494.5" cy="428" r="4.5" stroke="#606060" stroke-width="3"/>
<circle cx="568.5" cy="434" r="6.5" stroke="#606060" stroke-width="3"/>
<circle cx="535.5" cy="469" r="6.5" stroke="#606060" stroke-width="3"/>
<circle cx="495.5" cy="495" r="6.5" stroke="#606060" stroke-width="3"/>
<circle cx="451.5" cy="513" r="6.5" stroke="#606060" stroke-width="3"/>
<circle cx="405" cy="406" r="7.5" stroke="#606060" stroke-width="3"/>
<circle cx="354.5" cy="399.5" r="6" stroke="#606060" stroke-width="3"/>
<circle cx="313" cy="370.5" r="6" stroke="#606060" stroke-width="3"/>
<circle cx="368" cy="342.5" r="6" stroke="#606060" stroke-width="3"/>
<circle cx="311" cy="441.5" r="6" stroke="#606060" stroke-width="3"/>
<circle cx="356" cy="459.5" r="6" stroke="#606060" stroke-width="3"/>
<circle cx="272.5" cy="189" r="7.5" stroke="#606060" stroke-width="3"/>
<circle cx="231.5" cy="149" r="7.5" stroke="#606060" stroke-width="3"/>
<circle cx="607.5" cy="252" r="5.5" stroke="#606060" stroke-width="3"/>
<circle cx="548.5" cy="251" r="5.5" stroke="#606060" stroke-width="3"/>
<circle cx="556" cy="299.5" r="6" stroke="#606060" stroke-width="3"/>
<circle cx="613" cy="299.5" r="8" stroke="#606060" stroke-width="3"/>
<circle cx="608" cy="347.5" r="6" stroke="#606060" stroke-width="3"/>
<circle cx="548.5" cy="348" r="6.5" stroke="#606060" stroke-width="3"/>
<circle cx="527.5" cy="392" r="6.5" stroke="#606060" stroke-width="3"/>
<circle cx="592.5" cy="393" r="6.5" stroke="#606060" stroke-width="3"/>
<circle cx="486.5" cy="349" r="6.5" stroke="#606060" stroke-width="3"/>
<circle cx="453.5" cy="387" r="6.5" stroke="#606060" stroke-width="3"/>
<circle cx="416.5" cy="343" r="6.5" stroke="#606060" stroke-width="3"/>
<circle cx="498.5" cy="300" r="7.5" stroke="#606060" stroke-width="3"/>
<circle cx="441.5" cy="300" r="4.5" stroke="#606060" stroke-width="3"/>
<circle cx="527" cy="207.5" r="6" stroke="#606060" stroke-width="3"/>
<circle cx="567.5" cy="166" r="7.5" stroke="#606060" stroke-width="3"/>
<circle cx="493.5" cy="171" r="7.5" stroke="#606060" stroke-width="3"/>
<circle cx="450.5" cy="87" r="7.5" stroke="#606060" stroke-width="3"/>
<circle cx="405.5" cy="194" r="7.5" stroke="#606060" stroke-width="3"/>
</svg>
