<svg width="786" height="600" viewBox="0 0 786 600" fill="none" xmlns="http://www.w3.org/2000/svg">
<rect width="786" height="600" rx="60" fill="#F4F4F4"/>
<g clip-path="url(#clip0_2594_511)">
<path d="M393 329H392L220 273L393 72L566 273L393 329ZM225 271L393 326L561 271L393 77L225 271Z" fill="#606060"/>
<path d="M394 76H391V326H394V76Z" fill="#606060"/>
<path d="M393 527L392 526L218 324L393 383L568 324L393 527ZM228 331L393 522L559 331L393 386L228 331Z" fill="#606060"/>
<path d="M394 385H391V522H394V385Z" fill="#606060"/>
<path d="M393 386H392L217 324L314 300L393 325L470 300H471L568 324L393 386ZM228 325L393 383L557 325L470 303L393 328H392L314 303L228 325Z" fill="#606060"/>
<path d="M391.539 327.443L391.995 327.589L392.452 327.446L440.056 312.57L489.684 324.3L392.003 359.389L295.288 324.307L344.94 312.571L391.539 327.443Z" stroke="#606060" stroke-width="3.02968"/>
</g>
<defs>
<clipPath id="clip0_2594_511">
<rect width="351" height="455" fill="white" transform="translate(217 72)"/>
</clipPath>
</defs>
</svg>
