<svg xmlns="http://www.w3.org/2000/svg" fill="none" viewBox="0 0 295 138"><g clip-path="url(#a)"><rect width="67" height="99" x="227.5" y=".5" stroke="#000" stroke-opacity=".3" rx="11.5"/><path stroke="#000" stroke-opacity=".3" d="M.5 12C.5 5.649 5.649.5 12 .5h44C62.351.5 67.5 5.649 67.5 12v76c0 6.351-5.149 11.5-11.5 11.5H12C5.649 99.5.5 94.351.5 88V12Z"/><path stroke="#000" stroke-opacity=".7" d="M72.5 64c0-6.351 5.149-11.5 11.5-11.5h78c6.351 0 11.5 5.149 11.5 11.5v24c0 6.351-5.149 11.5-11.5 11.5H84c-6.351 0-11.5-5.149-11.5-11.5V64Z"/><path stroke="#000" stroke-opacity=".95" d="M123.5 12c0-6.351 5.149-11.5 11.5-11.5h78c6.351 0 11.5 5.149 11.5 11.5v24c0 6.351-5.149 11.5-11.5 11.5h-78c-6.351 0-11.5-5.149-11.5-11.5V12Z"/><path stroke="#000" stroke-opacity=".6" d="M72.5 12C72.5 5.649 77.649.5 84 .5h24c6.351 0 11.5 5.149 11.5 11.5v24c0 6.351-5.149 11.5-11.5 11.5H84c-6.351 0-11.5-5.149-11.5-11.5V12ZM177.5 63c0-6.351 5.149-11.5 11.5-11.5h24c6.351 0 11.5 5.149 11.5 11.5v24c0 6.351-5.149 11.5-11.5 11.5h-24c-6.351 0-11.5-5.149-11.5-11.5V63Z"/><path fill="url(#b)" d="M261-82h57v319h-57z"/><path fill="url(#c)" d="M310 93h78v319h-78z" transform="rotate(90 310 93)"/><path fill="url(#d)" d="M0 0h81v319H0z" transform="matrix(0 -1 -1 0 318 33)"/><path fill="url(#e)" d="M0 0h57v319H0z" transform="matrix(-1 0 0 1 33 -112)"/><path fill="#000" fill-opacity=".6" d="M140.986 31V16.454h1.676v5.37h.142c.123-.19.294-.431.512-.725.222-.298.539-.563.951-.795.417-.237.98-.355 1.691-.355.918 0 1.728.23 2.429.689.7.46 1.247 1.11 1.64 1.953.393.843.59 1.837.59 2.983 0 1.155-.197 2.157-.59 3.004-.393.843-.937 1.496-1.633 1.96-.696.46-1.499.69-2.408.69-.701 0-1.262-.117-1.683-.349-.422-.237-.746-.504-.973-.802a10.508 10.508 0 0 1-.526-.753h-.199V31h-1.619Zm1.648-5.454c0 .823.12 1.55.362 2.18.241.625.594 1.115 1.058 1.47.464.35 1.032.526 1.705.526.7 0 1.285-.185 1.754-.554.473-.374.829-.876 1.065-1.506.242-.634.363-1.34.363-2.116 0-.768-.119-1.459-.356-2.074-.232-.62-.584-1.11-1.058-1.47-.469-.365-1.058-.547-1.768-.547-.682 0-1.255.172-1.719.518-.464.34-.814.82-1.051 1.435-.237.61-.355 1.323-.355 2.137Zm13.757 5.71c-.691 0-1.319-.13-1.882-.39a3.232 3.232 0 0 1-1.343-1.144c-.331-.502-.497-1.108-.497-1.819 0-.625.123-1.131.37-1.52.246-.392.575-.7.987-.923a5.188 5.188 0 0 1 1.363-.497 16.631 16.631 0 0 1 1.513-.27c.663-.085 1.2-.149 1.612-.192.417-.047.72-.125.909-.234.195-.109.292-.298.292-.568v-.057c0-.7-.192-1.245-.576-1.633-.378-.389-.954-.583-1.725-.583-.801 0-1.428.175-1.883.526-.454.35-.774.724-.958 1.122l-1.591-.568c.284-.663.663-1.18 1.136-1.549a4.255 4.255 0 0 1 1.563-.78 6.481 6.481 0 0 1 1.676-.228c.35 0 .753.042 1.207.128.459.08.902.248 1.328.504.431.256.789.642 1.073 1.158.284.516.426 1.207.426 2.073V31h-1.676v-1.477h-.086c-.113.236-.303.49-.568.76-.265.27-.618.5-1.058.689-.44.189-.978.284-1.612.284Zm.255-1.506c.663 0 1.222-.13 1.677-.39.459-.261.805-.597 1.037-1.01.236-.411.355-.844.355-1.299v-1.534c-.071.085-.228.163-.469.234a7.896 7.896 0 0 1-.824.178 37.67 37.67 0 0 1-1.605.213c-.436.057-.843.15-1.222.277-.374.123-.677.31-.909.561-.227.246-.341.582-.341 1.009 0 .582.216 1.022.647 1.32.435.294.987.441 1.654.441Zm12.236 1.477c-1.023 0-1.903-.241-2.642-.724-.739-.483-1.307-1.148-1.705-1.996-.397-.847-.596-1.816-.596-2.905 0-1.108.203-2.085.611-2.933.411-.852.984-1.518 1.718-1.996.739-.483 1.601-.724 2.586-.724.767 0 1.458.142 2.073.426.616.284 1.12.682 1.513 1.193.393.511.637 1.108.732 1.79h-1.676c-.128-.497-.412-.938-.853-1.321-.435-.388-1.022-.582-1.761-.582-.653 0-1.226.17-1.719.51-.488.337-.869.813-1.143 1.428-.27.611-.405 1.329-.405 2.152 0 .843.132 1.577.398 2.202.269.625.648 1.11 1.136 1.456.492.346 1.07.519 1.733.519.436 0 .831-.076 1.186-.228.355-.151.656-.369.902-.653.246-.284.421-.625.526-1.023h1.676a3.887 3.887 0 0 1-.703 1.74c-.37.512-.86.919-1.471 1.222-.606.298-1.311.447-2.116.447Zm8.302-4.204-.028-2.074h.341l4.773-4.858h2.074l-5.086 5.142h-.142l-1.932 1.79ZM175.622 31V16.454h1.676V31h-1.676Zm6.932 0-4.262-5.398 1.194-1.165L184.684 31h-2.13Zm10.822-4.46v-6.45h1.676V31h-1.676v-1.847h-.114c-.255.554-.653 1.026-1.193 1.414-.54.383-1.222.575-2.045.575-.682 0-1.288-.15-1.819-.447-.53-.303-.947-.758-1.25-1.364-.303-.61-.454-1.38-.454-2.308V20.09h1.676v6.818c0 .796.223 1.43.668 1.904.449.473 1.022.71 1.718.71.417 0 .841-.107 1.272-.32.435-.213.8-.54 1.093-.98.299-.44.448-1.001.448-1.683Zm4.746 8.55v-15h1.619v1.734h.199c.123-.19.294-.431.512-.725.222-.298.539-.563.951-.795.417-.237.98-.355 1.691-.355.918 0 1.728.23 2.429.689.7.46 1.247 1.11 1.64 1.953.393.843.59 1.837.59 2.983 0 1.155-.197 2.157-.59 3.004-.393.843-.937 1.496-1.633 1.96-.696.46-1.499.69-2.408.69-.701 0-1.262-.117-1.683-.349-.422-.237-.746-.504-.973-.802a10.508 10.508 0 0 1-.526-.753h-.142v5.767h-1.676Zm1.648-9.545c0 .824.12 1.551.362 2.18.241.626.594 1.116 1.058 1.471.464.35 1.032.526 1.705.526.7 0 1.285-.185 1.754-.554.473-.374.829-.876 1.065-1.506.242-.634.363-1.34.363-2.116 0-.768-.119-1.459-.356-2.074-.232-.62-.584-1.11-1.058-1.47-.469-.365-1.058-.547-1.768-.547-.682 0-1.255.172-1.719.518-.464.34-.814.82-1.051 1.435-.237.61-.355 1.323-.355 2.137Z"/><path fill="#000" fill-opacity=".4" d="M91.8 86.09v-15h1.619v1.734h.199c.123-.19.294-.431.511-.725.223-.298.54-.563.952-.795.417-.237.98-.355 1.69-.355.919 0 1.728.23 2.43.689.7.46 1.247 1.11 1.64 1.953.393.843.589 1.837.589 2.983 0 1.155-.196 2.157-.589 3.004-.393.843-.938 1.496-1.634 1.96-.696.46-1.498.69-2.407.69-.701 0-1.262-.117-1.683-.349-.422-.237-.746-.504-.974-.802a10.75 10.75 0 0 1-.525-.753h-.142v5.767H91.8Zm1.647-9.544c0 .823.121 1.55.363 2.18.241.625.594 1.115 1.058 1.47.464.35 1.032.526 1.704.526.701 0 1.286-.185 1.755-.554.473-.374.828-.876 1.065-1.506.242-.635.362-1.34.362-2.117 0-.767-.118-1.458-.355-2.073-.232-.62-.585-1.11-1.058-1.47-.469-.365-1.058-.547-1.769-.547-.681 0-1.254.172-1.718.518-.464.34-.815.82-1.051 1.435-.237.61-.356 1.323-.356 2.138Zm12.216-1.109V82h-1.676V67.454h1.676v5.342h.142a3.09 3.09 0 0 1 1.151-1.343c.516-.336 1.203-.504 2.06-.504.743 0 1.394.149 1.953.447.558.294.992.746 1.299 1.357.313.606.469 1.378.469 2.315V82h-1.676v-6.818c0-.867-.225-1.537-.675-2.01-.445-.478-1.063-.718-1.853-.718-.55 0-1.042.117-1.478.349-.43.232-.771.57-1.022 1.015-.247.445-.37.985-.37 1.62Zm14.572 6.79c-.984 0-1.849-.234-2.592-.703-.739-.469-1.316-1.124-1.733-1.967-.412-.843-.618-1.828-.618-2.955 0-1.136.206-2.128.618-2.976.417-.847.994-1.505 1.733-1.974.743-.469 1.608-.703 2.592-.703.985 0 1.847.234 2.586.703.743.469 1.321 1.127 1.733 1.974.416.848.625 1.84.625 2.976 0 1.127-.209 2.112-.625 2.955-.412.843-.99 1.498-1.733 1.967-.739.469-1.601.703-2.586.703Zm0-1.505c.749 0 1.364-.192 1.847-.576.483-.383.84-.888 1.072-1.513a5.792 5.792 0 0 0 .348-2.03c0-.73-.116-1.41-.348-2.04-.232-.629-.589-1.138-1.072-1.526-.483-.388-1.098-.583-1.847-.583-.748 0-1.363.195-1.846.583a3.437 3.437 0 0 0-1.073 1.527 5.851 5.851 0 0 0-.348 2.038c0 .73.116 1.406.348 2.031.232.626.59 1.13 1.073 1.513.483.384 1.098.576 1.846.576Zm12.247-9.631v1.42h-5.654v-1.42h5.654Zm-4.006-2.614h1.676v10.398c0 .474.069.829.206 1.065.142.232.322.389.54.47.222.075.457.113.703.113.185 0 .336-.01.454-.029l.284-.056.341 1.505a3.393 3.393 0 0 1-.475.128 3.508 3.508 0 0 1-.775.071c-.473 0-.937-.102-1.392-.305a2.768 2.768 0 0 1-1.122-.93c-.293-.417-.44-.943-.44-1.578V68.477Zm10.841 13.75c-.984 0-1.848-.234-2.592-.703-.738-.469-1.316-1.124-1.733-1.967-.412-.843-.618-1.828-.618-2.955 0-1.136.206-2.128.618-2.976.417-.847.995-1.505 1.733-1.974.744-.469 1.608-.703 2.592-.703.985 0 1.847.234 2.586.703.743.469 1.321 1.127 1.733 1.974.416.848.625 1.84.625 2.976 0 1.127-.209 2.112-.625 2.955-.412.843-.99 1.498-1.733 1.967-.739.469-1.601.703-2.586.703Zm0-1.505c.749 0 1.364-.192 1.847-.576.483-.383.84-.888 1.073-1.513a5.792 5.792 0 0 0 .348-2.03c0-.73-.116-1.41-.348-2.04-.233-.629-.59-1.138-1.073-1.526-.483-.388-1.098-.583-1.847-.583-.748 0-1.363.195-1.846.583a3.437 3.437 0 0 0-1.073 1.527 5.851 5.851 0 0 0-.348 2.038c0 .73.116 1.406.348 2.031.232.626.59 1.13 1.073 1.513.483.384 1.098.576 1.846.576Zm15.23-7.188-1.506.426a2.824 2.824 0 0 0-.419-.731 2.032 2.032 0 0 0-.739-.597c-.312-.156-.712-.234-1.2-.234-.668 0-1.224.154-1.669.461-.44.303-.661.69-.661 1.158 0 .417.152.746.455.987.303.242.776.443 1.42.604l1.62.398c.975.236 1.702.599 2.18 1.086.478.483.717 1.106.717 1.868 0 .625-.18 1.184-.539 1.676-.356.493-.853.881-1.492 1.165-.639.284-1.382.426-2.23.426-1.113 0-2.034-.241-2.763-.724-.729-.483-1.191-1.189-1.385-2.117l1.591-.397c.152.587.438 1.027.86 1.32.426.294.982.441 1.669.441.781 0 1.401-.166 1.86-.497.464-.336.696-.739.696-1.207 0-.38-.132-.697-.397-.952-.265-.26-.673-.455-1.222-.583l-1.818-.426c-.999-.236-1.733-.603-2.202-1.1-.464-.502-.696-1.13-.696-1.883 0-.615.173-1.16.519-1.633.35-.474.826-.845 1.427-1.115.606-.27 1.293-.405 2.06-.405 1.079 0 1.927.237 2.542.71.621.474 1.061 1.099 1.322 1.875Z"/><path stroke="#000" stroke-opacity=".5" d="M.5 115c0-6.351 5.149-11.5 11.5-11.5h271c6.351 0 11.5 5.149 11.5 11.5v11c0 6.351-5.149 11.5-11.5 11.5H12C5.649 137.5.5 132.351.5 126v-11Z"/><path fill="#000" fill-opacity=".1" d="M28.35 134.114c-.356 0-.67-.03-.942-.089-.266-.053-.45-.107-.55-.16l.852-1.847c.485.131.918.169 1.296.116.385-.047.749-.234 1.092-.559.35-.32.713-.823 1.092-1.51l.586-1.065-2.734-13.636h2.184l1.953 10.902h.142l5.575-10.902h2.362l-8.363 15.607c-.39.728-.82 1.323-1.287 1.784a4.603 4.603 0 0 1-1.519 1.021 4.511 4.511 0 0 1-1.74.338Zm18.54-4.83c-1.254 0-2.304-.299-3.15-.897-.847-.597-1.445-1.435-1.794-2.512-.343-1.077-.4-2.332-.169-3.764.225-1.397.672-2.613 1.34-3.649.675-1.042 1.513-1.847 2.513-2.415 1.006-.574 2.113-.861 3.32-.861 1.255 0 2.303.302 3.143.906.846.597 1.444 1.438 1.793 2.521.35 1.077.409 2.338.178 3.782-.225 1.385-.678 2.595-1.358 3.631-.675 1.03-1.512 1.832-2.513 2.406-.994.568-2.095.852-3.302.852Zm.036-1.882c.96 0 1.79-.246 2.495-.737a5.532 5.532 0 0 0 1.722-1.944 8.08 8.08 0 0 0 .897-2.61c.142-.888.136-1.714-.018-2.477-.154-.77-.482-1.388-.985-1.856-.503-.473-1.21-.71-2.122-.71-.959 0-1.796.249-2.512.746a5.592 5.592 0 0 0-1.723 1.962 8.148 8.148 0 0 0-.879 2.619c-.142.888-.139 1.713.01 2.477.153.757.481 1.37.985 1.838.509.461 1.219.692 2.13.692Zm18.77-3.977 1.35-8.061h2.095L66.868 129h-2.095l.39-2.308h-.141c-.427.692-1.021 1.281-1.785 1.766-.763.48-1.66.72-2.69.72-.852 0-1.58-.187-2.184-.56-.598-.379-1.024-.947-1.278-1.704-.249-.764-.278-1.726-.089-2.886l1.456-8.664h2.095l-1.42 8.522c-.16.995-.01 1.788.452 2.38.462.591 1.128.887 1.998.887.52 0 1.071-.133 1.651-.399.586-.266 1.107-.675 1.563-1.225.461-.551.763-1.252.905-2.104Zm5.01 5.575 2.272-13.636h2.024l-.355 2.059h.142c.355-.674.897-1.222 1.625-1.642.728-.42 1.5-.63 2.317-.63.16 0 .352.003.577.008.225 0 .4.009.524.027l-.355 2.131a5.852 5.852 0 0 0-.48-.08 4.802 4.802 0 0 0-.799-.062c-.662 0-1.275.139-1.837.417a3.947 3.947 0 0 0-1.412 1.136 3.597 3.597 0 0 0-.728 1.643L72.801 129h-2.095Zm22.063.284c-1.308 0-2.388-.29-3.24-.87-.852-.586-1.447-1.403-1.785-2.45-.337-1.054-.39-2.279-.16-3.676.231-1.396.69-2.627 1.377-3.693.686-1.071 1.541-1.906 2.565-2.503a6.519 6.519 0 0 1 3.374-.906c.71 0 1.394.118 2.05.355a4.172 4.172 0 0 1 1.705 1.154c.48.527.814 1.225 1.003 2.095.19.871.178 1.942-.035 3.214l-.142.888H88.97l.284-1.811h8.38c.136-.769.1-1.456-.106-2.06a2.747 2.747 0 0 0-1.057-1.429c-.497-.349-1.127-.524-1.89-.524-.788 0-1.522.213-2.202.639a5.795 5.795 0 0 0-1.705 1.598c-.456.64-.74 1.291-.852 1.954l-.249 1.562c-.177 1.13-.15 2.03.08 2.699.237.669.648 1.151 1.234 1.447.586.29 1.32.435 2.202.435.562 0 1.08-.077 1.553-.231.474-.16.897-.396 1.27-.71.373-.32.686-.716.941-1.19l1.918.568a5.58 5.58 0 0 1-1.376 1.812 6.493 6.493 0 0 1-2.06 1.207c-.781.284-1.637.426-2.566.426Zm12.387-13.92 2.344 5.575 4.19-5.575h2.415l-5.54 6.818 3.267 6.818h-2.415l-2.379-5.291-4.155 5.291h-2.414l5.468-6.818-3.196-6.818h2.415Zm17.869 0-.284 1.775h-7.067l.284-1.775h7.067Zm-4.475-3.267h2.096l-2.167 12.997c-.094.592-.079 1.035.045 1.331.13.29.325.486.586.586.266.095.553.142.861.142.231 0 .42-.011.568-.035l.355-.071.142 1.882c-.16.053-.376.107-.648.16a4.64 4.64 0 0 1-.985.089 3.759 3.759 0 0 1-1.669-.382 2.65 2.65 0 0 1-1.199-1.163c-.278-.521-.352-1.178-.222-1.971l2.237-13.565ZM123.904 129l2.273-13.636h2.024l-.355 2.059h.142c.355-.674.896-1.222 1.624-1.642a4.566 4.566 0 0 1 2.317-.63c.16 0 .353.003.577.008.225 0 .4.009.524.027l-.355 2.131a5.871 5.871 0 0 0-.479-.08 4.806 4.806 0 0 0-.799-.062c-.663 0-1.276.139-1.838.417a3.953 3.953 0 0 0-1.412 1.136 3.611 3.611 0 0 0-.728 1.643l-1.42 8.629h-2.095Zm13.328.32c-.864 0-1.622-.163-2.273-.489a3.194 3.194 0 0 1-1.447-1.429c-.314-.627-.4-1.385-.258-2.273.137-.781.4-1.414.791-1.9.39-.491.864-.876 1.42-1.154a7.367 7.367 0 0 1 1.811-.63 20.55 20.55 0 0 1 1.944-.329c.841-.106 1.524-.189 2.051-.248.527-.059.923-.157 1.19-.293.266-.136.429-.37.488-.701v-.071c.142-.87.027-1.548-.346-2.033-.373-.492-1.039-.737-1.998-.737-.994 0-1.826.219-2.494.657-.669.438-1.163.905-1.483 1.402l-1.847-.71c.486-.828 1.066-1.474 1.74-1.935a6.43 6.43 0 0 1 2.122-.977 8.64 8.64 0 0 1 2.14-.284c.438 0 .932.053 1.482.16.551.1 1.066.311 1.545.63.485.32.849.802 1.092 1.447.249.645.284 1.51.107 2.593L143.517 129h-2.095l.32-1.847h-.107c-.189.296-.479.613-.87.95-.385.338-.873.625-1.465.861-.586.237-1.275.356-2.068.356Zm.603-1.882c.829 0 1.554-.163 2.175-.489a4.286 4.286 0 0 0 1.51-1.26c.384-.515.624-1.057.719-1.625l.319-1.918c-.106.107-.316.204-.63.293-.314.083-.669.157-1.065.222-.391.059-.773.113-1.146.16-.366.041-.662.077-.887.107a8.97 8.97 0 0 0-1.589.346 3.262 3.262 0 0 0-1.261.701c-.337.308-.548.728-.63 1.261-.125.728.05 1.278.523 1.651.474.367 1.128.551 1.962.551Zm21.651-16.62L156.468 129h-2.095l3.018-18.182h2.095Zm4.796 18.502c-.864 0-1.621-.163-2.272-.489a3.189 3.189 0 0 1-1.447-1.429c-.314-.627-.4-1.385-.258-2.273.136-.781.4-1.414.79-1.9a4.188 4.188 0 0 1 1.421-1.154 7.367 7.367 0 0 1 1.811-.63 20.55 20.55 0 0 1 1.944-.329c.841-.106 1.524-.189 2.051-.248.527-.059.923-.157 1.189-.293.267-.136.43-.37.489-.701v-.071c.142-.87.026-1.548-.346-2.033-.373-.492-1.039-.737-1.998-.737-.994 0-1.826.219-2.495.657-.668.438-1.163.905-1.482 1.402l-1.847-.71c.485-.828 1.066-1.474 1.74-1.935a6.43 6.43 0 0 1 2.122-.977 8.64 8.64 0 0 1 2.14-.284c.438 0 .932.053 1.482.16.551.1 1.066.311 1.545.63.485.32.849.802 1.092 1.447.248.645.284 1.51.106 2.593L170.568 129h-2.095l.319-1.847h-.106c-.19.296-.48.613-.87.95-.385.338-.873.625-1.465.861-.586.237-1.275.356-2.069.356Zm.604-1.882c.829 0 1.554-.163 2.175-.489a4.274 4.274 0 0 0 1.509-1.26c.385-.515.625-1.057.72-1.625l.319-1.918c-.106.107-.316.204-.63.293-.314.083-.669.157-1.066.222-.39.059-.772.113-1.145.16-.367.041-.663.077-.888.107a8.99 8.99 0 0 0-1.589.346 3.265 3.265 0 0 0-1.26.701c-.338.308-.548.728-.631 1.261-.124.728.051 1.278.524 1.651.474.367 1.128.551 1.962.551Zm9.506 1.562 2.273-13.636h2.024l-.355 2.059h.142c.355-.674.897-1.222 1.625-1.642.728-.42 1.5-.63 2.317-.63.159 0 .352.003.577.008.225 0 .399.009.524.027l-.356 2.131a5.79 5.79 0 0 0-.479-.08 4.806 4.806 0 0 0-.799-.062c-.663 0-1.275.139-1.838.417a3.941 3.941 0 0 0-1.411 1.136 3.59 3.59 0 0 0-.728 1.643L176.487 129h-2.095Zm13.588 5.398c-1.018 0-1.871-.13-2.557-.391-.687-.254-1.237-.592-1.651-1.012a4.497 4.497 0 0 1-.942-1.332l1.883-1.172c.142.249.325.533.55.853.225.325.565.606 1.021.843.462.243 1.11.364 1.944.364 1.095 0 2.054-.266 2.877-.799.822-.533 1.331-1.367 1.527-2.503l.426-2.77h-.178c-.189.248-.453.556-.79.923-.337.361-.79.684-1.358.968-.568.278-1.296.417-2.184.417-1.107 0-2.054-.26-2.841-.781-.787-.521-1.352-1.279-1.696-2.273-.337-.994-.387-2.202-.151-3.622.231-1.397.675-2.613 1.332-3.649.663-1.042 1.48-1.847 2.45-2.415a6.133 6.133 0 0 1 3.179-.861c.887 0 1.568.148 2.041.444.48.29.829.621 1.048.994.219.367.385.669.497.906h.213l.355-2.166H197l-2.309 14.027c-.195 1.171-.618 2.124-1.269 2.858a5.743 5.743 0 0 1-2.397 1.625 8.737 8.737 0 0 1-3.045.524Zm1.1-7.493c.835 0 1.578-.193 2.229-.577.657-.385 1.201-.938 1.633-1.66.432-.722.731-1.587.897-2.593.166-.982.154-1.849-.036-2.601-.189-.752-.547-1.34-1.074-1.767-.521-.426-1.204-.639-2.051-.639-.893 0-1.666.225-2.317.675-.645.45-1.169 1.053-1.571 1.811a8.233 8.233 0 0 0-.835 2.521c-.153.947-.147 1.785.018 2.513.166.722.503 1.29 1.012 1.704.515.409 1.214.613 2.095.613Zm15.164 2.379c-1.308 0-2.388-.29-3.241-.87-.852-.586-1.447-1.403-1.784-2.45-.337-1.054-.391-2.279-.16-3.676.231-1.396.69-2.627 1.376-3.693.687-1.071 1.542-1.906 2.566-2.503a6.518 6.518 0 0 1 3.374-.906c.71 0 1.393.118 2.05.355a4.177 4.177 0 0 1 1.705 1.154c.479.527.814 1.225 1.003 2.095.189.871.178 1.942-.035 3.214l-.143.888h-10.511l.284-1.811h8.381c.136-.769.101-1.456-.107-2.06a2.746 2.746 0 0 0-1.056-1.429c-.497-.349-1.128-.524-1.891-.524-.787 0-1.521.213-2.202.639a5.792 5.792 0 0 0-1.704 1.598c-.456.64-.74 1.291-.853 1.954l-.248 1.562c-.178 1.13-.151 2.03.08 2.699.236.669.648 1.151 1.234 1.447.586.29 1.32.435 2.201.435.563 0 1.081-.077 1.554-.231.474-.16.897-.396 1.27-.71.372-.32.686-.716.941-1.19l1.917.568a5.57 5.57 0 0 1-1.376 1.812 6.492 6.492 0 0 1-2.059 1.207c-.782.284-1.637.426-2.566.426Zm24.294-13.92-.284 1.775h-7.351l.284-1.775h7.351ZM221.116 129l2.592-15.518c.119-.782.403-1.433.853-1.954.455-.52.997-.911 1.624-1.171a5.02 5.02 0 0 1 1.927-.391c.515 0 .926.041 1.234.124.314.083.541.16.684.231l-.888 1.811c-.107-.035-.249-.08-.426-.133-.172-.053-.409-.08-.711-.08-.692 0-1.219.175-1.58.524-.361.349-.604.861-.728 1.536L223.211 129h-2.095Zm8.086 0 2.272-13.636h2.096L231.297 129h-2.095Zm3.959-15.945a1.49 1.49 0 0 1-1.056-.417 1.34 1.34 0 0 1-.435-1.003c0-.391.145-.725.435-1.003a1.49 1.49 0 0 1 1.056-.418c.409 0 .758.14 1.048.418.296.278.444.612.444 1.003 0 .391-.148.725-.444 1.003a1.46 1.46 0 0 1-1.048.417Zm7.087-2.237L237.229 129h-2.095l3.019-18.182h2.095Zm6.501 18.466c-1.308 0-2.388-.29-3.241-.87-.852-.586-1.447-1.403-1.784-2.45-.338-1.054-.391-2.279-.16-3.676.231-1.396.69-2.627 1.376-3.693.687-1.071 1.542-1.906 2.566-2.503a6.517 6.517 0 0 1 3.373-.906c.711 0 1.394.118 2.051.355a4.177 4.177 0 0 1 1.705 1.154c.479.527.814 1.225 1.003 2.095.189.871.177 1.942-.036 3.214l-.142.888h-10.511l.284-1.811h8.381c.136-.769.1-1.456-.107-2.06a2.746 2.746 0 0 0-1.056-1.429c-.497-.349-1.128-.524-1.891-.524-.787 0-1.521.213-2.202.639a5.78 5.78 0 0 0-1.704 1.598c-.456.64-.74 1.291-.853 1.954l-.248 1.562c-.178 1.13-.151 2.03.08 2.699.236.669.648 1.151 1.234 1.447.586.29 1.319.435 2.201.435a5 5 0 0 0 1.554-.231 3.87 3.87 0 0 0 1.269-.71c.373-.32.687-.716.942-1.19l1.917.568a5.57 5.57 0 0 1-1.376 1.812 6.486 6.486 0 0 1-2.06 1.207c-.781.284-1.636.426-2.565.426Zm20.352-10.866-1.988.532a3.11 3.11 0 0 0-.373-.923c-.172-.302-.438-.547-.799-.737-.355-.195-.841-.293-1.456-.293-.835 0-1.56.193-2.175.577-.616.379-.968.861-1.057 1.447-.089.515.03.927.355 1.234.326.308.87.56 1.634.755l1.953.497c1.172.302 2.006.755 2.503 1.358.504.598.675 1.376.515 2.335-.13.782-.47 1.48-1.021 2.095-.55.616-1.254 1.101-2.112 1.456-.859.356-1.815.533-2.868.533-1.403 0-2.51-.302-3.32-.905-.811-.61-1.243-1.492-1.297-2.646l2.096-.497c.053.728.313 1.278.781 1.651.473.367 1.136.551 1.989.551.976 0 1.79-.208 2.441-.622.651-.42 1.021-.923 1.11-1.509.088-.48-.006-.879-.284-1.199-.273-.319-.746-.559-1.421-.719l-2.166-.532c-1.207-.302-2.054-.764-2.539-1.385-.48-.622-.639-1.403-.48-2.344.131-.77.462-1.45.995-2.042.538-.592 1.213-1.057 2.024-1.394a6.913 6.913 0 0 1 2.663-.506c1.35 0 2.359.296 3.028.888.668.586 1.092 1.367 1.269 2.344Z"/></g><defs><linearGradient id="b" x1="318" x2="261" y1="-36.832" y2="-36.832" gradientUnits="userSpaceOnUse"><stop stop-color="#F4F4F4"/><stop offset="1" stop-color="#F4F4F4" stop-opacity="0"/></linearGradient><linearGradient id="c" x1="388" x2="310" y1="138.168" y2="138.168" gradientUnits="userSpaceOnUse"><stop stop-color="#F4F4F4"/><stop offset="1" stop-color="#F4F4F4" stop-opacity="0"/></linearGradient><linearGradient id="d" x1="81" x2="0" y1="45.168" y2="45.168" gradientUnits="userSpaceOnUse"><stop stop-color="#F4F4F4"/><stop offset="1" stop-color="#F4F4F4" stop-opacity="0"/></linearGradient><linearGradient id="e" x1="57" x2="0" y1="45.168" y2="45.168" gradientUnits="userSpaceOnUse"><stop stop-color="#F4F4F4"/><stop offset="1" stop-color="#F4F4F4" stop-opacity="0"/></linearGradient><clipPath id="a"><path fill="#fff" d="M0 0h295v138H0z"/></clipPath></defs></svg>