<svg width="786" height="600" viewBox="0 0 786 600" fill="none" xmlns="http://www.w3.org/2000/svg">
<rect width="786" height="600" rx="60" fill="#F4F4F4"/>
<g clip-path="url(#clip0_2591_386)">
<path d="M582 210L345 72V126L298 99V153L253 126V180L206 153V391L443 529V475L490 502V448L535 475V421L582 448V210ZM301 104L345 129V180L301 154V104ZM533 417L490 391V264L347 181V130L533 238V417ZM255 184L298 210V337L441 420V471L255 363V184ZM301 336V211L345 237V310L441 367V417L301 336ZM301 208V157L345 183V233L301 208ZM441 363L347 309V238L441 292V363ZM443 368L487 393V444L443 418V368ZM443 364V291L347 234V184L487 265V390L443 364ZM255 131L298 156V207L255 181V131ZM441 524L208 390V158L253 183V364L441 474V524ZM487 497L443 472V421L487 447V497ZM533 470L490 445V394L533 420V470ZM580 443L535 418V237L347 127V77L580 211V443Z" fill="#606060"/>
</g>
<defs>
<clipPath id="clip0_2591_386">
<rect width="376" height="457" fill="white" transform="translate(206 72)"/>
</clipPath>
</defs>
</svg>
