<svg width="40" height="40" viewBox="0 0 40 40" fill="none" xmlns="http://www.w3.org/2000/svg">
<g clip-path="url(#clip0_464_7607)">
<path d="M5.68288 24.7658C8.82144 24.7658 11.3658 22.1212 11.3658 18.859C11.3658 15.5967 8.82144 12.9521 5.68288 12.9521C2.54431 12.9521 0 15.5967 0 18.859C0 22.1212 2.54431 24.7658 5.68288 24.7658Z" fill="#E9500E"/>
<path d="M29.3499 11.8136C32.4884 11.8136 35.0327 9.16905 35.0327 5.90681C35.0327 2.64457 32.4884 0 29.3499 0C26.2113 0 23.667 2.64457 23.667 5.90681C23.667 9.16905 26.2113 11.8136 29.3499 11.8136Z" fill="#E9500E"/>
<path d="M18.5002 34.0607C16.4916 33.6192 14.6027 32.7188 12.9703 31.4248C11.3379 30.1308 10.0029 28.4755 9.06209 26.5789C7.54137 27.2965 5.84577 27.5131 4.20312 27.1996C5.33928 30.1196 7.14809 32.7047 9.47058 34.7279C11.7931 36.751 14.5581 38.1502 17.5227 38.8025C18.8489 39.0979 20.2019 39.2426 21.5581 39.2341C20.5149 37.8124 19.9323 36.0833 19.8942 34.2956C19.4261 34.2415 18.9608 34.1631 18.5002 34.0607Z" fill="#E9500E"/>
<path d="M28.0696 39.9999C31.2082 39.9999 33.7525 37.3553 33.7525 34.0931C33.7525 30.8308 31.2082 28.1863 28.0696 28.1863C24.931 28.1863 22.3867 30.8308 22.3867 34.0931C22.3867 37.3553 24.931 39.9999 28.0696 39.9999Z" fill="#E9500E"/>
<path d="M35.9774 31.9235C38.4135 28.7292 39.8154 24.816 39.9828 20.7436C40.1501 16.6711 39.0743 12.6479 36.9091 9.24929C36.2527 10.8558 35.1371 12.2138 33.7134 13.1394C34.8502 15.3702 35.4062 17.8711 35.3263 20.3941C35.2465 22.9171 34.5334 25.3746 33.258 27.5229C34.5884 28.6549 35.5402 30.1952 35.9774 31.9235ZM5.24414 10.388C5.38835 10.3797 5.53266 10.3756 5.67708 10.3758C7.19971 10.3769 8.69197 10.8186 9.98676 11.6514C11.2395 9.7706 12.9051 8.22695 14.8458 7.14813C16.7864 6.06932 18.9464 5.48636 21.1468 5.4475C21.2387 3.70546 21.8402 2.03413 22.8709 0.657123C15.7246 0.0689184 8.78062 3.90197 5.24414 10.388Z" fill="#E9500E"/>
</g>
<defs>
<clipPath id="clip0_464_7607">
<rect width="40" height="40" fill="white"/>
</clipPath>
</defs>
</svg>
